<svg width="400" height="400" viewBox="0 0 400 400" xmlns="http://www.w3.org/2000/svg"><g fill-rule="evenodd"><path d="M23.598 38.9c-.193 11.074-.099 231.5.099 231.5.164 0 .299-52.11.302-115.8.002-63.69-.087-115.8-.198-115.8-.11 0-.202.045-.203.1M376 154.424c0 76.98.134 115.541.4 115.376.555-.343.555-231 0-231-.266 0-.4 38.808-.4 115.624M147.194 50.9c-.003.055-.048 9.13-.1 20.167-.052 11.036-.245 20.216-.428 20.4-.184.183-.904-.38-1.6-1.251-3.945-4.936-8.806-8.47-13.466-9.79-.99-.28-2.213-.671-2.719-.868-3.04-1.185-14.608-.206-19.51 1.652C102.655 83.755 91.6 93.588 91.6 97.016c0 .143-.322.738-.716 1.322-.638.947-1.503 2.989-2.822 6.662-3.965 11.048-3.851 32.277.225 41.8 6.817 15.93 17.697 24 32.355 24 11.516 0 19.382-3.823 24.94-12.122 1.936-2.891 2.202-2.428 2.329 4.055l.111 5.667H169.2V50.8h-11c-6.05 0-11.003.045-11.006.1m44.406 58.7v58.8h21.6V50.8h-21.6v58.8M260 79.664c-.77.21-2.39.66-3.6.999-6.626 1.857-13.444 7.396-17.651 14.341-9.288 15.331-10.269 43.391-1.95 55.796.369.55.771 1.281.894 1.625.124.343 1.326 1.995 2.673 3.669 12.685 15.768 37.805 17.225 49.067 2.846 2.039-2.602 2.39-2.889 2.906-2.372.922.921-.116 16.358-1.319 19.632-1.228 3.34-3.164 5.973-5.82 7.915-5.608 4.101-19.97 4.074-24.661-.045-1.459-1.281-2.939-3.74-2.939-4.882 0-.767-.329-.788-12.2-.788-13.886 0-12.618-.421-11.61 3.854 3.288 13.94 16.548 21.431 38.01 21.472 16.055.03 26.887-3.376 34-10.692 2.728-2.806 3.031-3.232 4.566-6.437 2.472-5.16 2.61-5.739 4.05-16.997.296-2.316.394-16.919.309-45.8l-.125-42.4-10.689-.107-10.689-.106-.111 5.674c-.127 6.49-.392 6.952-2.332 4.061-5.542-8.256-12.523-11.754-23.315-11.681-3.335.022-6.694.213-7.464.423M131.754 98.85c10.222 2.791 15.007 10.839 15.345 25.809.453 20.02-9.323 30.851-24.653 27.317-5.536-1.276-12.446-8.2-12.446-12.471 0-.3-.151-.716-.336-.925-.326-.37-.752-2.247-1.633-7.204-.237-1.333-.431-3.932-.431-5.776 0-1.844.194-4.443.431-5.776.881-4.957 1.307-6.834 1.633-7.204.185-.209.336-.609.336-.888 0-1.571 3.708-7.728 5.569-9.247 4.307-3.515 11.066-5.033 16.185-3.635m147.46.386c4.535 1.489 8.721 5.212 10.614 9.441.572 1.277 1.205 2.636 1.406 3.018.201.382.366 1.059.366 1.505 0 .446.165 1.123.367 1.505 1.323 2.508 1.304 18.003-.024 19.475-.189.209-.343.793-.343 1.298 0 1.983-2.719 6.872-5.167 9.289-4.075 4.025-6.691 5.035-13.025 5.026-10.326-.014-14.954-4.03-18.66-16.193-.751-2.465-.758-15.82-.01-18.6 3.581-13.305 13.164-19.478 24.476-15.764M97.408 216.8c-9.173 1.659-17.766 8.942-21.005 17.8-.82 2.244-1.203 3.766-1.203 4.782 0 .619-.209 1.822-.464 2.673-.711 2.375.514 8.984 2.489 13.42 3.422 7.685 9.658 12.985 18.085 15.367 3.181.9 10.995 1.094 13.389.333 4.143-1.316 5.304-1.782 7.701-3.094 2.756-1.509 8.533-6.981 9.599-9.094.33-.653.701-1.277.825-1.387.635-.563 2.462-6.093 3.15-9.531 1.782-8.906-2.515-19.443-10.638-26.088-5.008-4.097-14.944-6.445-21.928-5.181m98.392-.148c-11.509 1.788-21.277 11.277-23.006 22.348-.172 1.1-.447 2.69-.611 3.534-.368 1.888.689 8.583 1.779 11.266 4.652 11.462 14.032 17.8 26.342 17.8 4.704 0 5.404-.129 10.168-1.871 8.433-3.085 15.6-12.02 16.948-21.129.565-3.815.135-11.534-.67-12.031-.193-.119-.35-.534-.35-.922 0-.91-2.137-5.321-3.627-7.487-5.598-8.135-17.1-13.043-26.973-11.508m96.682.167c-19.726 3.539-29.575 28.377-17.331 43.704 4.428 5.543 8.535 8.252 16.15 10.656 9.008 2.843 22.527-2.176 28.497-10.579 14.646-20.617-2.576-48.221-27.316-43.781" fill="#fbfbfc"/><path d="M53.6 6.4c0 .22-.72.4-1.6.4-.88 0-1.6.18-1.6.4 0 .22-.54.4-1.2.4-.66 0-1.2.18-1.2.4 0 .22-.36.4-.8.4-.44 0-.8.18-.8.4 0 .22-.373.4-.829.4-.455 0-1.098.27-1.428.6-.33.33-.947.6-1.372.6-.424 0-.771.18-.771.4 0 .22-.236.4-.525.4-.288 0-.911.36-1.383.8-.472.44-1.039.8-1.26.8-.546 0-8.032 7.52-8.032 8.068 0 .241-.335.729-.744 1.085-.867.754-2.856 4.538-2.856 5.434 0 .337-.135.614-.3.616-.401.004-1.3 1.978-1.3 2.853 0 .383-.18.808-.4.944-.22.136-.4 1.047-.4 2.024 0 .977-.135 1.776-.3 1.776-.165 0-.31 52.605-.322 116.9-.013 64.295-.06 117.799-.105 118.898-.046 1.099.099 2.059.322 2.134.223.074.405.84.405 1.701 0 .862.18 1.567.4 1.567.22 0 .4.596.4 1.325 0 .771.334 1.683.8 2.183.44.472.8 1.125.8 1.451 0 1.01 2.333 5.149 3.802 6.748.769.836 1.398 1.631 1.398 1.767 0 .423 4.395 4.526 4.849 4.526.236 0 .934.54 1.551 1.2.617.66 1.409 1.2 1.76 1.2.352 0 .64.18.64.4 0 .22.32.4.712.4.391 0 .971.36 1.288.8.317.44.897.8 1.288.8.392 0 .712.18.712.4 0 .22.45.4 1 .4s1 .18 1 .4c0 .22.349.4.776.4.427 0 .888.18 1.024.4.136.22.676.4 1.2.4.524 0 1.064.18 1.2.4.136.22 1.407.4 2.824.4 1.451 0 2.576.175 2.576.4 0 .255 3.24.4 8.92.4 9.241 0 9.88.109 9.88 1.68 0 .396.18.72.4.72.22 0 .4.27.4.6 0 .33.18.6.4.6.22 0 .4.347.4.771 0 .425.27 1.042.6 1.372.33.33.6.788.6 1.018 0 .678 1.731 4.039 2.08 4.039.176 0 .324.405.329.9.005.495.361 1.35.791 1.9.43.55.786 1.225.791 1.5.005.275.189.5.409.5.22 0 .4.45.4 1s.146 1 .325 1c.179 0 .573.63.875 1.4.302.77.696 1.4.875 1.4.179 0 .325.45.325 1s.18 1 .4 1c.22 0 .4.236.4.525 0 .288.36.911.8 1.383.44.472.8 1.316.8 1.875 0 .559.18 1.017.4 1.017.22 0 .4.236.4.525 0 .288.36.911.8 1.383.44.472.804 1.181.809 1.575.005.394.361 1.167.791 1.717.43.55.786 1.225.791 1.5.005.275.189.5.409.5.22 0 .4.45.4 1s.166 1 .368 1c.203 0 .487.54.632 1.2.145.66.429 1.2.632 1.2.202 0 .368.29.368.646 0 .611 1.529 3.726 2.038 4.154.132.11.357.682.501 1.272.144.59.532 1.342.862 1.671.329.33.599.883.599 1.228 0 .346.18.629.4.629.22 0 .4.234.4.52 0 .736.941 2.673 1.3 2.677.165.002.3.363.3.803 0 .44.18.8.4.8.22 0 .4.326.4.725 0 .398.36 1.111.8 1.583.44.472.8 1.136.8 1.475 0 .339.18.617.4.617.22 0 .4.234.4.52 0 .736.941 2.673 1.3 2.677.165.002.3.363.3.803 0 .44.18.8.4.8.22 0 .4.36.4.8 0 .44.18.8.4.8.22 0 .4.234.4.52 0 .736.941 2.673 1.3 2.677.165.002.3.363.3.803 0 .44.18.8.4.8.22 0 .4.267.4.594 0 .327.63 1.782 1.4 3.233.77 1.452 1.4 2.894 1.4 3.206 0 .312.18.567.4.567.22 0 .4.36.4.8 0 .44.18.8.4.8.22 0 .4.36.4.8 0 .44.18.8.4.8.22 0 .4.345.4.767 0 .421.137.826.304.9.167.073 1.11 1.753 2.096 3.733.986 1.98 1.929 3.66 2.096 3.733.167.074.318.524.336 1 .017.477.122.642.233.367.111-.275.557-.5.992-.5.435 0 .679.18.543.4-.368.596.174.483.829-.171.314-.315.571-.855.571-1.2 0-.346.138-.629.306-.629.371 0 1.694-2.969 1.694-3.803 0-.328.18-.597.4-.597.22 0 .4-.36.4-.8 0-.44.18-.8.4-.8.22 0 .4-.36.4-.8 0-.44.18-.8.4-.8.22 0 .4-.36.4-.8 0-.44.135-.801.3-.803.359-.004 1.3-1.941 1.3-2.677 0-.286.18-.52.4-.52.22 0 .4-.345.4-.767 0-.421.136-.826.302-.9.166-.073.93-1.393 1.698-2.933.768-1.54 1.532-2.86 1.698-2.933.166-.074.302-.479.302-.9 0-.422.18-.767.4-.767.22 0 .4-.36.4-.8 0-.44.135-.801.3-.803.359-.004 1.3-1.941 1.3-2.677 0-.286.18-.52.4-.52.22 0 .4-.36.4-.8 0-.44.135-.801.3-.803.359-.004 1.3-1.941 1.3-2.677 0-.286.18-.52.4-.52.22 0 .4-.36.4-.8 0-.44.138-.8.306-.8.371 0 1.694-2.969 1.694-3.803 0-.328.135-.598.3-.6.359-.004 1.3-1.941 1.3-2.677 0-.286.18-.52.4-.52.22 0 .4-.36.4-.8 0-.44.18-.8.4-.8.22 0 .4-.27.4-.6 0-.33.18-.6.4-.6.22 0 .4-.45.4-1s.18-1 .4-1c.22 0 .4-.278.4-.617 0-.339.36-1.003.8-1.475.44-.472.8-1.275.8-1.783 0-.509.18-.925.4-.925.22 0 .404-.225.409-.5.005-.275.361-.95.791-1.5.43-.55.786-1.315.791-1.7.005-.385.189-.7.409-.7.22 0 .4-.36.4-.8 0-.44.135-.801.3-.803.359-.004 1.3-1.941 1.3-2.677 0-.286.18-.52.4-.52.22 0 .4-.36.4-.8 0-.44.135-.801.3-.803.359-.004 1.3-1.941 1.3-2.677 0-.286.18-.52.4-.52.22 0 .4-.345.4-.767 0-.421.142-.826.315-.9.39-.165 2.485-4.442 2.485-5.073 0-.253.18-.46.4-.46.22 0 .4-.45.4-1s.18-1 .4-1c.22 0 .4-.36.4-.8 0-.44.18-.8.4-.8.22 0 .4-.27.4-.6 0-.33.18-.6.4-.6.22 0 .4-.45.4-1s.18-1 .4-1c.22 0 .4-.278.4-.617 0-.339.36-1.003.8-1.475.44-.472.8-1.275.8-1.783 0-.509.18-.925.4-.925.22 0 .404-.225.409-.5.005-.275.361-.95.791-1.5.43-.55.786-1.238.791-1.529.03-1.747-3.985-1.671 88.78-1.671 58.153 0 87.629-.135 87.629-.4 0-.225 1.125-.4 2.576-.4 1.417 0 2.688-.18 2.824-.4.136-.22.777-.4 1.424-.4.647 0 1.176-.18 1.176-.4 0-.22.36-.4.8-.4.44 0 .8-.18.8-.4 0-.22.324-.4.72-.4.894 0 2.873-.894 2.877-1.3.002-.165.273-.3.603-.3.33 0 .6-.18.6-.4 0-.22.27-.4.6-.4.33 0 .6-.18.6-.4 0-.22.288-.4.64-.4.351 0 1.143-.54 1.76-1.2.617-.66 1.315-1.2 1.551-1.2.462 0 4.849-4.107 4.849-4.539 0-.143.72-1.024 1.6-1.958.88-.934 1.6-1.925 1.6-2.201s.18-.502.4-.502c.22 0 .4-.36.4-.8 0-.44.135-.801.3-.803.359-.004 1.3-1.941 1.3-2.677 0-.286.156-.52.347-.52.451 0 1.653-4.286 1.653-5.893 0-.682.189-1.303.42-1.38.249-.083.377-1.121.313-2.534-.059-1.316-.113-54.818-.12-118.893-.007-64.075-.126-116.5-.265-116.5-.138 0-.33-1.035-.426-2.3-.188-2.495-3.572-9.956-5.127-11.304-.437-.38-.795-.896-.795-1.148 0-.576-7.439-8.048-8.012-8.048-.232 0-.779-.333-1.216-.74-1.042-.971-4.792-2.86-5.678-2.86-.382 0-.694-.18-.694-.4 0-.22-.36-.4-.8-.4-.44 0-.8-.18-.8-.4 0-.22-.54-.4-1.2-.4-.66 0-1.2-.18-1.2-.4 0-.266-49.571-.402-147.9-.406C106.067 6.79 54.012 6.651 54.4 6.4c.513-.331.498-.389-.1-.394-.385-.003-.7.174-.7.394m116.301 102.976c.081 47.076-.001 59.24-.4 59.493-.762.484-21.011.407-21.927-.083-.699-.374-.775-.887-.787-5.3l-.014-4.886-1.257 1.6c-9.423 11.998-25.546 15.237-39.892 8.012-4.227-2.129-12.024-8.991-12.024-10.583a.578.578 0 0 0-.323-.496c-.468-.192-2.877-3.798-2.877-4.305 0-.235-.138-.428-.306-.428-.328 0-1.373-2.172-2.598-5.4-3.212-8.464-4.301-19.527-2.902-29.493.793-5.651 1.827-10.819 2.257-11.287.192-.209.349-.783.349-1.276s.18-1.008.4-1.144c.22-.136.4-.518.4-.849 0-.744 2.441-5.901 2.88-6.084.176-.074.32-.309.32-.522 0-1.462 6.034-8.601 9.563-11.316 13.863-10.661 36.606-8.427 44.494 4.371.726 1.177.74.822.742-18.833 0-11.019.124-20.156.274-20.306.15-.15 5.505-.225 11.9-.167l11.627.106.101 59.176m44.4.077l.102 59.253-.902.242c-1.174.314-21.027.315-22.201 0l-.9-.241V109.62c0-32.498.123-59.209.273-59.359.15-.15 5.505-.225 11.9-.167l11.627.106.101 59.253M274.2 78.636c1.1.133 2.171.404 2.38.603.209.198.616.361.904.361 2.95 0 11.133 6.258 13.564 10.373 1.116 1.889 1.216 1.565 1.03-3.31-.263-6.854-1.389-6.263 11.936-6.263H315.2v46.023c0 26.139-.157 46.747-.364 47.7-.2.922-.587 2.937-.859 4.477-.272 1.54-.671 3.25-.886 3.8l-.741 1.9c-2.256 5.799-6.664 10.969-12.104 14.199-10.198 6.054-30.007 7.997-44.446 4.359-4.405-1.11-12.2-4.521-12.2-5.339 0-.176-.25-.319-.555-.319-.703 0-6.645-5.912-6.645-6.612 0-.287-.149-.581-.332-.655-1.396-.56-4.246-10.527-3.396-11.875.367-.581 1.759-.671 11.971-.77 13.703-.133 13.111-.224 13.799 2.108.293.992.673 1.804.845 1.804.172 0 .313.188.313.418 0 2.369 6.662 4.782 13.2 4.782 8.674 0 15.345-3.618 16.964-9.2.159-.55.478-1.63.708-2.4.688-2.301 1.181-7.068 1.324-12.8.074-2.97.047-5.085-.06-4.7-.107.385-.349.7-.538.7-.189 0-.447.326-.574.724-1.25 3.938-9.819 9.13-17.024 10.314-20.879 3.432-38.761-10.057-42.471-32.038-.637-3.774-.874-18.376-.35-21.6 1.427-8.786 5.867-20.749 8.387-22.6.15-.11.706-.83 1.237-1.6 4.218-6.127 14.275-12.271 20.363-12.44.789-.022 1.884-.193 2.434-.381 1.001-.342 7.24-.196 11 .257m-150.837 20.95c-4.949 1.061-11.363 6.344-11.363 9.359 0 .323-.145.648-.321.722-.401.166-2.079 5.465-2.079 6.564 0 .445-.188.997-.417 1.226-.855.855-.058 19.002.859 19.569.197.122.358.588.358 1.037 0 1.874 3.167 7.427 5.401 9.468 5.069 4.633 14.621 5.468 20.841 1.823 2.077-1.217 5.358-4.372 5.358-5.152 0-.295.135-.595.3-.669 3.778-1.679 5.6-20.053 2.908-29.333a77.352 77.352 0 0 1-.684-2.506c-.121-.498-.378-1.004-.572-1.124-.193-.119-.352-.567-.352-.994 0-.427-.18-.776-.4-.776-.22 0-.4-.247-.4-.549 0-1.311-4.885-5.862-7.793-7.261-3.166-1.522-8.24-2.134-11.644-1.404m145.805-.008c-2.753.505-8.714 3.868-8.756 4.939-.006.174-.348.677-.758 1.117-.672.721-2.024 3.242-2.877 5.366-.177.44-.524 1.79-.772 3s-.62 2.968-.828 3.906c-.517 2.339-.475 11.256.064 13.588 1.39 6.016 2.053 7.769 4.122 10.906 5.768 8.746 20.091 9.343 27.18 1.134 2.052-2.377 2.318-2.82 3.564-5.934.22-.55.546-1.36.724-1.8 1.271-3.141 1.214-21.019-.072-22.38-.197-.209-.359-.719-.359-1.134 0-3.316-5.909-10.175-10.171-11.806-2.635-1.008-8.071-1.452-11.061-.902M110.4 216.605c6.948 2.15 15.573 9.17 17.071 13.895.122.385.381.7.576.7.194 0 .353.272.353.605 0 .333.171.918.381 1.3 2.002 3.649 3.04 13.709 1.764 17.095-.249.66-.692 2.01-.985 3-3.209 10.844-15.2 19.6-26.842 19.6-2.64 0-6.871-.656-8.013-1.243-.382-.196-.927-.357-1.211-.357-1.936 0-8.256-4.025-11.621-7.401-2.348-2.357-5.473-7.159-5.473-8.411 0-.323-.18-.588-.4-.588-.22 0-.4-.362-.4-.805 0-.443-.159-1.118-.353-1.5-1.749-3.445-1.674-12.156.152-17.495.808-2.363 2.508-5.749 3.279-6.529.287-.29.522-.673.522-.851 0-.606 5.396-5.913 7.325-7.205 6.656-4.454 16.643-6.048 23.875-3.81m95.8-.401c9.298 1.96 18.371 10.185 20.955 18.996.291.99.69 2.213.887 2.719.496 1.273.46 11.971-.042 12.281-.22.136-.4.689-.4 1.229 0 .54-.159 1.294-.353 1.676A32.261 32.261 0 0 0 226.4 255c-.762 1.853-2.01 4.227-2.419 4.6-.121.11-.647.83-1.169 1.6-6.081 8.969-22.417 14.514-30.507 10.357-.382-.196-.927-.357-1.211-.357-2.837 0-11.021-5.896-13.88-10-.537-.77-1.082-1.49-1.213-1.6-.491-.414-2.654-5.07-3.159-6.8-.289-.99-.687-2.213-.884-2.719-.569-1.46-.427-10.182.205-12.561.969-3.651 3.234-8.72 3.897-8.72.187 0 .34-.276.34-.613 0-.337 1.575-2.188 3.5-4.113 7.099-7.099 16.546-9.926 26.3-7.87m97.565-.004c5.117 1.084 10.7 4.282 14.547 8.334 2.014 2.121 5.288 6.99 5.288 7.864 0 .227.159.725.353 1.107 1.497 2.942 1.744 4.279 1.93 10.453.104 3.441.011 5.508-.261 5.78-.232.232-.422.828-.422 1.323 0 .95-.367 1.993-1.74 4.939-7.447 15.985-26.68 21.571-41.46 12.042-2.409-1.554-8-7.089-8-7.921 0-.287-.18-.521-.4-.521-.22 0-.4-.197-.4-.438s-.347-.925-.771-1.521c-2.712-3.809-4.486-15.407-2.972-19.441.248-.66.69-2.01.983-3 3.951-13.35 19.134-22.007 33.325-19" fill="#43b4ec"/><path d="M146.9 50.265c-.275.111-.5.389-.5.617 0 .266.201.249.556-.046.398-.33 3.686-.429 11.562-.349 6.054.062 10.923-.022 10.821-.187-.204-.328-21.629-.362-22.439-.035m44.38.215c-.546.546-.724 117.722-.18 118.058.165.102.3-26.392.3-58.876V50.6h22v59.062c0 32.484.135 58.978.3 58.876.544-.336.366-117.512-.18-118.058-.684-.684-21.556-.684-22.24 0m-44.784 20.663c-.09 18.234-.136 19.327-.796 19.076-.561-.214-.601-.167-.2.237 1.208 1.217 1.307-.403 1.2-19.48l-.108-19.176-.096 19.343m-25.984 7.552c1.052.082 2.672.081 3.6-.003.928-.084.068-.151-1.912-.15-1.98.001-2.74.07-1.688.153m145.388-.002c.935.084 2.465.084 3.4 0s.17-.153-1.7-.153c-1.87 0-2.635.069-1.7.153m48.9 46.227L315 169l.102-43.778c.056-24.078-.034-43.914-.2-44.08-.166-.166-.212 19.534-.102 43.778m-30-41.195c0 .069.585.654 1.3 1.3l1.3 1.175-1.175-1.3c-1.095-1.212-1.425-1.484-1.425-1.175M243.586 87.9l-2.186 2.3 2.3-2.186c2.137-2.032 2.483-2.414 2.186-2.414-.062 0-1.097 1.035-2.3 2.3m45.422.2c.859 1.045 1.626 1.9 1.704 1.9.286 0-1.451-2.222-2.346-3-.506-.44-.217.055.642 1.1m-192.63 1.4L95 91l1.5-1.378C97.896 88.338 98.184 88 97.878 88c-.066 0-.741.675-1.5 1.5m189.205 14.2c1.658 1.766 2.017 2.084 2.017 1.783 0-.064-.855-.919-1.9-1.9l-1.9-1.783 1.783 1.9m-53.937 7.967c-.025.367-.15.997-.276 1.4-.218.695-.207.696.227.02.251-.391.376-1.021.276-1.4-.162-.619-.185-.621-.227-.02M84.909 117.6c0 .99.078 1.395.173.9a5.661 5.661 0 0 0 0-1.8c-.095-.495-.173-.09-.173.9m145.992.2c.004.88.086 1.193.182.695.096-.497.092-1.217-.008-1.6-.1-.382-.179.025-.174.905m61.213 1.6c.003 1.1.081 1.503.173.895.092-.609.09-1.509-.005-2-.095-.492-.171.005-.168 1.105m-37.59 1.2c.002 1.32.077 1.812.166 1.093.089-.719.087-1.799-.004-2.4s-.164-.013-.162 1.307m-169.993 2c.002 1.54.074 2.121.161 1.291.087-.83.085-2.09-.003-2.8-.089-.71-.16-.031-.158 1.509m146.023 2.2c0 2.75.064 3.875.142 2.5a53.448 53.448 0 0 0 0-5c-.078-1.375-.142-.25-.142 2.5m-122.404.6c.001 2.42.066 3.358.146 2.085.08-1.273.079-3.253-.002-4.4-.08-1.147-.145-.105-.144 2.315m184.381-.8c.002 1.54.074 2.121.161 1.291.087-.83.085-2.09-.003-2.8-.089-.71-.16-.031-.158 1.509m-145.589 1.2c-.001 1.98.066 2.84.15 1.912.084-.928.085-2.548.003-3.6-.083-1.052-.152-.292-.153 1.688m107.159-.8c.004.88.086 1.193.182.695.096-.497.092-1.217-.008-1.6-.1-.382-.179.025-.174.905m.419 3.8c0 1.21.075 1.705.167 1.1a8.899 8.899 0 0 0 0-2.2c-.092-.605-.167-.11-.167 1.1m37.589.8c0 .99.078 1.395.173.9a5.661 5.661 0 0 0 0-1.8c-.095-.495-.173-.09-.173.9M84.524 131c.002 1.32.077 1.812.166 1.093.089-.719.087-1.799-.004-2.4s-.164-.013-.162 1.307m146.377 1.2c.004.88.086 1.193.182.695.096-.497.092-1.217-.008-1.6-.1-.382-.179.025-.174.905m-146 2.8c.004.88.086 1.193.182.695.096-.497.092-1.217-.008-1.6-.1-.382-.179.025-.174.905m54.699 12.4c-.972.99-1.677 1.8-1.567 1.8.11 0 .995-.81 1.967-1.8.972-.99 1.677-1.8 1.567-1.8-.11 0-.995.81-1.967 1.8m-25.6-.875c0 .069.585.654 1.3 1.3l1.3 1.175-1.175-1.3c-1.095-1.212-1.425-1.484-1.425-1.175m157.911 3.368c.94.085 2.38.084 3.2-.002.819-.086.049-.155-1.711-.154-1.76.002-2.43.072-1.489.156m-145.604 2.397c.719.089 1.799.087 2.4-.004s.013-.164-1.307-.162c-1.32.002-1.812.077-1.093.166m165.85 9.71c0 2.97.063 4.185.14 2.7a63.146 63.146 0 0 0 0-5.4c-.077-1.485-.14-.27-.14 2.7m-145.787-3.732l-.97 1.068 1.087-.768c.599-.422 1.094-.903 1.1-1.068.021-.493-.198-.354-1.217.768m.984 4.932c0 2.75.064 3.875.142 2.5a53.448 53.448 0 0 0 0-5c-.078-1.375-.142-.25-.142 2.5m94.246-4.675c0 .069.585.654 1.3 1.3l1.3 1.175-1.175-1.3c-1.095-1.212-1.425-1.484-1.425-1.175M142 163.4c-.972.99-1.677 1.8-1.567 1.8.11 0 .995-.81 1.967-1.8.972-.99 1.677-1.8 1.567-1.8-.11 0-.995.81-1.967 1.8m149.701 6.4c.004.88.086 1.193.182.695.096-.497.092-1.217-.008-1.6-.1-.382-.179.025-.174.905m-26.188-.705c1.163.081 2.963.081 4-.002 1.038-.082.087-.148-2.113-.147-2.2.001-3.049.068-1.887.149M314.509 172c0 .99.078 1.395.173.9a5.661 5.661 0 0 0 0-1.8c-.095-.495-.173-.09-.173.9m-195.197-.505c1.052.082 2.672.081 3.6-.003.928-.084.068-.151-1.912-.15-1.98.001-2.74.07-1.688.153M305.578 193.9l-1.378 1.5 1.5-1.378c1.396-1.284 1.684-1.622 1.378-1.622-.066 0-.741.675-1.5 1.5m-18.778 8.9c-.824.264-.859.326-.2.354.44.019 1.07-.141 1.4-.354.701-.453.214-.453-1.2 0m-3.5.676c.385.1 1.015.1 1.4 0 .385-.101.07-.183-.7-.183s-1.085.082-.7.183m-13.8.82c1.375.078 3.625.078 5 0s.25-.142-2.5-.142-3.875.064-2.5.142m-168.4 11.593c.715.089 1.885.089 2.6 0 .715-.088.13-.161-1.3-.161-1.43 0-2.015.073-1.3.161m97.6 0c.715.089 1.885.089 2.6 0 .715-.088.13-.161-1.3-.161-1.43 0-2.015.073-1.3.161m97.6 0c.715.089 1.885.089 2.6 0 .715-.088.13-.161-1.3-.161-1.43 0-2.015.073-1.3.161M82.386 224.3l-2.186 2.3 2.3-2.186c1.265-1.203 2.3-2.238 2.3-2.3 0-.297-.382.049-2.414 2.186m234.814-.1c1.195 1.21 2.263 2.2 2.373 2.2.11 0-.778-.99-1.973-2.2-1.195-1.21-2.263-2.2-2.373-2.2-.11 0 .778.99 1.973 2.2m-137.819.7l-1.581 1.7 1.7-1.581c1.581-1.471 1.884-1.819 1.581-1.819-.065 0-.83.765-1.7 1.7m-2.997 3.523c-.479.673-.805 1.29-.723 1.371.082.082.553-.468 1.047-1.223 1.115-1.7.863-1.815-.324-.148m-4.128 9.661c-.135.504-.229 1.276-.21 1.716.019.44.199.098.4-.76.39-1.662.224-2.5-.19-.956M130.544 244c0 2.09.068 2.945.15 1.9a29.38 29.38 0 0 0 0-3.8c-.082-1.045-.15-.19-.15 1.9m97.593.2c.002 1.76.072 2.43.156 1.489.085-.94.084-2.38-.002-3.2-.086-.819-.155-.049-.154 1.711m41.2 0c.002 1.76.072 2.43.156 1.489.085-.94.084-2.38-.002-3.2-.086-.819-.155-.049-.154 1.711m-97.606 0c.002 1.54.074 2.121.161 1.291.087-.83.085-2.09-.003-2.8-.089-.71-.16-.031-.158 1.509m154 0c.002 1.54.074 2.121.161 1.291.087-.83.085-2.09-.003-2.8-.089-.71-.16-.031-.158 1.509m-251.607 0c.002 1.32.077 1.812.166 1.093.089-.719.087-1.799-.004-2.4s-.164-.013-.162 1.307m47.862 20.1l-2.186 2.3 2.3-2.186c2.137-2.032 2.483-2.414 2.186-2.414-.062 0-1.097 1.035-2.3 2.3M277.4 264c1.083 1.1 2.06 2 2.17 2 .11 0-.687-.9-1.77-2s-2.06-2-2.17-2c-.11 0 .687.9 1.77 2m-58.019.5l-1.581 1.7 1.7-1.581c.935-.87 1.7-1.635 1.7-1.7 0-.303-.348 0-1.819 1.581m97.797-.2l-1.378 1.5 1.5-1.378c1.396-1.284 1.684-1.622 1.378-1.622-.066 0-.741.675-1.5 1.5M100.7 272.293c.935.084 2.465.084 3.4 0s.17-.153-1.7-.153c-1.87 0-2.635.069-1.7.153m97.6 0c.935.084 2.465.084 3.4 0s.17-.153-1.7-.153c-1.87 0-2.635.069-1.7.153m97.6 0c.935.084 2.465.084 3.4 0s.17-.153-1.7-.153c-1.87 0-2.635.069-1.7.153" fill="#8dd3f4"/><path d="M23.397 154.4c0 62.15.046 87.575.103 56.5.057-31.075.057-81.925 0-113-.057-31.075-.103-5.65-.103 56.5M147.009 50.785c-.135.218-.282 9.266-.327 20.106-.079 18.996-.109 19.707-.832 19.645-.687-.058-.696-.01-.109.576 1.184 1.185 1.259.079 1.348-20.045L147.177 51l11.012-.106 11.011-.107V168.4h-21.178l-.111-5.667c-.127-6.479-.397-6.952-2.314-4.055l-1.271 1.922 1.537-1.782 1.537-1.783.2 5.783.2 5.782h21.6v-118l-11.073-.106c-7.02-.068-11.162.039-11.318.291m44.378.109c-.106.278-.146 26.876-.09 59.106l.103 58.6h22v-118l-10.91-.106c-8.513-.084-10.953.004-11.103.4M213.2 109.6v58.8h-21.6V50.8h21.6v58.8m-93.483-30.503c1.494.077 3.834.077 5.2-.001 1.365-.078.143-.141-2.717-.141-2.86.001-3.978.065-2.483.142m145.183 0c1.485.077 3.915.077 5.4 0 1.485-.077.27-.14-2.7-.14s-4.185.063-2.7.14m-136.403.334c.132.131.839.391 1.571.577 3.425.869 3.396.865 2.132.28-1.297-.601-4.094-1.249-3.703-.857M259 79.6c-1.089.277-1.107.307-.2.325.55.01 1.36-.136 1.8-.325.986-.424.066-.424-1.6 0m-148.508.808c-5.873 2.087-14.261 8.05-15.231 10.828-.077.22.823-.623 2-1.873 4.35-4.62 10.469-8.131 16.539-9.491.628-.141.586-.183-.2-.196-.55-.01-1.949.32-3.108.732m167.308.167c1.54.525 2.857.898 2.928.829.206-.204-4.294-1.805-5.043-1.794-.377.006.575.44 2.115.965m15.267.492c-.147.146-.267 2.756-.267 5.8 0 5.999-.155 6.347-1.753 3.933-.582-.88-1.154-1.6-1.272-1.6-.117 0 .351.82 1.04 1.822 1.907 2.772 2.17 2.295 2.296-4.167l.111-5.68 10.751.112c5.913.062 10.668-.022 10.566-.187-.23-.371-21.103-.403-21.472-.033m-158.043.72c.427.323.924.593 1.104.6.582.023 3.628 2.27 5.375 3.965 1.85 1.796 2.826 2.276 1.279.629-1.271-1.353-4.614-3.897-6.494-4.941-1.754-.974-2.385-1.1-1.264-.253m116.177.64c-1.21.666-2.38 1.4-2.6 1.629-.321.334 4.755-2.243 5.366-2.725.709-.559-.973.107-2.766 1.096m29.999-.699c0 .114.675.617 1.5 1.119s2.753 2.091 4.285 3.533c1.532 1.441 2.252 1.982 1.6 1.203-1.823-2.181-7.385-6.59-7.385-5.855M244.694 87.3c-2.835 2.772-2.849 2.795-.33.527l3.222-2.9c.322-.29.47-.527.33-.527-.14 0-1.59 1.305-3.222 2.9m-150.93 5.629L92.222 95.3c-.393.605-.629 1.1-.525 1.1.269 0 3.189-4.447 3.027-4.609-.073-.074-.506.438-.96 1.138m145.344.771c-.321.495-.801 1.35-1.068 1.9-.68 1.403.554-.094 1.401-1.7.698-1.326.482-1.456-.333-.2M90.586 98.1l-.634 1.3.815-1c.785-.963 1.041-1.6.643-1.6-.104 0-.475.585-.824 1.3m145.995-.063c-.352.681-.569 1.308-.482 1.395.087.087.457-.47.823-1.237.822-1.725.537-1.857-.341-.158m-113.467.691c-.377.15 1.46.272 4.082.272 2.623 0 4.462-.122 4.087-.272-.376-.149-2.213-.272-4.083-.272s-3.709.123-4.086.272m146.003 0c-.375.15 1.554.272 4.287.272 2.732 0 4.66-.122 4.282-.272-.377-.149-2.306-.272-4.286-.272-1.98 0-3.907.123-4.283.272m10.083.872c.33.213.87.388 1.2.388.533 0 .533-.043 0-.388-.33-.213-.87-.388-1.2-.388-.533 0-.533.043 0 .388m-190.133 1.667c-.362.921-.593 1.74-.513 1.821.08.08.446-.605.813-1.521.366-.917.597-1.736.512-1.821-.085-.085-.45.599-.812 1.521m47.555-.028c1.088.681 2.698 1.896 3.577 2.7l1.6 1.461-1.4-1.526c-1.44-1.57-4.619-3.874-5.346-3.874-.225 0 .481.557 1.569 1.239m126.516-.047c-.989.655-2.144 1.6-2.566 2.1l-.766.908.997-.858c.548-.472 1.887-1.417 2.975-2.1s1.794-1.242 1.569-1.242c-.225 0-1.219.536-2.209 1.192M116.2 102c-.831.66-1.35 1.193-1.155 1.184.391-.018 3.264-2.384 2.895-2.384-.127 0-.909.54-1.74 1.2m168.566.633c1.192 1.07 2.857 3.013 3.7 4.318 1.59 2.46 2.008 2.725.891.566-.787-1.522-3.899-4.894-5.545-6.008-.666-.451-.237.054.954 1.124m-50.508.671c-.93 2.436-.778 2.9.178.543.436-1.074.722-2.023.636-2.109-.086-.086-.452.619-.814 1.566m-120.314.996c-1.151 1.389-1.638 2.1-1.44 2.1.11 0 .682-.63 1.269-1.4 1.09-1.429 1.222-1.968.171-.7m144.527 1.543c-1.266 1.954-.934 2.042.425.113.603-.856.963-1.554.8-1.551-.163.003-.714.65-1.225 1.438m-25.819 2.725c-.358 1.428-.639 2.919-.623 3.314.016.395.378-.705.805-2.443.428-1.739.708-3.23.624-3.315-.085-.084-.447 1.016-.806 2.444m-145.603-1.553a3.854 3.854 0 0 0-.215 1.318c.019.367.193.136.387-.513.377-1.262.244-1.887-.172-.805m56.829 2.38c.366.767.736 1.324.823 1.237.183-.183-1.031-2.632-1.305-2.632-.101 0 .116.628.482 1.395m-57.622.689c-.135.504-.229 1.276-.21 1.716.019.44.199.098.4-.76.39-1.662.224-2.5-.19-.956m169.362 2.014c-.281.936-.677 2.242-.88 2.902-.203.66-.442 2.91-.531 5l-.162 3.8.351-3.59c.344-3.526.872-6.117 1.696-8.323.229-.612.331-1.198.227-1.302-.105-.104-.42.577-.701 1.513m35.21-.222c.09 1.039.716 1.92.744 1.048.015-.482-.152-.988-.372-1.124-.22-.136-.387-.102-.372.076m-181.361.791c-.147.146-.256.641-.242 1.1.024.766.057.756.409-.125.392-.979.31-1.453-.167-.975m-24.052 2.348c-.154 1.239-.198 2.335-.096 2.437.101.102.311-.829.466-2.067.154-1.239.198-2.335.096-2.437-.101-.102-.311.829-.466 2.067m146.034-1.6c-.137.358-.224 1.401-.193 2.318.053 1.568.073 1.537.336-.533.298-2.345.259-2.832-.143-1.785m-85.58 1.185c.388 2.427.965 3.972.672 1.8-.134-.99-.397-2.16-.586-2.6-.22-.516-.251-.231-.086.8m146.011 1.291c.31 2.009.52 2.17.52.399 0-.793-.169-1.547-.376-1.675-.225-.139-.283.376-.144 1.276m-183.302.287c-.151.803-.184 1.549-.074 1.659.11.11.323-.456.474-1.259.15-.803.184-1.55.074-1.66-.11-.11-.324.457-.474 1.26m38.342 4.222c0 1.21.075 1.705.167 1.1a8.899 8.899 0 0 0 0-2.2c-.092-.605-.167-.11-.167 1.1m145.68 4.2c0 5.559.026 5.77.351 2.865.202-1.8.202-4.353 0-6-.313-2.557-.351-2.22-.351 3.135m-207.887-.9c-.115 2.475-.081 5.76.076 7.3.217 2.131.3 1.056.348-4.5.071-8.26-.114-9.481-.424-2.8M230.96 125c.001 3.3.062 4.597.138 2.882.075-1.715.074-4.415-.001-6-.076-1.585-.138-.182-.137 3.118m-123.11-4.15c-.318 1.59-.254 8.653.09 9.875.143.509.26-1.786.26-5.1 0-6.629.006-6.553-.35-4.775m146.27 7.55c0 1.21.075 1.705.167 1.1a8.899 8.899 0 0 0 0-2.2c-.092-.605-.167-.11-.167 1.1m-107.422 3.4c-.166 1.54-.385 3.34-.488 4-.102.66.078.21.401-1s.542-3.01.488-4c-.087-1.58-.136-1.458-.401 1m107.708.033c.003.642.178 1.437.389 1.767.26.409.304.09.137-1-.303-1.977-.534-2.314-.526-.767m37.658.234c-.035.587-.18 1.397-.323 1.8-.198.562-.145.628.229.284.274-.252.416-1.042.323-1.8-.134-1.098-.177-1.151-.229-.284m-60.836 2.166c.016.862.181 1.927.368 2.367.212.498.255-.031.116-1.4-.268-2.635-.523-3.143-.484-.967M108.468 134c-.006.55.143 1.36.332 1.8l.344.8-.012-.8c-.006-.44-.156-1.25-.332-1.8l-.32-1-.012 1m146.738 1.033c.003.422.189 1.037.412 1.367.297.438.334.276.138-.6-.329-1.471-.558-1.79-.55-.767m-169.913.767c.001.66.139 1.74.307 2.4.423 1.663.442.026.023-2-.278-1.345-.331-1.409-.33-.4m23.935 1.676c-.015.482.152.988.372 1.124.473.292.473-.099 0-1.2-.331-.771-.345-.769-.372.076m122.837.924c-.003.97 1.026 4.604 1.076 3.8.014-.22-.222-1.39-.524-2.6-.302-1.21-.55-1.75-.552-1.2m24.74.981c-.008.627 2.534 4.619 2.942 4.619.207 0 .093-.315-.254-.7-.346-.385-1.092-1.51-1.657-2.5-.564-.99-1.029-1.629-1.031-1.419M86.046 140.4c-.019.55.141 1.27.354 1.6.494.764.494-.058 0-1.6l-.32-1-.034 1m202.669 1.042c-.596.967-.944 1.758-.773 1.758.345 0 2.221-3.176 1.998-3.384-.077-.073-.628.659-1.225 1.626m-144.837.363c-.366.767-.583 1.395-.482 1.395.274 0 1.488-2.449 1.305-2.632-.087-.087-.457.47-.823 1.237M86.834 143.4c-.012.44.153 1.07.366 1.4.514.795.514-.204 0-1.4l-.344-.8-.022.8m24.766.038c0 .841 4.01 5.504 5.371 6.246.425.231-.225-.552-1.443-1.741-1.218-1.19-2.514-2.743-2.881-3.453-.618-1.194-1.047-1.625-1.047-1.052m30.645 1.15c-.365.556-.523 1.012-.35 1.012.389 0 1.424-1.614 1.187-1.851-.096-.096-.472.282-.837.839m91.364-.337c-.013.671 1.208 3.465 1.422 3.252.101-.101-.176-.976-.615-1.943-.439-.968-.802-1.557-.807-1.309m27.991 1.773c1.698 1.608 5.037 3.472 5.46 3.049.107-.106-.45-.406-1.236-.665s-2.463-1.285-3.726-2.279l-2.298-1.808 1.8 1.703m-122.4 2.058c-1.21 1.129-1.84 1.856-1.4 1.617.769-.419 4.153-3.715 3.781-3.684-.099.009-1.171.939-2.381 2.067m144.979-1.701c-.209.209-1.37.926-2.58 1.592-2.406 1.327-2.477 1.705-.083.447 2.062-1.084 3.968-2.414 3.464-2.417-.231-.002-.591.168-.801.378M268.4 149.6c1.368.438 2.419.438 1.4 0-.44-.189-1.16-.338-1.6-.332-.643.009-.604.075.2.332m8.6 0c-1.019.438.032.438 1.4 0 .804-.257.843-.323.2-.332-.44-.006-1.16.143-1.6.332m-142 1.2c-.88.407-1.459.754-1.287.77.474.045 3.087-1.098 3.087-1.35 0-.271.123-.31-1.8.58m101.586.3c.349.715.72 1.3.824 1.3.398 0 .142-.637-.643-1.6l-.815-1 .634 1.3M130.4 152c-1.344.431.108.431 1.8 0 1.078-.274 1.098-.306.2-.313-.55-.004-1.45.137-2 .313m-38.933 2.006a19.86 19.86 0 0 0 1.643 2.3c.511.602.265.059-.547-1.206-1.539-2.397-2.335-3.193-1.096-1.094m147.674 1.032c2.299 3.45 7.344 7.969 10.949 9.808 2.404 1.226 1.752.601-1.132-1.085-2.674-1.565-6.379-4.875-9.134-8.161-.829-.99-1.137-1.243-.683-.562m50.239 3.971c-1.293 1.65-3.386 3.754-4.651 4.676-1.266.922-2.228 1.749-2.138 1.84.396.396 5.181-3.872 7.04-6.279 2.535-3.285 2.521-3.292 2.792 1.45l.222 3.904.078-3.851c.108-5.388-.314-5.608-3.343-1.74M94.8 158.6c.517.55 1.006 1 1.088 1 .333 0-1.316-1.976-1.658-1.987-.203-.007.053.437.57.987m2 2.352c1.117 1.259 5.159 4.531 7 5.666 1.727 1.065 1.155.521-1.6-1.522-1.32-.978-2.946-2.3-3.613-2.937-1.89-1.805-2.955-2.524-1.787-1.207m44.894 2.166c-1.158 1.212-2.048 2.262-1.977 2.332.071.071 1.193-.946 2.493-2.26 1.301-1.315 2.191-2.364 1.977-2.332-.213.031-1.335 1.049-2.493 2.26m136.381 3.955c-.949.336-1.654.681-1.568.768.183.182 3.893-1.036 3.893-1.279 0-.25-.455-.15-2.325.511M134.2 168.444c-1.32.647-1.95 1.061-1.4.921 1.375-.349 3.567-1.388 3.83-1.814.276-.446.391-.488-2.43.893M257 167.6c.44.189 1.07.344 1.4.344.378 0 .304-.127-.2-.344-.44-.189-1.07-.344-1.4-.344-.378 0-.304.127.2.344m35.072 1.267c-.04 1.027-.176 2.197-.302 2.6-.216.687-.202.689.222.03.248-.387.384-1.557.302-2.6l-.15-1.897-.072 1.867m-31.872-.457c.77.321 4.507.541 4.167.245-.092-.079-1.247-.242-2.567-.362-1.449-.131-2.083-.085-1.6.117m12-.01l-2 .274 1.8.035c.99.019 2.16-.12 2.6-.309.913-.392.462-.392-2.4 0m42.059 1.488c-.138.831-.229 2.232-.203 3.112.031 1.047.167.573.392-1.37.363-3.134.235-4.311-.189-1.742M110 169.6c.99.415 2.16.759 2.6.765.44.005-.19-.339-1.4-.765-2.806-.987-3.552-.987-1.2 0m19.8.4c-1.107.282-1.123.309-.2.347.55.022 1.27-.134 1.6-.347.681-.44.329-.44-1.4 0m-11.718 1.096c1.476.077 3.996.077 5.6.001 1.605-.076.398-.139-2.682-.139-3.08-.001-4.393.061-2.918.138m172.947 3.533c-.148.586-.178 1.155-.068 1.265.11.11.32-.279.468-.865.147-.587.177-1.156.067-1.266-.11-.11-.32.279-.467.866m22.411 2.211c-.147.917-.188 1.745-.093 1.84.095.096.299-.57.453-1.48.154-.91.196-1.738.093-1.84-.103-.103-.306.563-.453 1.48m-80.49 1.747c-.124.323-.133.818-.019 1.1.113.282.22.111.237-.381l.032-.894 12.3-.112 12.3-.112-12.313-.094c-10.512-.08-12.345-.008-12.537.493m79.679 2.042c-.148.586-.178 1.155-.068 1.265.11.11.32-.279.468-.865.147-.587.177-1.156.067-1.266-.11-.11-.32.279-.467.866m-79.393.371c-.035.899.747 3.951.959 3.738.075-.076-.103-1.128-.395-2.338-.293-1.21-.546-1.84-.564-1.4m25.164.499c.002 1.021 4.316 4.509 5.556 4.492.354-.005-.076-.336-.956-.737-.88-.401-2.275-1.478-3.1-2.393-.825-.915-1.5-1.528-1.5-1.362m27.4 1.776l-1.2 1.229 1.5-1.099c.825-.605 1.5-1.169 1.5-1.252 0-.431-.727.023-1.8 1.122m-3.2 1.925c-.88.407-1.459.754-1.287.77.474.045 3.087-1.098 3.087-1.35 0-.271.123-.31-1.8.58m28.178.658c-.221.581-.514 1.239-.652 1.461-.137.223-.06.287.173.144.44-.273 1.401-2.663 1.07-2.663-.104 0-.37.476-.591 1.058m-45.178.536c.33.217 1.035.397 1.567.4 1.284.008.958-.219-.767-.536-.985-.181-1.222-.14-.8.136m13.2.006l-1 .32 1 .034c.55.019 1.27-.141 1.6-.354.764-.494-.058-.494-1.6 0m-8.3.696c1.265.079 3.335.079 4.6 0 1.265-.08.23-.145-2.3-.145s-3.565.065-2.3.145m-34.5 1.91c0 .486 3.012 4.287 4.281 5.403 1.028.903 1.018.869-.121-.413-.681-.768-1.896-2.277-2.7-3.354-.803-1.076-1.46-1.813-1.46-1.636m71.986 1.619c-.72 1.347-4.205 4.541-6.756 6.194-1.116.723-1.948 1.397-1.848 1.496.625.626 9.418-7.168 9.418-8.347 0-.612-.237-.421-.814.657M297.2 199.2c-.77.422-1.256.774-1.08.783.424.022 2.68-1.151 2.68-1.393 0-.262-.023-.253-1.6.61m-5.8 2.215c-1.588.55-1.59.552-.2.327.77-.124 1.571-.387 1.78-.584.467-.44.407-.43-1.58.257m-35.894.801c.939.295 2.559.635 3.6.756 1.293.149.878-.026-1.306-.554-3.679-.888-4.782-.985-2.294-.202m29.294.584c-1.357.286-1.363.295-.2.307.66.008 1.65-.131 2.2-.307 1.312-.42-.004-.42-2 0m-22.6.824c.44.176 1.97.318 3.4.316 3.281-.004 2.707-.222-1.2-.455-1.701-.102-2.654-.042-2.2.139m16.4-.024l-2.8.259 2.6.03c1.43.017 3.05-.113 3.6-.289 1.189-.381.721-.381-3.4 0m-177.7 12.691c.825.087 2.175.087 3 0 .825-.086.15-.157-1.5-.157s-2.325.071-1.5.157m97.6 0c.825.087 2.175.087 3 0 .825-.086.15-.157-1.5-.157s-2.325.071-1.5.157m97.6 0c.825.087 2.175.087 3 0 .825-.086.15-.157-1.5-.157s-2.325.071-1.5.157m-198.8.385c.385.1 1.015.1 1.4 0 .385-.101.07-.183-.7-.183s-1.085.082-.7.183m10.029.142c1.061.178 2.485.518 3.165.755.68.237 1.314.352 1.41.256.305-.304-3.997-1.431-5.277-1.382-.917.035-.74.129.702.371m86.071-.015c-.515.223-.087.264 1.2.115 1.1-.127 2.075-.295 2.167-.374.347-.299-2.603-.072-3.367.259m11.529.015c1.061.178 2.485.518 3.165.755.68.237 1.314.352 1.41.256.305-.304-3.997-1.431-5.277-1.382-.917.035-.74.129.702.371m86.071-.015c-.515.223-.087.264 1.2.115 1.1-.127 2.075-.295 2.167-.374.347-.299-2.603-.072-3.367.259m9.833-.259c.092.079 1.067.247 2.167.374 1.287.149 1.715.108 1.2-.115-.764-.331-3.714-.558-3.367-.259M88.8 219.633l-1 .815 1.3-.634c.715-.349 1.3-.72 1.3-.824 0-.398-.637-.142-1.6.643m220.882-.618c.416.416 4.718 2.924 4.718 2.751 0-.234-4.281-2.966-4.647-2.966-.158 0-.19.097-.071.215M116 219.79c0 .104.585.475 1.3.824l1.3.634-1-.815c-.963-.785-1.6-1.041-1.6-.643m68.693.824c-.821.558-1.493 1.101-1.493 1.206 0 .105.72-.285 1.6-.867 1.397-.925 1.87-1.353 1.493-1.353-.059 0-.779.456-1.6 1.014m29.697-.326a181.43 181.43 0 0 1 2.7 2.009c.94.714 1.703 1.164 1.694 1-.019-.369-3.033-2.599-4.384-3.243l-1-.477.99.711m67.479.549c-1.027.681-1.978 1.416-2.113 1.634-.134.218.765-.275 2-1.094 2.001-1.329 2.534-1.777 2.113-1.777-.073 0-.972.557-2 1.237M82.762 224.31c-1.206 1.26-2.545 2.738-2.977 3.286-.432.547.601-.437 2.295-2.187 1.694-1.75 3.034-3.229 2.977-3.285-.056-.057-1.089.927-2.295 2.186M182 222.524c-.33.275-1.048 1.034-1.595 1.687-.669.801-.44.672.7-.392 1.527-1.425 1.898-1.845 1.595-1.806-.055.007-.37.237-.7.511m135 1.876c1.306 1.32 2.465 2.4 2.575 2.4.11 0-.869-1.08-2.175-2.4-1.306-1.32-2.465-2.4-2.575-2.4-.11 0 .869 1.08 2.175 2.4m-196.2-1.465c0 .16.63.922 1.4 1.692.77.77 1.4 1.249 1.4 1.065 0-.184-.63-.946-1.4-1.692-.77-.746-1.4-1.226-1.4-1.065m156.602 1.463c-.399.441-.595.802-.435.802.421 0 1.561-1.205 1.345-1.421-.101-.101-.51.177-.91.619m-57.396.119c-.003.174.371.714.832 1.2 1.402 1.478 3.164 4.19 4.219 6.496 1.129 2.466 1.687 2.99.731.687-1.184-2.856-5.761-9.491-5.782-8.383m-94.569 3.983c.812 1.265 1.551 2.3 1.642 2.3.268 0-1.179-2.318-2.189-3.506-.511-.602-.265-.059.547 1.206m148.656.2c-1.036 1.496-1.372 2.1-1.17 2.1.094 0 .647-.72 1.23-1.6 1.183-1.788 1.131-2.221-.06-.5m-195.976 1.4c-.832 1.419-1.376 2.7-1.146 2.7.08 0 .616-.9 1.191-2 1.167-2.233 1.136-2.715-.045-.7m243.529.296c.493.877.962 1.53 1.041 1.45.172-.172-1.481-3.046-1.752-3.046-.102 0 .217.718.711 1.596m-95.218 5.08c-.015.482.152.988.372 1.124.473.292.473-.099 0-1.2-.331-.771-.345-.769-.372.076m-150.999.753c-.148.586-.178 1.155-.068 1.265.11.11.32-.279.468-.865.147-.587.177-1.156.067-1.266-.11-.11-.32.279-.467.866M270.6 236c-.15.473-.183.95-.073 1.06.11.11.323-.187.473-.66.15-.473.183-.95.073-1.06-.11-.11-.323.187-.473.66m53.456-.4c0 .33.155.96.344 1.4.217.504.344.578.344.2 0-.33-.155-.96-.344-1.4-.217-.504-.344-.578-.344-.2m-194.376 3c0 .66.144 1.65.32 2.2.311.972.32.967.32-.2 0-.66-.144-1.65-.32-2.2-.311-.972-.32-.967-.32.2m97.595.4c-.01.66.136 1.56.325 2l.344.8-.019-.8c-.011-.44-.157-1.34-.325-2l-.305-1.2-.02 1.2m42.507.782c-.153 1.02-.188 1.945-.078 2.055.11.11.325-.635.478-1.655.153-1.021.188-1.945.078-2.055-.11-.11-.325.634-.478 1.655m55.111-.582c0 .77.082 1.085.183.7.1-.385.1-1.015 0-1.4-.101-.385-.183-.07-.183.7m-250.029-.15a35.1 35.1 0 0 1-.275 2.2c-.193 1.236-.174 1.267.219.364.237-.542.36-1.532.275-2.2-.092-.717-.181-.866-.219-.364m97.39.904c-.154.964-.196 1.837-.093 1.94.269.269.754-2.549.546-3.172-.095-.286-.299.268-.453 1.232M74.681 247.6c.125 1.21.293 2.275.373 2.367.281.32.063-2.576-.267-3.567-.216-.646-.253-.22-.106 1.2m97.591.2c.127 1.1.297 2.075.379 2.167.281.315.069-2.168-.271-3.167-.229-.674-.264-.349-.108 1m152.728.063c-.775 5.769-4.495 13.158-8.187 16.265-.667.561-1.213 1.159-1.213 1.327 0 .719 3.454-3.084 5.194-5.719 2.783-4.213 5.654-12.621 4.652-13.624-.102-.102-.303.686-.446 1.751m-97.524-.653a8.163 8.163 0 0 0-.23 1.99c.025.718.138.557.403-.573.406-1.732.251-3.002-.173-1.417m42.211-.01c.004.55.145 1.54.313 2.2l.305 1.2.008-1.2c.004-.66-.137-1.65-.313-2.2l-.32-1 .007 1m-139.868 1.127c-.164.95-.202 1.823-.085 1.941.292.291.792-2.495.566-3.147-.1-.286-.316.256-.481 1.206M75.256 250.8c0 .33.155.96.344 1.4.217.504.344.578.344.2 0-.33-.155-.96-.344-1.4-.217-.504-.344-.578-.344-.2m97.6.4c0 .33.155.96.344 1.4.217.504.344.578.344.2 0-.33-.155-.96-.344-1.4-.217-.504-.344-.578-.344-.2m97.6 0c0 .33.155.96.344 1.4.217.504.344.578.344.2 0-.33-.155-.96-.344-1.4-.217-.504-.344-.578-.344-.2m-193.472 4.6c1.05 3.299 7.05 10.202 10.537 12.126 2.28 1.256 2.128.822-.221-.637-3.567-2.215-6.856-5.783-9.339-10.131-.677-1.187-1.117-1.798-.977-1.358m147.254 1.8c-.575 1.1-.972 2-.881 2 .203 0 1.594-2.349 1.953-3.3.508-1.342-.034-.686-1.072 1.3m-48.678.2c.674 1.305 1.228 2.028 1.225 1.6-.002-.22-.371-.85-.821-1.4-.543-.664-.679-.731-.404-.2m97.249-.3c.005.165.376.75.824 1.3l.815 1-.634-1.3c-.603-1.235-1.025-1.655-1.005-1m-148.185 3.32c-.847 1.111-2.639 3.024-3.982 4.251-1.343 1.227-1.884 1.856-1.203 1.396 2.035-1.371 7.666-7.667 6.857-7.667-.072 0-.825.909-1.672 2.02m52.576-.52c0 .263 1.035 1.528 2.3 2.811s1.561 1.512.659.511c-.903-1.002-1.938-2.267-2.3-2.811-.363-.544-.659-.774-.659-.511m43.651 2.116c-1.169 1.329-3.398 3.309-4.951 4.4-1.554 1.091-2.697 1.984-2.541 1.984 1.153 0 6.365-4.467 9.217-7.9 1.597-1.921.291-.774-1.725 1.516m54.291-1.316c1.206 1.666 4.827 5.034 6.93 6.444 2.995 2.009 2.728 1.449-.334-.702-2.647-1.858-6.538-5.718-6.538-6.485 0-.196-.192-.357-.427-.357s-.069.495.369 1.1m-92.531 4.918c.353.57 3.822 2.883 4.023 2.682.097-.098-.819-.825-2.037-1.615-1.218-.791-2.112-1.271-1.986-1.067m130.298 1.103c-1.15.786-2.018 1.503-1.928 1.593.195.196 3.674-2.156 4.022-2.719.325-.526.312-.519-2.094 1.126M116.6 268c-.66.437-1.02.792-.8.788.401-.006 2.576-1.565 2.2-1.576-.11-.004-.74.351-1.4.788m-27 .989c0 .317 2.9 1.444 3.128 1.216.113-.113.107-.205-.012-.205-.12 0-.87-.272-1.667-.605-.797-.333-1.449-.516-1.449-.406m97.6 0c0 .317 2.9 1.444 3.128 1.216.113-.113.107-.205-.012-.205-.12 0-.87-.272-1.667-.605-.797-.333-1.449-.516-1.449-.406m97.6 0c0 .317 2.9 1.444 3.128 1.216.113-.113.107-.205-.012-.205-.12 0-.87-.272-1.667-.605-.797-.333-1.449-.516-1.449-.406m23.8.589c-.88.417-1.487.772-1.349.79.389.05 3.149-1.154 3.149-1.373 0-.268-.001-.268-1.8.583m-196.8.636c-.66.303-.93.552-.6.554.33.002 1.05-.254 1.6-.568 1.265-.723.589-.713-1 .014m-16.4 1.017c1.585.501 3.419.738 5.4.699l3-.059-3.6-.284c-1.98-.156-4.229-.487-4.997-.735-.769-.249-1.579-.436-1.8-.416-.222.021.677.378 1.997.795m13-.013c-.438.297-.276.334.6.138 1.471-.329 1.79-.558.767-.55-.422.003-1.037.189-1.367.412m85.2.17c1.273.424 3.263.58 6.8.532l5-.068-5.6-.28c-3.08-.153-6.14-.393-6.8-.532-.66-.139-.39.017.6.348m12.4-.17c-.438.297-.276.334.6.138 1.471-.329 1.79-.558.767-.55-.422.003-1.037.189-1.367.412m83.633-.274c.092.079.707.264 1.367.412.876.196 1.038.159.6-.138-.54-.365-2.368-.62-1.967-.274m14.205.152c-.163.162-1.948.403-3.967.535l-3.671.24 3 .058c1.65.032 3.81-.196 4.8-.508.99-.312 1.425-.58.967-.594-.459-.015-.967.106-1.129.269m-198.933.791c.609.092 1.509.09 2-.005.492-.095-.005-.171-1.105-.168-1.1.003-1.503.081-.895.173m188.4 0c.609.092 1.509.09 2-.005.492-.095-.005-.171-1.105-.168-1.1.003-1.503.081-.895.173" fill="#b2e2f8"/><path d="M54.4 6.4c-.388.251 51.117.39 145.724.394 96.658.004 146.24-.129 146.078-.391-.334-.54-290.966-.543-291.802-.003m-30.203 148c0 63.03.046 88.815.103 57.3.056-31.515.056-83.085 0-114.6-.057-31.515-.103-5.73-.103 57.3m351.6 0c0 62.59.046 88.195.103 56.9.057-31.295.057-82.505 0-113.8s-.103-5.69-.103 56.9M146.183 50.5c-.105.275-.143 9.41-.083 20.3l.108 19.8.096-20.067c.075-15.606.207-20.111.596-20.268.392-.158.389-.209-.013-.233-.281-.018-.598.193-.704.468m23.417 59.02l.2 59.48.101-59.179c.056-32.548-.034-59.314-.2-59.48-.165-.165-.211 26.465-.101 59.179m21.067-59.253c-.371.37-.338 118.533.033 118.533.165 0 .254-26.485.197-58.856-.075-43.269.017-59 .349-59.4.449-.54-.069-.788-.579-.277m22.836.212c.399.484.481 12.684.4 59.465-.057 32.371.033 58.856.198 58.856.653 0 .153-118.516-.501-118.732-.494-.163-.511-.091-.097.411m-95.589 27.849c-.377.15 1.45.272 4.061.272 2.611 0 4.539-.132 4.286-.294-.574-.366-7.413-.348-8.347.022m145.362.012c-.508.143 1.438.26 4.324.26s4.832-.117 4.324-.26c-.508-.143-2.454-.26-4.324-.26-1.87 0-3.816.117-4.324.26m-150.476.866c-.422.276-.185.317.8.136 1.725-.317 2.051-.544.767-.536-.532.003-1.237.183-1.567.4m16.033-.262c.092.079.707.264 1.367.412.876.196 1.038.159.6-.138-.54-.365-2.368-.62-1.967-.274m129.367.275c-.558.252-.315.288.8.119.88-.134 1.675-.31 1.767-.391.343-.303-1.799-.076-2.567.272m16.2-.264c0 .085.53.232 1.179.327.648.095 1.088.026.976-.154-.198-.321-2.155-.478-2.155-.173m17.966 2.308c-.304.568-.402 2.414-.288 5.392.109 2.856.023 4.578-.232 4.663-.223.074-.1.253.274.396.62.238.68-.234.68-5.339v-5.599l11.2.112c6.16.062 11.2-.023 11.2-.188 0-.869-22.363-.317-22.834.563m-41.266.566c-1.551.841-1.375 1.132.2.33 1.508-.766 1.775-.965 1.267-.943-.202.009-.862.285-1.467.613m-3.44 2.174c-.913.661-1.66 1.3-1.66 1.42 0 .188 2.254-1.346 3.38-2.301.947-.803-.224-.204-1.72.881M284 82.866c.11.096 1.37 1.24 2.8 2.542l2.6 2.368-2-2.118c-1.1-1.165-2.36-2.309-2.8-2.542-.44-.234-.71-.346-.6-.25m-143.313 1.943c.708.742 1.355 1.269 1.438 1.17.083-.098-.496-.706-1.287-1.35l-1.438-1.171 1.287 1.351M98.294 87.3c-2.835 2.772-2.849 2.795-.33.527l3.222-2.9c.322-.29.47-.527.33-.527-.14 0-1.59 1.305-3.222 2.9m45.306.5c.746.77 1.429 1.4 1.518 1.4.336 0-2.136-2.744-2.496-2.771-.209-.016.232.601.978 1.371m-17.095 11.287c.609.092 1.509.09 2-.005.492-.095-.005-.171-1.105-.168-1.1.003-1.503.081-.895.173m145.595 0a8.899 8.899 0 0 0 2.2 0c.605-.092.11-.167-1.1-.167-1.21 0-1.705.075-1.1.167m-183.5 1.974c-.336.804-.518 1.554-.405 1.667.113.113.205.107.205-.012 0-.12.272-.87.605-1.667.333-.797.516-1.449.406-1.449-.11 0-.475.658-.811 1.461m146 0c-.336.804-.518 1.554-.405 1.667.113.113.205.107.205-.012 0-.12.272-.87.605-1.667.333-.797.516-1.449.406-1.449-.11 0-.475.658-.811 1.461m-101-.775c.33.123 1.095.474 1.7.779.605.306 1.1.466 1.1.356 0-.314-2.302-1.425-2.88-1.389-.349.021-.323.104.08.254m131.126.528c-.811.428-1.58.95-1.71 1.159-.185.301 3.06-1.292 3.751-1.841.529-.42-.786.019-2.041.682m-147.804 1.415l-1.122 1.029 1.3-.904c.715-.497 1.3-.961 1.3-1.029 0-.316-.442-.045-1.478.904M285.4 104c1.083 1.1 2.06 2 2.17 2 .11 0-.687-.9-1.77-2s-2.06-2-2.17-2c-.11 0 .687.9 1.77 2m-145.8.237c.99 1.103 1.863 1.963 1.939 1.911.254-.17-1.252-1.932-2.506-2.932-.9-.718-.748-.443.567 1.021m149 3.763c.341.66.711 1.2.821 1.2.11 0-.08-.54-.421-1.2-.341-.66-.711-1.2-.821-1.2-.11 0 .08.54.421 1.2m-202.778 1.822c-.15.803-.194 1.54-.096 1.638.098.097.301-.479.452-1.282.15-.803.194-1.54.096-1.638-.098-.097-.301.479-.452 1.282M231.4 111.2c-.152.691-.193 1.341-.091 1.442.102.102.3-.389.441-1.092.333-1.667.01-1.99-.35-.35m24.429 1.829c-.148.586-.191 1.143-.097 1.237.095.094.292-.308.439-.895.148-.586.191-1.143.097-1.237-.095-.094-.292.308-.439.895M145.212 114.4c0 .33.175.87.388 1.2.345.533.388.533.388 0 0-.33-.175-.87-.388-1.2-.345-.533-.388-.533-.388 0m145.994 1.033c.003.642.178 1.437.389 1.767.26.409.304.09.137-1-.303-1.977-.534-2.314-.526-.767m-60.553.603c-.139.695-.23 1.917-.202 2.714.034.98.159.613.384-1.132.354-2.735.242-3.705-.182-1.582m-121.399-.369c-.029.367-.17.997-.313 1.4-.2.566-.146.629.234.279.271-.249.412-.879.313-1.4-.098-.52-.204-.646-.234-.279m145.8 1.087c-.154.964-.196 1.837-.093 1.94.269.269.754-2.549.546-3.172-.095-.286-.299.268-.453 1.232m-109.014 1.479c.022.642.193 1.617.38 2.167.229.674.264.349.108-1-.259-2.25-.549-2.941-.488-1.167m-61.547.567c0 .77.082 1.085.183.7.1-.385.1-1.015 0-1.4-.101-.385-.183-.07-.183.7m24.066 6.8c0 3.19.062 4.495.138 2.9a73.8 73.8 0 0 0 0-5.8c-.076-1.595-.138-.29-.138 2.9m-24.398.8c0 3.41.061 4.805.136 3.1a85.45 85.45 0 0 0 0-6.2c-.075-1.705-.136-.31-.136 3.1m207.981-1.8c-.001 1.98.066 2.84.15 1.912.084-.928.085-2.548.003-3.6-.083-1.052-.152-.292-.153 1.688m-37.622.2c0 1.21.075 1.705.167 1.1a8.899 8.899 0 0 0 0-2.2c-.092-.605-.167-.11-.167 1.1m-24.08 6.633c.022 1.082.182 2.417.357 2.967.184.581.228-.173.104-1.8-.25-3.296-.518-3.973-.461-1.167m-84.222.385c-.153 1.021-.196 1.937-.096 2.037.1.1.307-.653.46-1.673.153-1.021.196-1.937.096-2.037-.1-.1-.307.653-.46 1.673m108.844-.018c.134.88.31 1.675.391 1.767.303.343.076-1.799-.272-2.567-.252-.558-.288-.315-.119.8m36.387.015c-.137.358-.231 1.131-.209 1.718.033.858.112.762.406-.493.376-1.601.249-2.387-.197-1.225M109.044 134.2c.329 1.471.558 1.79.55.767-.003-.422-.189-1.037-.412-1.367-.297-.438-.334-.276-.138.6m146.568.6c0 .33.175.87.388 1.2.345.533.388.533.388 0 0-.33-.175-.87-.388-1.2-.345-.533-.388-.533-.388 0m-110.183 1.429c-.148.586-.191 1.143-.097 1.237.095.094.292-.308.439-.895.148-.586.191-1.143.097-1.237-.095-.094-.292.308-.439.895m85.799 1.404c.016.532.191 1.327.391 1.767.252.558.288.315.119-.8-.283-1.857-.551-2.364-.51-.967M85.668 141c-.006.44.143 1.16.332 1.6.438 1.019.438-.032 0-1.4-.257-.804-.323-.843-.332-.2m202.332.617c0 .23-.85 1.355-1.888 2.5-1.52 1.676-1.591 1.81-.365.683 1.849-1.7 3.264-3.6 2.68-3.6a.423.423 0 0 0-.427.417m-54.77 3.183c-.002.576 1.127 2.866 1.156 2.346.008-.14-.249-.86-.57-1.6-.322-.74-.585-1.076-.586-.746m29.555 1.571c.762.676 1.557 1.229 1.767 1.229.21 0 .306-.052.215-.116L263 146.255l-1.6-1.113 1.385 1.229M115.896 147.9c1.178 1.155 2.353 2.1 2.612 2.1.258 0 .025-.297-.519-.659-.544-.363-1.719-1.308-2.611-2.1-.893-.793-.659-.496.518.659m21.722.75c-1.709 1.213-1.848 1.35-1.37 1.35.21 0 1.005-.533 1.767-1.184 1.673-1.429 1.49-1.506-.397-.166m127.818-.682c.473.436 3.368 1.362 3.583 1.146.092-.091-.759-.462-1.89-.824-1.131-.361-1.892-.506-1.693-.322m6.276 1.527c1.052.082 2.672.081 3.6-.003.928-.084.068-.151-1.912-.15-1.98.001-2.74.07-1.688.153m-35.864 1.405c.861 1.676 3.405 5.372 4.724 6.862 1.725 1.95 1.144.77-.789-1.605-1-1.227-2.367-3.204-3.039-4.394-1.322-2.343-1.985-2.981-.896-.863M121 151.014c.66.303 1.65.546 2.2.541.606-.005.211-.228-1-.564-2.474-.687-2.741-.682-1.2.023m10.8.186c-1.107.282-1.123.309-.2.347.55.022 1.27-.134 1.6-.347.681-.44.329-.44-1.4 0m-5.889.693c.94.085 2.38.084 3.2-.002.819-.086.049-.155-1.711-.154-1.76.002-2.43.072-1.489.156m20.251 7c-.62.727-.632.792-.062.351.658-.509.7-.252.7 4.283 0 2.654.135 4.909.3 5.012.165.102.3-2.227.3-5.176 0-5.691-.048-5.864-1.238-4.47m142.91 1.32c-.84.983-1.414 1.787-1.274 1.787.27 0 2.187-2.154 2.722-3.059.561-.95.121-.563-1.448 1.272m-194.265-.814c1.537 2.07 7.103 6.887 9.293 8.041 1.817.958 1.24.318-.78-.866-1.034-.606-3.506-2.648-5.493-4.538-1.987-1.89-3.346-3.077-3.02-2.637m148.826 1.501c.092.055.707.55 1.367 1.1l1.2 1-.97-1.1c-.533-.605-1.148-1.1-1.366-1.1-.219 0-.322.045-.231.1M141.2 164.482c-1.43 1.344-1.88 1.893-1 1.218 1.527-1.17 4.143-3.721 3.775-3.681-.096.01-1.345 1.119-2.775 2.463m144-.399c-1.875 1.717-1.165 1.352 1.114-.573.723-.611 1.173-1.102 1-1.093-.173.009-1.124.759-2.114 1.666m-36.4.501c0 .11.72.567 1.6 1.016.88.449 1.6.726 1.6.616 0-.11-.72-.567-1.6-1.016-.88-.449-1.6-.726-1.6-.616m5.2 2.549c.33.203 1.05.491 1.6.638.695.186.817.154.4-.104-.33-.203-1.05-.491-1.6-.638-.695-.186-.817-.154-.4.104m25 .281c-1 .482-1.034.537-.2.334 1.133-.277 2.407-.927 1.8-.918-.22.003-.94.266-1.6.584m12.449.401c-.137.358-.227 1.401-.199 2.318.048 1.598.063 1.577.368-.531.329-2.268.267-2.921-.169-1.787m-15.849.585c-.804.257-.843.323-.2.332.44.006 1.16-.143 1.6-.332 1.019-.438-.032-.438-1.4 0m-122.276.699c3.038.068 7.898.068 10.8 0 2.902-.068.416-.124-5.524-.124s-8.314.056-5.276.124m43.576 0c3.025.068 7.975.068 11 0 3.025-.068.55-.124-5.5-.124s-8.525.056-5.5.124m64.605-.016c.497.096 1.217.092 1.6-.008.382-.1-.025-.179-.905-.174-.88.004-1.193.086-.695.182m6.095.117l-3.8.247 3.4.047c1.87.026 4.21-.097 5.2-.274 2.213-.393 1.025-.398-4.8-.02m47.324 1.8c.002 1.32.077 1.812.166 1.093.089-.719.087-1.799-.004-2.4s-.164-.013-.162 1.307m-198.301.653c1.552.333 7.726.338 8.901.007.508-.143-1.552-.26-4.578-.26-3.025 0-4.971.114-4.323.253m174.026 2.162a3.854 3.854 0 0 0-.215 1.318c.019.367.193.136.387-.513.377-1.262.244-1.887-.172-.805m23.173 4.007c-.15.803-.194 1.54-.096 1.638.098.097.301-.479.452-1.282.15-.803.194-1.54.096-1.638-.098-.097-.301.479-.452 1.282m-81.002-.046c-.263.317-.402 1.082-.309 1.7.162 1.076.172 1.069.229-.176l.06-1.3 12.7-.006c8.347-.004 12.494-.139 12.1-.394-1.052-.68-24.206-.515-24.78.176m80.426 2.691c-.025.367-.15.997-.276 1.4-.218.695-.207.696.227.02.251-.391.376-1.021.276-1.4-.162-.619-.185-.621-.227-.02m-26.476 1.376c-.534.573-1.87 1.561-2.97 2.196-1.1.634-1.81 1.155-1.578 1.157.654.006 3.868-2.163 4.948-3.34.533-.581.879-1.056.769-1.056-.11 0-.636.469-1.169 1.043m-53.522 1.757c-.006.33.235 1.14.538 1.8.707 1.545.717.826.014-1-.297-.77-.545-1.13-.552-.8m38.064 3.095c1.052.082 2.672.081 3.6-.003.928-.084.068-.151-1.912-.15-1.98.001-2.74.07-1.688.153m-34.912 3.917c0 .15.45.807 1 1.461s1 1.066 1 .915c0-.15-.45-.807-1-1.461s-1-1.066-1-.915m4.022 4.449c.026.389 2.357 2.308 2.536 2.086.064-.081-.484-.66-1.22-1.286-.736-.627-1.328-.987-1.316-.8m60.796 2.389c-2.011 1.427-2.049 1.603-.118.539.935-.515 1.7-1.083 1.7-1.263 0-.413.054-.438-1.582.724M296.6 200c-1.32.626-2.27 1.153-2.111 1.169.446.048 4.711-1.896 4.711-2.147 0-.278.223-.362-2.6.978m-4.8 1.815c-1.584.548-1.586.551-.2.323.77-.126 1.67-.384 2-.572.881-.502.03-.384-1.8.249m-39.2.185c.44.189 1.07.344 1.4.344.378 0 .304-.127-.2-.344-.44-.189-1.07-.344-1.4-.344-.378 0-.304.127.2.344m35.4.818c-.438.297-.276.334.6.138 1.471-.329 1.79-.558.767-.55-.422.003-1.037.189-1.367.412m-29 .772c.764.338 3.314.567 2.967.266-.092-.08-.977-.252-1.967-.383-1.202-.159-1.534-.12-1 .117m23.9.286c.385.1 1.015.1 1.4 0 .385-.101.07-.183-.7-.183s-1.085.082-.7.183m-17.056.601c1.953.348 9.698.34 12.356-.012 1.1-.146-1.58-.265-5.956-.265s-7.256.125-6.4.277M97.4 216c-1.078.274-1.098.306-.2.313.55.004 1.45-.137 2-.313 1.344-.431-.108-.431-1.8 0m97.4 0c-1.357.286-1.363.295-.2.307.66.008 1.65-.131 2.2-.307 1.312-.42-.004-.42-2 0m97.4 0c-1.07.272-1.092.305-.2.305.55 0 1.54-.137 2.2-.305 1.07-.272 1.092-.305.2-.305-.55 0-1.54.137-2.2.305m-198.4.8c-.504.217-.578.344-.2.344.33 0 .96-.155 1.4-.344.504-.217.578-.344.2-.344-.33 0-.96.155-1.4.344m16 0c.44.189 1.07.344 1.4.344.378 0 .304-.127-.2-.344-.44-.189-1.07-.344-1.4-.344-.378 0-.304.127.2.344m81.6 0c-.504.217-.578.344-.2.344.33 0 .96-.155 1.4-.344.504-.217.578-.344.2-.344-.33 0-.96.155-1.4.344m16 0c.44.189 1.07.344 1.4.344.378 0 .304-.127-.2-.344-.44-.189-1.07-.344-1.4-.344-.378 0-.304.127.2.344m81.6 0c-.504.217-.578.344-.2.344.33 0 .96-.155 1.4-.344.504-.217.578-.344.2-.344-.33 0-.96.155-1.4.344m16 0c.44.189 1.07.344 1.4.344.378 0 .304-.127-.2-.344-.44-.189-1.07-.344-1.4-.344-.378 0-.304.127.2.344m-188.59 2.515c.53.603 3.19 2.227 3.19 1.947 0-.173-.765-.736-1.7-1.251-.935-.515-1.605-.828-1.49-.696m97.59.022c0 .086.765.661 1.7 1.278.961.634 1.452.819 1.129.427-.542-.66-2.829-2.038-2.829-1.705m-31.464 2.209c-1.065.851-2.386 2.063-2.936 2.694-.55.632-.1.338 1-.653 1.1-.99 2.54-2.197 3.2-2.681.66-.484 1.081-.886.936-.893-.145-.007-1.135.683-2.2 1.533m131.664-.484c2.611 2.557 5.396 4.898 3.8 3.194-.99-1.056-2.34-2.296-3-2.753-.66-.458-1.02-.656-.8-.441m-94.6 2.738c1.195 1.21 2.263 2.2 2.373 2.2.11 0-.778-.99-1.973-2.2-1.195-1.21-2.263-2.2-2.373-2.2-.11 0 .778.99 1.973 2.2m57.986.1l-2.186 2.3 2.3-2.186c2.137-2.032 2.483-2.414 2.186-2.414-.062 0-1.097 1.035-2.3 2.3m-195.208 0L81 225.4l1.5-1.378c1.396-1.284 1.684-1.622 1.378-1.622-.066 0-.741.675-1.5 1.5m238.249 3.9c1.373 1.8 1.641 1.803.477.005-.497-.767-1.048-1.397-1.224-1.4-.177-.003.16.625.747 1.395m-242.954 2c-.251.55-.39 1-.31 1 .08 0 .44-.45.8-1 .361-.55.5-1 .31-1-.189 0-.55.45-.8 1m94.976 5.615a3.854 3.854 0 0 0-.215 1.318c.019.367.193.136.387-.513.377-1.262.244-1.887-.172-.805m-42.381 3.185c.303 1.977.534 2.314.526.767-.003-.642-.178-1.437-.389-1.767-.26-.409-.304-.09-.137 1m97.614.621c.126.978.293 1.854.373 1.946.326.375.105-2.612-.234-3.146-.237-.375-.286.049-.139 1.2m41.567-1.006c-.137.358-.226 1.221-.199 1.918.042 1.054.1.965.349-.533.318-1.914.26-2.452-.15-1.385m-195.173.595c-.146.545-.248 1.53-.227 2.19.031.957.11.836.393-.6.387-1.967.26-3.183-.166-1.59m251.174.79c.325 2.241.552 2.56.544.767-.003-.752-.186-1.637-.406-1.967-.279-.419-.321-.058-.138 1.2m-153.749.6c.004.88.086 1.193.182.695.096-.497.092-1.217-.008-1.6-.1-.382-.179.025-.174.905m-40.77 4c.002 1.54.074 2.121.161 1.291.087-.83.085-2.09-.003-2.8-.089-.71-.16-.031-.158 1.509m137.997-.2c0 1.43.073 2.015.161 1.3.089-.715.089-1.885 0-2.6-.088-.715-.161-.13-.161 1.3m-194.9 3.433c.016.642.188 1.527.382 1.967.237.534.276.202.117-1-.281-2.12-.539-2.62-.499-.967m97.578.6c.003.752.171 1.628.373 1.946.237.375.286-.049.139-1.2-.283-2.209-.52-2.554-.512-.746m154.053-.633c-.039.44-.182 1.25-.319 1.8-.192.77-.138.897.235.551.269-.25.41-1.048.318-1.8-.091-.743-.196-.991-.234-.551m-97.595.667c-.035.587-.18 1.397-.323 1.8-.198.562-.145.628.229.284.274-.252.416-1.042.323-1.8-.134-1.098-.177-1.151-.229-.284m41.142.366c.003.752.171 1.628.373 1.946.237.375.286-.049.139-1.2-.283-2.209-.52-2.554-.512-.746m-138.746.034c-.033.587-.164 1.397-.29 1.8-.218.693-.205.694.225.023.251-.391.382-1.201.291-1.8l-.166-1.09-.06 1.067m43.54 7.286c0 .429 1.19 2.647 1.421 2.647.11 0-.098-.585-.462-1.3-.742-1.46-.959-1.764-.959-1.347m-47.414 3.147l-.634 1.3.815-1c.785-.963 1.041-1.6.643-1.6-.104 0-.475.585-.824 1.3M274 260.338c0 .186.388.681.862 1.1l.862.762-.708-1.1c-.73-1.134-1.016-1.349-1.016-.762m45.826 1.162c-.864 1.105-.933 1.29-.263.704.802-.7 1.86-2.204 1.551-2.204-.063 0-.642.675-1.288 1.5m-194.933-.3c-.275.44-.362.8-.193.8.169 0 .532-.36.807-.8.275-.44.362-.8.193-.8-.169 0-.532.36-.807.8m-2.915 3.5l-1.378 1.5 1.5-1.378c1.396-1.284 1.684-1.622 1.378-1.622-.066 0-.741.675-1.5 1.5m194.622.376c-1.1 1.011-1.46 1.471-.8 1.021 1.124-.767 3.344-2.919 2.97-2.879-.094.01-1.07.846-2.17 1.858m-100.386 2.17c-2.101 1.58-2.298 1.841-.687.916 1.135-.652 2.92-2.217 2.435-2.135-.089.015-.876.564-1.748 1.219m-97.733.126c-1.756 1.242-2.184 1.773-.681.846 2.078-1.283 2.791-1.819 2.389-1.798-.214.01-.982.439-1.708.952m-31.281.807c0 .11.54.48 1.2.821.66.341 1.2.531 1.2.421 0-.11-.54-.48-1.2-.821-.66-.341-1.2-.531-1.2-.421m7.4 3.421c.136.22.642.387 1.124.372.845-.027.847-.041.076-.372-1.101-.473-1.492-.473-1.2 0m14.6 0c-.824.264-.859.326-.2.354.44.019 1.07-.141 1.4-.354.701-.453.214-.453-1.2 0m97.6 0c-.824.264-.859.326-.2.354.44.019 1.07-.141 1.4-.354.701-.453.214-.453-1.2 0m82.8-.018c.33.223.945.409 1.367.412 1.023.008.704-.221-.767-.55-.876-.196-1.038-.159-.6.138m14.6.018l-.8.344.8.022c.44.012 1.07-.153 1.4-.366.795-.514-.204-.514-1.4 0m-205.724.86c1.231.347 7.144.355 8.009.012.377-.15-1.479-.272-4.124-.272-2.644 0-4.393.117-3.885.26m97.6 0c.508.143 2.274.26 3.924.26s3.416-.117 3.924-.26c.508-.143-1.258-.26-3.924-.26s-4.432.117-3.924.26m97.6 0c.508.143 2.274.26 3.924.26s3.416-.117 3.924-.26c.508-.143-1.258-.26-3.924-.26s-4.432.117-3.924.26M120.4 393.565c0 .406 1.023.346 1.455-.087.153-.153-.112-.278-.588-.278-.477 0-.867.164-.867.365" fill="#60c4ef"/></g></svg>