<svg id="svg" version="1.1" width="400" height="400" viewBox="0 0 400 400" xmlns="http://www.w3.org/2000/svg" xmlns:xlink="http://www.w3.org/1999/xlink" ><g id="svgg"><path id="path0" d="M23.598 38.900 C 23.405 49.974,23.499 270.400,23.697 270.400 C 23.861 270.400,23.996 218.290,23.999 154.600 C 24.001 90.910,23.912 38.800,23.801 38.800 C 23.691 38.800,23.599 38.845,23.598 38.900 M376.000 154.424 C 376.000 231.404,376.134 269.965,376.400 269.800 C 376.955 269.457,376.955 38.800,376.400 38.800 C 376.134 38.800,376.000 77.608,376.000 154.424 M147.194 50.900 C 147.191 50.955,147.146 60.030,147.094 71.067 C 147.042 82.103,146.849 91.283,146.666 91.467 C 146.482 91.650,145.762 91.087,145.066 90.216 C 141.121 85.280,136.260 81.746,131.600 80.426 C 130.610 80.146,129.387 79.755,128.881 79.558 C 125.841 78.373,114.273 79.352,109.371 81.210 C 102.655 83.755,91.600 93.588,91.600 97.016 C 91.600 97.159,91.278 97.754,90.884 98.338 C 90.246 99.285,89.381 101.327,88.062 105.000 C 84.097 116.048,84.211 137.277,88.287 146.800 C 95.104 162.730,105.984 170.800,120.642 170.800 C 132.158 170.800,140.024 166.977,145.582 158.678 C 147.518 155.787,147.784 156.250,147.911 162.733 L 148.022 168.400 158.611 168.400 L 169.200 168.400 169.200 109.600 L 169.200 50.800 158.200 50.800 C 152.150 50.800,147.197 50.845,147.194 50.900 M191.600 109.600 L 191.600 168.400 202.400 168.400 L 213.200 168.400 213.200 109.600 L 213.200 50.800 202.400 50.800 L 191.600 50.800 191.600 109.600 M260.000 79.664 C 259.230 79.874,257.610 80.324,256.400 80.663 C 249.774 82.520,242.956 88.059,238.749 95.004 C 229.461 110.335,228.480 138.395,236.799 150.800 C 237.168 151.350,237.570 152.081,237.693 152.425 C 237.817 152.768,239.019 154.420,240.366 156.094 C 253.051 171.862,278.171 173.319,289.433 158.940 C 291.472 156.338,291.823 156.051,292.339 156.568 C 293.261 157.489,292.223 172.926,291.020 176.200 C 289.792 179.540,287.856 182.173,285.200 184.115 C 279.592 188.216,265.230 188.189,260.539 184.070 C 259.080 182.789,257.600 180.330,257.600 179.188 C 257.600 178.421,257.271 178.400,245.400 178.400 C 231.514 178.400,232.782 177.979,233.790 182.254 C 237.078 196.194,250.338 203.685,271.800 203.726 C 287.855 203.756,298.687 200.350,305.800 193.034 C 308.528 190.228,308.831 189.802,310.366 186.597 C 312.838 181.437,312.976 180.858,314.416 169.600 C 314.712 167.284,314.810 152.681,314.725 123.800 L 314.600 81.400 303.911 81.293 L 293.222 81.187 293.111 86.861 C 292.984 93.351,292.719 93.813,290.779 90.922 C 285.237 82.666,278.256 79.168,267.464 79.241 C 264.129 79.263,260.770 79.454,260.000 79.664 M131.754 98.850 C 141.976 101.641,146.761 109.689,147.099 124.659 C 147.552 144.679,137.776 155.510,122.446 151.976 C 116.910 150.700,110.000 143.776,110.000 139.505 C 110.000 139.205,109.849 138.789,109.664 138.580 C 109.338 138.210,108.912 136.333,108.031 131.376 C 107.794 130.043,107.600 127.444,107.600 125.600 C 107.600 123.756,107.794 121.157,108.031 119.824 C 108.912 114.867,109.338 112.990,109.664 112.620 C 109.849 112.411,110.000 112.011,110.000 111.732 C 110.000 110.161,113.708 104.004,115.569 102.485 C 119.876 98.970,126.635 97.452,131.754 98.850 M279.214 99.236 C 283.749 100.725,287.935 104.448,289.828 108.677 C 290.400 109.954,291.033 111.313,291.234 111.695 C 291.435 112.077,291.600 112.754,291.600 113.200 C 291.600 113.646,291.765 114.323,291.967 114.705 C 293.290 117.213,293.271 132.708,291.943 134.180 C 291.754 134.389,291.600 134.973,291.600 135.478 C 291.600 137.461,288.881 142.350,286.433 144.767 C 282.358 148.792,279.742 149.802,273.408 149.793 C 263.082 149.779,258.454 145.763,254.748 133.600 C 253.997 131.135,253.990 117.780,254.738 115.000 C 258.319 101.695,267.902 95.522,279.214 99.236 M97.408 216.800 C 88.235 218.459,79.642 225.742,76.403 234.600 C 75.583 236.844,75.200 238.366,75.200 239.382 C 75.200 240.001,74.991 241.204,74.736 242.055 C 74.025 244.430,75.250 251.039,77.225 255.475 C 80.647 263.160,86.883 268.460,95.310 270.842 C 98.491 271.742,106.305 271.936,108.699 271.175 C 112.842 269.859,114.003 269.393,116.400 268.081 C 119.156 266.572,124.933 261.100,125.999 258.987 C 126.329 258.334,126.700 257.710,126.824 257.600 C 127.459 257.037,129.286 251.507,129.974 248.069 C 131.756 239.163,127.459 228.626,119.336 221.981 C 114.328 217.884,104.392 215.536,97.408 216.800 M195.800 216.652 C 184.291 218.440,174.523 227.929,172.794 239.000 C 172.622 240.100,172.347 241.690,172.183 242.534 C 171.815 244.422,172.872 251.117,173.962 253.800 C 178.614 265.262,187.994 271.600,200.304 271.600 C 205.008 271.600,205.708 271.471,210.472 269.729 C 218.905 266.644,226.072 257.709,227.420 248.600 C 227.985 244.785,227.555 237.066,226.750 236.569 C 226.557 236.450,226.400 236.035,226.400 235.647 C 226.400 234.737,224.263 230.326,222.773 228.160 C 217.175 220.025,205.673 215.117,195.800 216.652 M292.482 216.819 C 272.756 220.358,262.907 245.196,275.151 260.523 C 279.579 266.066,283.686 268.775,291.301 271.179 C 300.309 274.022,313.828 269.003,319.798 260.600 C 334.444 239.983,317.222 212.379,292.482 216.819 " stroke="none" fill="#fbfbfc" fill-rule="evenodd"></path><path id="path1" d="M53.600 6.400 C 53.600 6.620,52.880 6.800,52.000 6.800 C 51.120 6.800,50.400 6.980,50.400 7.200 C 50.400 7.420,49.860 7.600,49.200 7.600 C 48.540 7.600,48.000 7.780,48.000 8.000 C 48.000 8.220,47.640 8.400,47.200 8.400 C 46.760 8.400,46.400 8.580,46.400 8.800 C 46.400 9.020,46.027 9.200,45.571 9.200 C 45.116 9.200,44.473 9.470,44.143 9.800 C 43.813 10.130,43.196 10.400,42.771 10.400 C 42.347 10.400,42.000 10.580,42.000 10.800 C 42.000 11.020,41.764 11.200,41.475 11.200 C 41.187 11.200,40.564 11.560,40.092 12.000 C 39.620 12.440,39.053 12.800,38.832 12.800 C 38.286 12.800,30.800 20.320,30.800 20.868 C 30.800 21.109,30.465 21.597,30.056 21.953 C 29.189 22.707,27.200 26.491,27.200 27.387 C 27.200 27.724,27.065 28.001,26.900 28.003 C 26.499 28.007,25.600 29.981,25.600 30.856 C 25.600 31.239,25.420 31.664,25.200 31.800 C 24.980 31.936,24.800 32.847,24.800 33.824 C 24.800 34.801,24.665 35.600,24.500 35.600 C 24.335 35.600,24.190 88.205,24.178 152.500 C 24.165 216.795,24.118 270.299,24.073 271.398 C 24.027 272.497,24.172 273.457,24.395 273.532 C 24.618 273.606,24.800 274.372,24.800 275.233 C 24.800 276.095,24.980 276.800,25.200 276.800 C 25.420 276.800,25.600 277.396,25.600 278.125 C 25.600 278.896,25.934 279.808,26.400 280.308 C 26.840 280.780,27.200 281.433,27.200 281.759 C 27.200 282.769,29.533 286.908,31.002 288.507 C 31.771 289.343,32.400 290.138,32.400 290.274 C 32.400 290.697,36.795 294.800,37.249 294.800 C 37.485 294.800,38.183 295.340,38.800 296.000 C 39.417 296.660,40.209 297.200,40.560 297.200 C 40.912 297.200,41.200 297.380,41.200 297.600 C 41.200 297.820,41.520 298.000,41.912 298.000 C 42.303 298.000,42.883 298.360,43.200 298.800 C 43.517 299.240,44.097 299.600,44.488 299.600 C 44.880 299.600,45.200 299.780,45.200 300.000 C 45.200 300.220,45.650 300.400,46.200 300.400 C 46.750 300.400,47.200 300.580,47.200 300.800 C 47.200 301.020,47.549 301.200,47.976 301.200 C 48.403 301.200,48.864 301.380,49.000 301.600 C 49.136 301.820,49.676 302.000,50.200 302.000 C 50.724 302.000,51.264 302.180,51.400 302.400 C 51.536 302.620,52.807 302.800,54.224 302.800 C 55.675 302.800,56.800 302.975,56.800 303.200 C 56.800 303.455,60.040 303.600,65.720 303.600 C 74.961 303.600,75.600 303.709,75.600 305.280 C 75.600 305.676,75.780 306.000,76.000 306.000 C 76.220 306.000,76.400 306.270,76.400 306.600 C 76.400 306.930,76.580 307.200,76.800 307.200 C 77.020 307.200,77.200 307.547,77.200 307.971 C 77.200 308.396,77.470 309.013,77.800 309.343 C 78.130 309.673,78.400 310.131,78.400 310.361 C 78.400 311.039,80.131 314.400,80.480 314.400 C 80.656 314.400,80.804 314.805,80.809 315.300 C 80.814 315.795,81.170 316.650,81.600 317.200 C 82.030 317.750,82.386 318.425,82.391 318.700 C 82.396 318.975,82.580 319.200,82.800 319.200 C 83.020 319.200,83.200 319.650,83.200 320.200 C 83.200 320.750,83.346 321.200,83.525 321.200 C 83.704 321.200,84.098 321.830,84.400 322.600 C 84.702 323.370,85.096 324.000,85.275 324.000 C 85.454 324.000,85.600 324.450,85.600 325.000 C 85.600 325.550,85.780 326.000,86.000 326.000 C 86.220 326.000,86.400 326.236,86.400 326.525 C 86.400 326.813,86.760 327.436,87.200 327.908 C 87.640 328.380,88.000 329.224,88.000 329.783 C 88.000 330.342,88.180 330.800,88.400 330.800 C 88.620 330.800,88.800 331.036,88.800 331.325 C 88.800 331.613,89.160 332.236,89.600 332.708 C 90.040 333.180,90.404 333.889,90.409 334.283 C 90.414 334.677,90.770 335.450,91.200 336.000 C 91.630 336.550,91.986 337.225,91.991 337.500 C 91.996 337.775,92.180 338.000,92.400 338.000 C 92.620 338.000,92.800 338.450,92.800 339.000 C 92.800 339.550,92.966 340.000,93.168 340.000 C 93.371 340.000,93.655 340.540,93.800 341.200 C 93.945 341.860,94.229 342.400,94.432 342.400 C 94.634 342.400,94.800 342.690,94.800 343.046 C 94.800 343.657,96.329 346.772,96.838 347.200 C 96.970 347.310,97.195 347.882,97.339 348.472 C 97.483 349.062,97.871 349.814,98.201 350.143 C 98.530 350.473,98.800 351.026,98.800 351.371 C 98.800 351.717,98.980 352.000,99.200 352.000 C 99.420 352.000,99.600 352.234,99.600 352.520 C 99.600 353.256,100.541 355.193,100.900 355.197 C 101.065 355.199,101.200 355.560,101.200 356.000 C 101.200 356.440,101.380 356.800,101.600 356.800 C 101.820 356.800,102.000 357.126,102.000 357.525 C 102.000 357.923,102.360 358.636,102.800 359.108 C 103.240 359.580,103.600 360.244,103.600 360.583 C 103.600 360.922,103.780 361.200,104.000 361.200 C 104.220 361.200,104.400 361.434,104.400 361.720 C 104.400 362.456,105.341 364.393,105.700 364.397 C 105.865 364.399,106.000 364.760,106.000 365.200 C 106.000 365.640,106.180 366.000,106.400 366.000 C 106.620 366.000,106.800 366.360,106.800 366.800 C 106.800 367.240,106.980 367.600,107.200 367.600 C 107.420 367.600,107.600 367.834,107.600 368.120 C 107.600 368.856,108.541 370.793,108.900 370.797 C 109.065 370.799,109.200 371.160,109.200 371.600 C 109.200 372.040,109.380 372.400,109.600 372.400 C 109.820 372.400,110.000 372.667,110.000 372.994 C 110.000 373.321,110.630 374.776,111.400 376.227 C 112.170 377.679,112.800 379.121,112.800 379.433 C 112.800 379.745,112.980 380.000,113.200 380.000 C 113.420 380.000,113.600 380.360,113.600 380.800 C 113.600 381.240,113.780 381.600,114.000 381.600 C 114.220 381.600,114.400 381.960,114.400 382.400 C 114.400 382.840,114.580 383.200,114.800 383.200 C 115.020 383.200,115.200 383.545,115.200 383.967 C 115.200 384.388,115.337 384.793,115.504 384.867 C 115.671 384.940,116.614 386.620,117.600 388.600 C 118.586 390.580,119.529 392.260,119.696 392.333 C 119.863 392.407,120.014 392.857,120.032 393.333 C 120.049 393.810,120.154 393.975,120.265 393.700 C 120.376 393.425,120.822 393.200,121.257 393.200 C 121.692 393.200,121.936 393.380,121.800 393.600 C 121.432 394.196,121.974 394.083,122.629 393.429 C 122.943 393.114,123.200 392.574,123.200 392.229 C 123.200 391.883,123.338 391.600,123.506 391.600 C 123.877 391.600,125.200 388.631,125.200 387.797 C 125.200 387.469,125.380 387.200,125.600 387.200 C 125.820 387.200,126.000 386.840,126.000 386.400 C 126.000 385.960,126.180 385.600,126.400 385.600 C 126.620 385.600,126.800 385.240,126.800 384.800 C 126.800 384.360,126.980 384.000,127.200 384.000 C 127.420 384.000,127.600 383.640,127.600 383.200 C 127.600 382.760,127.735 382.399,127.900 382.397 C 128.259 382.393,129.200 380.456,129.200 379.720 C 129.200 379.434,129.380 379.200,129.600 379.200 C 129.820 379.200,130.000 378.855,130.000 378.433 C 130.000 378.012,130.136 377.607,130.302 377.533 C 130.468 377.460,131.232 376.140,132.000 374.600 C 132.768 373.060,133.532 371.740,133.698 371.667 C 133.864 371.593,134.000 371.188,134.000 370.767 C 134.000 370.345,134.180 370.000,134.400 370.000 C 134.620 370.000,134.800 369.640,134.800 369.200 C 134.800 368.760,134.935 368.399,135.100 368.397 C 135.459 368.393,136.400 366.456,136.400 365.720 C 136.400 365.434,136.580 365.200,136.800 365.200 C 137.020 365.200,137.200 364.840,137.200 364.400 C 137.200 363.960,137.335 363.599,137.500 363.597 C 137.859 363.593,138.800 361.656,138.800 360.920 C 138.800 360.634,138.980 360.400,139.200 360.400 C 139.420 360.400,139.600 360.040,139.600 359.600 C 139.600 359.160,139.738 358.800,139.906 358.800 C 140.277 358.800,141.600 355.831,141.600 354.997 C 141.600 354.669,141.735 354.399,141.900 354.397 C 142.259 354.393,143.200 352.456,143.200 351.720 C 143.200 351.434,143.380 351.200,143.600 351.200 C 143.820 351.200,144.000 350.840,144.000 350.400 C 144.000 349.960,144.180 349.600,144.400 349.600 C 144.620 349.600,144.800 349.330,144.800 349.000 C 144.800 348.670,144.980 348.400,145.200 348.400 C 145.420 348.400,145.600 347.950,145.600 347.400 C 145.600 346.850,145.780 346.400,146.000 346.400 C 146.220 346.400,146.400 346.122,146.400 345.783 C 146.400 345.444,146.760 344.780,147.200 344.308 C 147.640 343.836,148.000 343.033,148.000 342.525 C 148.000 342.016,148.180 341.600,148.400 341.600 C 148.620 341.600,148.804 341.375,148.809 341.100 C 148.814 340.825,149.170 340.150,149.600 339.600 C 150.030 339.050,150.386 338.285,150.391 337.900 C 150.396 337.515,150.580 337.200,150.800 337.200 C 151.020 337.200,151.200 336.840,151.200 336.400 C 151.200 335.960,151.335 335.599,151.500 335.597 C 151.859 335.593,152.800 333.656,152.800 332.920 C 152.800 332.634,152.980 332.400,153.200 332.400 C 153.420 332.400,153.600 332.040,153.600 331.600 C 153.600 331.160,153.735 330.799,153.900 330.797 C 154.259 330.793,155.200 328.856,155.200 328.120 C 155.200 327.834,155.380 327.600,155.600 327.600 C 155.820 327.600,156.000 327.255,156.000 326.833 C 156.000 326.412,156.142 326.007,156.315 325.933 C 156.705 325.768,158.800 321.491,158.800 320.860 C 158.800 320.607,158.980 320.400,159.200 320.400 C 159.420 320.400,159.600 319.950,159.600 319.400 C 159.600 318.850,159.780 318.400,160.000 318.400 C 160.220 318.400,160.400 318.040,160.400 317.600 C 160.400 317.160,160.580 316.800,160.800 316.800 C 161.020 316.800,161.200 316.530,161.200 316.200 C 161.200 315.870,161.380 315.600,161.600 315.600 C 161.820 315.600,162.000 315.150,162.000 314.600 C 162.000 314.050,162.180 313.600,162.400 313.600 C 162.620 313.600,162.800 313.322,162.800 312.983 C 162.800 312.644,163.160 311.980,163.600 311.508 C 164.040 311.036,164.400 310.233,164.400 309.725 C 164.400 309.216,164.580 308.800,164.800 308.800 C 165.020 308.800,165.204 308.575,165.209 308.300 C 165.214 308.025,165.570 307.350,166.000 306.800 C 166.430 306.250,166.786 305.562,166.791 305.271 C 166.821 303.524,162.806 303.600,255.571 303.600 C 313.724 303.600,343.200 303.465,343.200 303.200 C 343.200 302.975,344.325 302.800,345.776 302.800 C 347.193 302.800,348.464 302.620,348.600 302.400 C 348.736 302.180,349.377 302.000,350.024 302.000 C 350.671 302.000,351.200 301.820,351.200 301.600 C 351.200 301.380,351.560 301.200,352.000 301.200 C 352.440 301.200,352.800 301.020,352.800 300.800 C 352.800 300.580,353.124 300.400,353.520 300.400 C 354.414 300.400,356.393 299.506,356.397 299.100 C 356.399 298.935,356.670 298.800,357.000 298.800 C 357.330 298.800,357.600 298.620,357.600 298.400 C 357.600 298.180,357.870 298.000,358.200 298.000 C 358.530 298.000,358.800 297.820,358.800 297.600 C 358.800 297.380,359.088 297.200,359.440 297.200 C 359.791 297.200,360.583 296.660,361.200 296.000 C 361.817 295.340,362.515 294.800,362.751 294.800 C 363.213 294.800,367.600 290.693,367.600 290.261 C 367.600 290.118,368.320 289.237,369.200 288.303 C 370.080 287.369,370.800 286.378,370.800 286.102 C 370.800 285.826,370.980 285.600,371.200 285.600 C 371.420 285.600,371.600 285.240,371.600 284.800 C 371.600 284.360,371.735 283.999,371.900 283.997 C 372.259 283.993,373.200 282.056,373.200 281.320 C 373.200 281.034,373.356 280.800,373.547 280.800 C 373.998 280.800,375.200 276.514,375.200 274.907 C 375.200 274.225,375.389 273.604,375.620 273.527 C 375.869 273.444,375.997 272.406,375.933 270.993 C 375.874 269.677,375.820 216.175,375.813 152.100 C 375.806 88.025,375.687 35.600,375.548 35.600 C 375.410 35.600,375.218 34.565,375.122 33.300 C 374.934 30.805,371.550 23.344,369.995 21.996 C 369.558 21.616,369.200 21.100,369.200 20.848 C 369.200 20.272,361.761 12.800,361.188 12.800 C 360.956 12.800,360.409 12.467,359.972 12.060 C 358.930 11.089,355.180 9.200,354.294 9.200 C 353.912 9.200,353.600 9.020,353.600 8.800 C 353.600 8.580,353.240 8.400,352.800 8.400 C 352.360 8.400,352.000 8.220,352.000 8.000 C 352.000 7.780,351.460 7.600,350.800 7.600 C 350.140 7.600,349.600 7.420,349.600 7.200 C 349.600 6.934,300.029 6.798,201.700 6.794 C 106.067 6.790,54.012 6.651,54.400 6.400 C 54.913 6.069,54.898 6.011,54.300 6.006 C 53.915 6.003,53.600 6.180,53.600 6.400 M169.901 109.376 C 169.982 156.452,169.900 168.616,169.501 168.869 C 168.739 169.353,148.490 169.276,147.574 168.786 C 146.875 168.412,146.799 167.899,146.787 163.486 L 146.773 158.600 145.516 160.200 C 136.093 172.198,119.970 175.437,105.624 168.212 C 101.397 166.083,93.600 159.221,93.600 157.629 C 93.600 157.430,93.455 157.207,93.277 157.133 C 92.809 156.941,90.400 153.335,90.400 152.828 C 90.400 152.593,90.262 152.400,90.094 152.400 C 89.766 152.400,88.721 150.228,87.496 147.000 C 84.284 138.536,83.195 127.473,84.594 117.507 C 85.387 111.856,86.421 106.688,86.851 106.220 C 87.043 106.011,87.200 105.437,87.200 104.944 C 87.200 104.451,87.380 103.936,87.600 103.800 C 87.820 103.664,88.000 103.282,88.000 102.951 C 88.000 102.207,90.441 97.050,90.880 96.867 C 91.056 96.793,91.200 96.558,91.200 96.345 C 91.200 94.883,97.234 87.744,100.763 85.029 C 114.626 74.368,137.369 76.602,145.257 89.400 C 145.983 90.577,145.997 90.222,145.999 70.567 C 145.999 59.548,146.123 50.411,146.273 50.261 C 146.423 50.111,151.778 50.036,158.173 50.094 L 169.800 50.200 169.901 109.376 M214.301 109.453 L 214.403 168.706 213.501 168.948 C 212.327 169.262,192.474 169.263,191.300 168.948 L 190.400 168.707 190.400 109.620 C 190.400 77.122,190.523 50.411,190.673 50.261 C 190.823 50.111,196.178 50.036,202.573 50.094 L 214.200 50.200 214.301 109.453 M274.200 78.636 C 275.300 78.769,276.371 79.040,276.580 79.239 C 276.789 79.437,277.196 79.600,277.484 79.600 C 280.434 79.600,288.617 85.858,291.048 89.973 C 292.164 91.862,292.264 91.538,292.078 86.663 C 291.815 79.809,290.689 80.400,304.014 80.400 L 315.200 80.400 315.200 126.423 C 315.200 152.562,315.043 173.170,314.836 174.123 C 314.636 175.045,314.249 177.060,313.977 178.600 C 313.705 180.140,313.306 181.850,313.091 182.400 C 312.876 182.950,312.543 183.805,312.350 184.300 C 310.094 190.099,305.686 195.269,300.246 198.499 C 290.048 204.553,270.239 206.496,255.800 202.858 C 251.395 201.748,243.600 198.337,243.600 197.519 C 243.600 197.343,243.350 197.200,243.045 197.200 C 242.342 197.200,236.400 191.288,236.400 190.588 C 236.400 190.301,236.251 190.007,236.068 189.933 C 234.672 189.373,231.822 179.406,232.672 178.058 C 233.039 177.477,234.431 177.387,244.643 177.288 C 258.346 177.155,257.754 177.064,258.442 179.396 C 258.735 180.388,259.115 181.200,259.287 181.200 C 259.459 181.200,259.600 181.388,259.600 181.618 C 259.600 183.987,266.262 186.400,272.800 186.400 C 281.474 186.400,288.145 182.782,289.764 177.200 C 289.923 176.650,290.242 175.570,290.472 174.800 C 291.160 172.499,291.653 167.732,291.796 162.000 C 291.870 159.030,291.843 156.915,291.736 157.300 C 291.629 157.685,291.387 158.000,291.198 158.000 C 291.009 158.000,290.751 158.326,290.624 158.724 C 289.374 162.662,280.805 167.854,273.600 169.038 C 252.721 172.470,234.839 158.981,231.129 137.000 C 230.492 133.226,230.255 118.624,230.779 115.400 C 232.206 106.614,236.646 94.651,239.166 92.800 C 239.316 92.690,239.872 91.970,240.403 91.200 C 244.621 85.073,254.678 78.929,260.766 78.760 C 261.555 78.738,262.650 78.567,263.200 78.379 C 264.201 78.037,270.440 78.183,274.200 78.636 M123.363 99.586 C 118.414 100.647,112.000 105.930,112.000 108.945 C 112.000 109.268,111.855 109.593,111.679 109.667 C 111.278 109.833,109.600 115.132,109.600 116.231 C 109.600 116.676,109.412 117.228,109.183 117.457 C 108.328 118.312,109.125 136.459,110.042 137.026 C 110.239 137.148,110.400 137.614,110.400 138.063 C 110.400 139.937,113.567 145.490,115.801 147.531 C 120.870 152.164,130.422 152.999,136.642 149.354 C 138.719 148.137,142.000 144.982,142.000 144.202 C 142.000 143.907,142.135 143.607,142.300 143.533 C 146.078 141.854,147.900 123.480,145.208 114.200 C 144.953 113.320,144.645 112.192,144.524 111.694 C 144.403 111.196,144.146 110.690,143.952 110.570 C 143.759 110.451,143.600 110.003,143.600 109.576 C 143.600 109.149,143.420 108.800,143.200 108.800 C 142.980 108.800,142.800 108.553,142.800 108.251 C 142.800 106.940,137.915 102.389,135.007 100.990 C 131.841 99.468,126.767 98.856,123.363 99.586 M269.168 99.578 C 266.415 100.083,260.454 103.446,260.412 104.517 C 260.406 104.691,260.064 105.194,259.654 105.634 C 258.982 106.355,257.630 108.876,256.777 111.000 C 256.600 111.440,256.253 112.790,256.005 114.000 C 255.757 115.210,255.385 116.968,255.177 117.906 C 254.660 120.245,254.702 129.162,255.241 131.494 C 256.631 137.510,257.294 139.263,259.363 142.400 C 265.131 151.146,279.454 151.743,286.543 143.534 C 288.595 141.157,288.861 140.714,290.107 137.600 C 290.327 137.050,290.653 136.240,290.831 135.800 C 292.102 132.659,292.045 114.781,290.759 113.420 C 290.562 113.211,290.400 112.701,290.400 112.286 C 290.400 108.970,284.491 102.111,280.229 100.480 C 277.594 99.472,272.158 99.028,269.168 99.578 M110.400 216.605 C 117.348 218.755,125.973 225.775,127.471 230.500 C 127.593 230.885,127.852 231.200,128.047 231.200 C 128.241 231.200,128.400 231.472,128.400 231.805 C 128.400 232.138,128.571 232.723,128.781 233.105 C 130.783 236.754,131.821 246.814,130.545 250.200 C 130.296 250.860,129.853 252.210,129.560 253.200 C 126.351 264.044,114.360 272.800,102.718 272.800 C 100.078 272.800,95.847 272.144,94.705 271.557 C 94.323 271.361,93.778 271.200,93.494 271.200 C 91.558 271.200,85.238 267.175,81.873 263.799 C 79.525 261.442,76.400 256.640,76.400 255.388 C 76.400 255.065,76.220 254.800,76.000 254.800 C 75.780 254.800,75.600 254.438,75.600 253.995 C 75.600 253.552,75.441 252.877,75.247 252.495 C 73.498 249.050,73.573 240.339,75.399 235.000 C 76.207 232.637,77.907 229.251,78.678 228.471 C 78.965 228.181,79.200 227.798,79.200 227.620 C 79.200 227.014,84.596 221.707,86.525 220.415 C 93.181 215.961,103.168 214.367,110.400 216.605 M206.200 216.204 C 215.498 218.164,224.571 226.389,227.155 235.200 C 227.446 236.190,227.845 237.413,228.042 237.919 C 228.538 239.192,228.502 249.890,228.000 250.200 C 227.780 250.336,227.600 250.889,227.600 251.429 C 227.600 251.969,227.441 252.723,227.247 253.105 C 227.052 253.487,226.671 254.340,226.400 255.000 C 225.638 256.853,224.390 259.227,223.981 259.600 C 223.860 259.710,223.334 260.430,222.812 261.200 C 216.731 270.169,200.395 275.714,192.305 271.557 C 191.923 271.361,191.378 271.200,191.094 271.200 C 188.257 271.200,180.073 265.304,177.214 261.200 C 176.677 260.430,176.132 259.710,176.001 259.600 C 175.510 259.186,173.347 254.530,172.842 252.800 C 172.553 251.810,172.155 250.587,171.958 250.081 C 171.389 248.621,171.531 239.899,172.163 237.520 C 173.132 233.869,175.397 228.800,176.060 228.800 C 176.247 228.800,176.400 228.524,176.400 228.187 C 176.400 227.850,177.975 225.999,179.900 224.074 C 186.999 216.975,196.446 214.148,206.200 216.204 M303.765 216.200 C 308.882 217.284,314.465 220.482,318.312 224.534 C 320.326 226.655,323.600 231.524,323.600 232.398 C 323.600 232.625,323.759 233.123,323.953 233.505 C 325.450 236.447,325.697 237.784,325.883 243.958 C 325.987 247.399,325.894 249.466,325.622 249.738 C 325.390 249.970,325.200 250.566,325.200 251.061 C 325.200 252.011,324.833 253.054,323.460 256.000 C 316.013 271.985,296.780 277.571,282.000 268.042 C 279.591 266.488,274.000 260.953,274.000 260.121 C 274.000 259.834,273.820 259.600,273.600 259.600 C 273.380 259.600,273.200 259.403,273.200 259.162 C 273.200 258.921,272.853 258.237,272.429 257.641 C 269.717 253.832,267.943 242.234,269.457 238.200 C 269.705 237.540,270.147 236.190,270.440 235.200 C 274.391 221.850,289.574 213.193,303.765 216.200 " stroke="none" fill="#43b4ec" fill-rule="evenodd"></path><path id="path2" d="M146.900 50.265 C 146.625 50.376,146.400 50.654,146.400 50.882 C 146.400 51.148,146.601 51.131,146.956 50.836 C 147.354 50.506,150.642 50.407,158.518 50.487 C 164.572 50.549,169.441 50.465,169.339 50.300 C 169.135 49.972,147.710 49.938,146.900 50.265 M191.280 50.480 C 190.734 51.026,190.556 168.202,191.100 168.538 C 191.265 168.640,191.400 142.146,191.400 109.662 L 191.400 50.600 202.400 50.600 L 213.400 50.600 213.400 109.662 C 213.400 142.146,213.535 168.640,213.700 168.538 C 214.244 168.202,214.066 51.026,213.520 50.480 C 212.836 49.796,191.964 49.796,191.280 50.480 M146.496 71.143 C 146.406 89.377,146.360 90.470,145.700 90.219 C 145.139 90.005,145.099 90.052,145.500 90.456 C 146.708 91.673,146.807 90.053,146.700 70.976 L 146.592 51.800 146.496 71.143 M120.512 78.695 C 121.564 78.777,123.184 78.776,124.112 78.692 C 125.040 78.608,124.180 78.541,122.200 78.542 C 120.220 78.543,119.460 78.612,120.512 78.695 M265.900 78.693 C 266.835 78.777,268.365 78.777,269.300 78.693 C 270.235 78.609,269.470 78.540,267.600 78.540 C 265.730 78.540,264.965 78.609,265.900 78.693 M314.800 124.920 L 315.000 169.000 315.102 125.222 C 315.158 101.144,315.068 81.308,314.902 81.142 C 314.736 80.976,314.690 100.676,314.800 124.920 M284.800 83.725 C 284.800 83.794,285.385 84.379,286.100 85.025 L 287.400 86.200 286.225 84.900 C 285.130 83.688,284.800 83.416,284.800 83.725 M243.586 87.900 L 241.400 90.200 243.700 88.014 C 245.837 85.982,246.183 85.600,245.886 85.600 C 245.824 85.600,244.789 86.635,243.586 87.900 M289.008 88.100 C 289.867 89.145,290.634 90.000,290.712 90.000 C 290.998 90.000,289.261 87.778,288.366 87.000 C 287.860 86.560,288.149 87.055,289.008 88.100 M96.378 89.500 L 95.000 91.000 96.500 89.622 C 97.896 88.338,98.184 88.000,97.878 88.000 C 97.812 88.000,97.137 88.675,96.378 89.500 M285.583 103.700 C 287.241 105.466,287.600 105.784,287.600 105.483 C 287.600 105.419,286.745 104.564,285.700 103.583 L 283.800 101.800 285.583 103.700 M231.646 111.667 C 231.621 112.034,231.496 112.664,231.370 113.067 C 231.152 113.762,231.163 113.763,231.597 113.087 C 231.848 112.696,231.973 112.066,231.873 111.687 C 231.711 111.068,231.688 111.066,231.646 111.667 M84.909 117.600 C 84.909 118.590,84.987 118.995,85.082 118.500 C 85.178 118.005,85.178 117.195,85.082 116.700 C 84.987 116.205,84.909 116.610,84.909 117.600 M230.901 117.800 C 230.905 118.680,230.987 118.993,231.083 118.495 C 231.179 117.998,231.175 117.278,231.075 116.895 C 230.975 116.513,230.896 116.920,230.901 117.800 M292.114 119.400 C 292.117 120.500,292.195 120.903,292.287 120.295 C 292.379 119.686,292.377 118.786,292.282 118.295 C 292.187 117.803,292.111 118.300,292.114 119.400 M254.524 120.600 C 254.526 121.920,254.601 122.412,254.690 121.693 C 254.779 120.974,254.777 119.894,254.686 119.293 C 254.595 118.692,254.522 119.280,254.524 120.600 M84.531 122.600 C 84.533 124.140,84.605 124.721,84.692 123.891 C 84.779 123.061,84.777 121.801,84.689 121.091 C 84.600 120.381,84.529 121.060,84.531 122.600 M230.554 124.800 C 230.554 127.550,230.618 128.675,230.696 127.300 C 230.774 125.925,230.774 123.675,230.696 122.300 C 230.618 120.925,230.554 122.050,230.554 124.800 M108.150 125.400 C 108.151 127.820,108.216 128.758,108.296 127.485 C 108.376 126.212,108.375 124.232,108.294 123.085 C 108.214 121.938,108.149 122.980,108.150 125.400 M292.531 124.600 C 292.533 126.140,292.605 126.721,292.692 125.891 C 292.779 125.061,292.777 123.801,292.689 123.091 C 292.600 122.381,292.529 123.060,292.531 124.600 M146.942 125.800 C 146.941 127.780,147.008 128.640,147.092 127.712 C 147.176 126.784,147.177 125.164,147.095 124.112 C 147.012 123.060,146.943 123.820,146.942 125.800 M254.101 125.000 C 254.105 125.880,254.187 126.193,254.283 125.695 C 254.379 125.198,254.375 124.478,254.275 124.095 C 254.175 123.713,254.096 124.120,254.101 125.000 M254.520 128.800 C 254.520 130.010,254.595 130.505,254.687 129.900 C 254.778 129.295,254.778 128.305,254.687 127.700 C 254.595 127.095,254.520 127.590,254.520 128.800 M292.109 129.600 C 292.109 130.590,292.187 130.995,292.282 130.500 C 292.378 130.005,292.378 129.195,292.282 128.700 C 292.187 128.205,292.109 128.610,292.109 129.600 M84.524 131.000 C 84.526 132.320,84.601 132.812,84.690 132.093 C 84.779 131.374,84.777 130.294,84.686 129.693 C 84.595 129.092,84.522 129.680,84.524 131.000 M230.901 132.200 C 230.905 133.080,230.987 133.393,231.083 132.895 C 231.179 132.398,231.175 131.678,231.075 131.295 C 230.975 130.913,230.896 131.320,230.901 132.200 M84.901 135.000 C 84.905 135.880,84.987 136.193,85.083 135.695 C 85.179 135.198,85.175 134.478,85.075 134.095 C 84.975 133.713,84.896 134.120,84.901 135.000 M139.600 147.400 C 138.628 148.390,137.923 149.200,138.033 149.200 C 138.143 149.200,139.028 148.390,140.000 147.400 C 140.972 146.410,141.677 145.600,141.567 145.600 C 141.457 145.600,140.572 146.410,139.600 147.400 M114.000 146.525 C 114.000 146.594,114.585 147.179,115.300 147.825 L 116.600 149.000 115.425 147.700 C 114.330 146.488,114.000 146.216,114.000 146.525 M271.911 149.893 C 272.851 149.978,274.291 149.977,275.111 149.891 C 275.930 149.805,275.160 149.736,273.400 149.737 C 271.640 149.739,270.970 149.809,271.911 149.893 M126.307 152.290 C 127.026 152.379,128.106 152.377,128.707 152.286 C 129.308 152.195,128.720 152.122,127.400 152.124 C 126.080 152.126,125.588 152.201,126.307 152.290 M292.157 162.000 C 292.157 164.970,292.220 166.185,292.297 164.700 C 292.374 163.215,292.374 160.785,292.297 159.300 C 292.220 157.815,292.157 159.030,292.157 162.000 M146.370 158.268 L 145.400 159.336 146.487 158.568 C 147.086 158.146,147.581 157.665,147.587 157.500 C 147.608 157.007,147.389 157.146,146.370 158.268 M147.354 163.200 C 147.354 165.950,147.418 167.075,147.496 165.700 C 147.574 164.325,147.574 162.075,147.496 160.700 C 147.418 159.325,147.354 160.450,147.354 163.200 M241.600 158.525 C 241.600 158.594,242.185 159.179,242.900 159.825 L 244.200 161.000 243.025 159.700 C 241.930 158.488,241.600 158.216,241.600 158.525 M142.000 163.400 C 141.028 164.390,140.323 165.200,140.433 165.200 C 140.543 165.200,141.428 164.390,142.400 163.400 C 143.372 162.410,144.077 161.600,143.967 161.600 C 143.857 161.600,142.972 162.410,142.000 163.400 M291.701 169.800 C 291.705 170.680,291.787 170.993,291.883 170.495 C 291.979 169.998,291.975 169.278,291.875 168.895 C 291.775 168.513,291.696 168.920,291.701 169.800 M265.513 169.095 C 266.676 169.176,268.476 169.176,269.513 169.093 C 270.551 169.011,269.600 168.945,267.400 168.946 C 265.200 168.947,264.351 169.014,265.513 169.095 M314.509 172.000 C 314.509 172.990,314.587 173.395,314.682 172.900 C 314.778 172.405,314.778 171.595,314.682 171.100 C 314.587 170.605,314.509 171.010,314.509 172.000 M119.312 171.495 C 120.364 171.577,121.984 171.576,122.912 171.492 C 123.840 171.408,122.980 171.341,121.000 171.342 C 119.020 171.343,118.260 171.412,119.312 171.495 M305.578 193.900 L 304.200 195.400 305.700 194.022 C 307.096 192.738,307.384 192.400,307.078 192.400 C 307.012 192.400,306.337 193.075,305.578 193.900 M286.800 202.800 C 285.976 203.064,285.941 203.126,286.600 203.154 C 287.040 203.173,287.670 203.013,288.000 202.800 C 288.701 202.347,288.214 202.347,286.800 202.800 M283.300 203.476 C 283.685 203.576,284.315 203.576,284.700 203.476 C 285.085 203.375,284.770 203.293,284.000 203.293 C 283.230 203.293,282.915 203.375,283.300 203.476 M269.500 204.296 C 270.875 204.374,273.125 204.374,274.500 204.296 C 275.875 204.218,274.750 204.154,272.000 204.154 C 269.250 204.154,268.125 204.218,269.500 204.296 M101.100 215.889 C 101.815 215.978,102.985 215.978,103.700 215.889 C 104.415 215.801,103.830 215.728,102.400 215.728 C 100.970 215.728,100.385 215.801,101.100 215.889 M198.700 215.889 C 199.415 215.978,200.585 215.978,201.300 215.889 C 202.015 215.801,201.430 215.728,200.000 215.728 C 198.570 215.728,197.985 215.801,198.700 215.889 M296.300 215.889 C 297.015 215.978,298.185 215.978,298.900 215.889 C 299.615 215.801,299.030 215.728,297.600 215.728 C 296.170 215.728,295.585 215.801,296.300 215.889 M82.386 224.300 L 80.200 226.600 82.500 224.414 C 83.765 223.211,84.800 222.176,84.800 222.114 C 84.800 221.817,84.418 222.163,82.386 224.300 M317.200 224.200 C 318.395 225.410,319.463 226.400,319.573 226.400 C 319.683 226.400,318.795 225.410,317.600 224.200 C 316.405 222.990,315.337 222.000,315.227 222.000 C 315.117 222.000,316.005 222.990,317.200 224.200 M179.381 224.900 L 177.800 226.600 179.500 225.019 C 181.081 223.548,181.384 223.200,181.081 223.200 C 181.016 223.200,180.251 223.965,179.381 224.900 M176.384 228.423 C 175.905 229.096,175.579 229.713,175.661 229.794 C 175.743 229.876,176.214 229.326,176.708 228.571 C 177.823 226.871,177.571 226.756,176.384 228.423 M172.256 238.084 C 172.121 238.588,172.027 239.360,172.046 239.800 C 172.065 240.240,172.245 239.898,172.446 239.040 C 172.836 237.378,172.670 236.540,172.256 238.084 M130.544 244.000 C 130.544 246.090,130.612 246.945,130.694 245.900 C 130.776 244.855,130.776 243.145,130.694 242.100 C 130.612 241.055,130.544 241.910,130.544 244.000 M228.137 244.200 C 228.139 245.960,228.209 246.630,228.293 245.689 C 228.378 244.749,228.377 243.309,228.291 242.489 C 228.205 241.670,228.136 242.440,228.137 244.200 M269.337 244.200 C 269.339 245.960,269.409 246.630,269.493 245.689 C 269.578 244.749,269.577 243.309,269.491 242.489 C 269.405 241.670,269.336 242.440,269.337 244.200 M171.731 244.200 C 171.733 245.740,171.805 246.321,171.892 245.491 C 171.979 244.661,171.977 243.401,171.889 242.691 C 171.800 241.981,171.729 242.660,171.731 244.200 M325.731 244.200 C 325.733 245.740,325.805 246.321,325.892 245.491 C 325.979 244.661,325.977 243.401,325.889 242.691 C 325.800 241.981,325.729 242.660,325.731 244.200 M74.124 244.200 C 74.126 245.520,74.201 246.012,74.290 245.293 C 74.379 244.574,74.377 243.494,74.286 242.893 C 74.195 242.292,74.122 242.880,74.124 244.200 M121.986 264.300 L 119.800 266.600 122.100 264.414 C 124.237 262.382,124.583 262.000,124.286 262.000 C 124.224 262.000,123.189 263.035,121.986 264.300 M277.400 264.000 C 278.483 265.100,279.460 266.000,279.570 266.000 C 279.680 266.000,278.883 265.100,277.800 264.000 C 276.717 262.900,275.740 262.000,275.630 262.000 C 275.520 262.000,276.317 262.900,277.400 264.000 M219.381 264.500 L 217.800 266.200 219.500 264.619 C 220.435 263.749,221.200 262.984,221.200 262.919 C 221.200 262.616,220.852 262.919,219.381 264.500 M317.178 264.300 L 315.800 265.800 317.300 264.422 C 318.696 263.138,318.984 262.800,318.678 262.800 C 318.612 262.800,317.937 263.475,317.178 264.300 M100.700 272.293 C 101.635 272.377,103.165 272.377,104.100 272.293 C 105.035 272.209,104.270 272.140,102.400 272.140 C 100.530 272.140,99.765 272.209,100.700 272.293 M198.300 272.293 C 199.235 272.377,200.765 272.377,201.700 272.293 C 202.635 272.209,201.870 272.140,200.000 272.140 C 198.130 272.140,197.365 272.209,198.300 272.293 M295.900 272.293 C 296.835 272.377,298.365 272.377,299.300 272.293 C 300.235 272.209,299.470 272.140,297.600 272.140 C 295.730 272.140,294.965 272.209,295.900 272.293 " stroke="none" fill="#8dd3f4" fill-rule="evenodd"></path><path id="path3" d="M23.397 154.400 C 23.397 216.550,23.443 241.975,23.500 210.900 C 23.557 179.825,23.557 128.975,23.500 97.900 C 23.443 66.825,23.397 92.250,23.397 154.400 M147.009 50.785 C 146.874 51.003,146.727 60.051,146.682 70.891 C 146.603 89.887,146.573 90.598,145.850 90.536 C 145.163 90.478,145.154 90.526,145.741 91.112 C 146.925 92.297,147.000 91.191,147.089 71.067 L 147.177 51.000 158.189 50.894 L 169.200 50.787 169.200 109.594 L 169.200 168.400 158.611 168.400 L 148.022 168.400 147.911 162.733 C 147.784 156.254,147.514 155.781,145.597 158.678 L 144.326 160.600 145.863 158.818 L 147.400 157.035 147.600 162.818 L 147.800 168.600 158.600 168.600 L 169.400 168.600 169.400 109.600 L 169.400 50.600 158.327 50.494 C 151.307 50.426,147.165 50.533,147.009 50.785 M191.387 50.894 C 191.281 51.172,191.241 77.770,191.297 110.000 L 191.400 168.600 202.400 168.600 L 213.400 168.600 213.400 109.600 L 213.400 50.600 202.490 50.494 C 193.977 50.410,191.537 50.498,191.387 50.894 M213.200 109.600 L 213.200 168.400 202.400 168.400 L 191.600 168.400 191.600 109.600 L 191.600 50.800 202.400 50.800 L 213.200 50.800 213.200 109.600 M119.717 79.097 C 121.211 79.174,123.551 79.174,124.917 79.096 C 126.282 79.018,125.060 78.955,122.200 78.955 C 119.340 78.956,118.222 79.020,119.717 79.097 M264.900 79.097 C 266.385 79.174,268.815 79.174,270.300 79.097 C 271.785 79.020,270.570 78.957,267.600 78.957 C 264.630 78.957,263.415 79.020,264.900 79.097 M128.497 79.431 C 128.629 79.562,129.336 79.822,130.068 80.008 C 133.493 80.877,133.464 80.873,132.200 80.288 C 130.903 79.687,128.106 79.039,128.497 79.431 M259.000 79.600 C 257.911 79.877,257.893 79.907,258.800 79.925 C 259.350 79.935,260.160 79.789,260.600 79.600 C 261.586 79.176,260.666 79.176,259.000 79.600 M110.492 80.408 C 104.619 82.495,96.231 88.458,95.261 91.236 C 95.184 91.456,96.084 90.613,97.261 89.363 C 101.611 84.743,107.730 81.232,113.800 79.872 C 114.428 79.731,114.386 79.689,113.600 79.676 C 113.050 79.666,111.651 79.996,110.492 80.408 M277.800 80.575 C 279.340 81.100,280.657 81.473,280.728 81.404 C 280.934 81.200,276.434 79.599,275.685 79.610 C 275.308 79.616,276.260 80.050,277.800 80.575 M293.067 81.067 C 292.920 81.213,292.800 83.823,292.800 86.867 C 292.800 92.866,292.645 93.214,291.047 90.800 C 290.465 89.920,289.893 89.200,289.775 89.200 C 289.658 89.200,290.126 90.020,290.815 91.022 C 292.722 93.794,292.985 93.317,293.111 86.855 L 293.222 81.175 303.973 81.287 C 309.886 81.349,314.641 81.265,314.539 81.100 C 314.309 80.729,293.436 80.697,293.067 81.067 M135.024 81.787 C 135.451 82.110,135.948 82.380,136.128 82.387 C 136.710 82.410,139.756 84.657,141.503 86.352 C 143.353 88.148,144.329 88.628,142.782 86.981 C 141.511 85.628,138.168 83.084,136.288 82.040 C 134.534 81.066,133.903 80.940,135.024 81.787 M251.201 82.427 C 249.991 83.093,248.821 83.827,248.601 84.056 C 248.280 84.390,253.356 81.813,253.967 81.331 C 254.676 80.772,252.994 81.438,251.201 82.427 M281.200 81.728 C 281.200 81.842,281.875 82.345,282.700 82.847 C 283.525 83.349,285.453 84.938,286.985 86.380 C 288.517 87.821,289.237 88.362,288.585 87.583 C 286.762 85.402,281.200 80.993,281.200 81.728 M244.694 87.300 C 241.859 90.072,241.845 90.095,244.364 87.827 C 245.814 86.522,247.264 85.217,247.586 84.927 C 247.908 84.637,248.056 84.400,247.916 84.400 C 247.776 84.400,246.326 85.705,244.694 87.300 M93.764 92.929 C 93.309 93.628,92.615 94.695,92.222 95.300 C 91.829 95.905,91.593 96.400,91.697 96.400 C 91.966 96.400,94.886 91.953,94.724 91.791 C 94.651 91.717,94.218 92.229,93.764 92.929 M239.108 93.700 C 238.787 94.195,238.307 95.050,238.040 95.600 C 237.360 97.003,238.594 95.506,239.441 93.900 C 240.139 92.574,239.923 92.444,239.108 93.700 M90.586 98.100 L 89.952 99.400 90.767 98.400 C 91.552 97.437,91.808 96.800,91.410 96.800 C 91.306 96.800,90.935 97.385,90.586 98.100 M236.581 98.037 C 236.229 98.718,236.012 99.345,236.099 99.432 C 236.186 99.519,236.556 98.962,236.922 98.195 C 237.744 96.470,237.459 96.338,236.581 98.037 M123.114 98.728 C 122.737 98.878,124.574 99.000,127.196 99.000 C 129.819 99.000,131.658 98.878,131.283 98.728 C 130.907 98.579,129.070 98.456,127.200 98.456 C 125.330 98.456,123.491 98.579,123.114 98.728 M269.117 98.728 C 268.742 98.878,270.671 99.000,273.404 99.000 C 276.136 99.000,278.064 98.878,277.686 98.728 C 277.309 98.579,275.380 98.456,273.400 98.456 C 271.420 98.456,269.493 98.579,269.117 98.728 M279.200 99.600 C 279.530 99.813,280.070 99.988,280.400 99.988 C 280.933 99.988,280.933 99.945,280.400 99.600 C 280.070 99.387,279.530 99.212,279.200 99.212 C 278.667 99.212,278.667 99.255,279.200 99.600 M89.067 101.267 C 88.705 102.188,88.474 103.007,88.554 103.088 C 88.634 103.168,89.000 102.483,89.367 101.567 C 89.733 100.650,89.964 99.831,89.879 99.746 C 89.794 99.661,89.429 100.345,89.067 101.267 M136.622 101.239 C 137.710 101.920,139.320 103.135,140.199 103.939 L 141.799 105.400 140.399 103.874 C 138.959 102.304,135.780 100.000,135.053 100.000 C 134.828 100.000,135.534 100.557,136.622 101.239 M263.138 101.192 C 262.149 101.847,260.994 102.792,260.572 103.292 L 259.806 104.200 260.803 103.342 C 261.351 102.870,262.690 101.925,263.778 101.242 C 264.866 100.559,265.572 100.000,265.347 100.000 C 265.122 100.000,264.128 100.536,263.138 101.192 M116.200 102.000 C 115.369 102.660,114.850 103.193,115.045 103.184 C 115.436 103.166,118.309 100.800,117.940 100.800 C 117.813 100.800,117.031 101.340,116.200 102.000 M284.766 102.633 C 285.958 103.703,287.623 105.646,288.466 106.951 C 290.056 109.411,290.474 109.676,289.357 107.517 C 288.570 105.995,285.458 102.623,283.812 101.509 C 283.146 101.058,283.575 101.563,284.766 102.633 M234.258 103.304 C 233.328 105.740,233.480 106.204,234.436 103.847 C 234.872 102.773,235.158 101.824,235.072 101.738 C 234.986 101.652,234.620 102.357,234.258 103.304 M113.944 104.300 C 112.793 105.689,112.306 106.400,112.504 106.400 C 112.614 106.400,113.186 105.770,113.773 105.000 C 114.863 103.571,114.995 103.032,113.944 104.300 M258.471 105.843 C 257.205 107.797,257.537 107.885,258.896 105.956 C 259.499 105.100,259.859 104.402,259.696 104.405 C 259.533 104.408,258.982 105.055,258.471 105.843 M232.652 108.568 C 232.294 109.996,232.013 111.487,232.029 111.882 C 232.045 112.277,232.407 111.177,232.834 109.439 C 233.262 107.700,233.542 106.209,233.458 106.124 C 233.373 106.040,233.011 107.140,232.652 108.568 M87.049 107.015 C 86.912 107.373,86.815 107.966,86.834 108.333 C 86.853 108.700,87.027 108.469,87.221 107.820 C 87.598 106.558,87.465 105.933,87.049 107.015 M143.878 109.395 C 144.244 110.162,144.614 110.719,144.701 110.632 C 144.884 110.449,143.670 108.000,143.396 108.000 C 143.295 108.000,143.512 108.628,143.878 109.395 M86.256 110.084 C 86.121 110.588,86.027 111.360,86.046 111.800 C 86.065 112.240,86.245 111.898,86.446 111.040 C 86.836 109.378,86.670 108.540,86.256 110.084 M255.618 112.098 C 255.337 113.034,254.941 114.340,254.738 115.000 C 254.535 115.660,254.296 117.910,254.207 120.000 L 254.045 123.800 254.396 120.210 C 254.740 116.684,255.268 114.093,256.092 111.887 C 256.321 111.275,256.423 110.689,256.319 110.585 C 256.214 110.481,255.899 111.162,255.618 112.098 M290.828 111.876 C 290.918 112.915,291.544 113.796,291.572 112.924 C 291.587 112.442,291.420 111.936,291.200 111.800 C 290.980 111.664,290.813 111.698,290.828 111.876 M109.467 112.667 C 109.320 112.813,109.211 113.308,109.225 113.767 C 109.249 114.533,109.282 114.523,109.634 113.642 C 110.026 112.663,109.944 112.189,109.467 112.667 M85.415 115.015 C 85.261 116.254,85.217 117.350,85.319 117.452 C 85.420 117.554,85.630 116.623,85.785 115.385 C 85.939 114.146,85.983 113.050,85.881 112.948 C 85.780 112.846,85.570 113.777,85.415 115.015 M231.449 113.415 C 231.312 113.773,231.225 114.816,231.256 115.733 C 231.309 117.301,231.329 117.270,231.592 115.200 C 231.890 112.855,231.851 112.368,231.449 113.415 M145.869 114.600 C 146.257 117.027,146.834 118.572,146.541 116.400 C 146.407 115.410,146.144 114.240,145.955 113.800 C 145.735 113.284,145.704 113.569,145.869 114.600 M291.880 115.891 C 292.190 117.900,292.400 118.061,292.400 116.290 C 292.400 115.497,292.231 114.743,292.024 114.615 C 291.799 114.476,291.741 114.991,291.880 115.891 M108.578 116.178 C 108.427 116.981,108.394 117.727,108.504 117.837 C 108.614 117.947,108.827 117.381,108.978 116.578 C 109.128 115.775,109.162 115.028,109.052 114.918 C 108.942 114.808,108.728 115.375,108.578 116.178 M146.920 120.400 C 146.920 121.610,146.995 122.105,147.087 121.500 C 147.178 120.895,147.178 119.905,147.087 119.300 C 146.995 118.695,146.920 119.190,146.920 120.400 M292.600 124.600 C 292.600 130.159,292.626 130.370,292.951 127.465 C 293.153 125.665,293.153 123.112,292.951 121.465 C 292.638 118.908,292.600 119.245,292.600 124.600 M84.713 123.700 C 84.598 126.175,84.632 129.460,84.789 131.000 C 85.006 133.131,85.089 132.056,85.137 126.500 C 85.208 118.240,85.023 117.019,84.713 123.700 M230.960 125.000 C 230.961 128.300,231.022 129.597,231.098 127.882 C 231.173 126.167,231.172 123.467,231.097 121.882 C 231.021 120.297,230.959 121.700,230.960 125.000 M107.850 120.850 C 107.532 122.440,107.596 129.503,107.940 130.725 C 108.083 131.234,108.200 128.939,108.200 125.625 C 108.200 118.996,108.206 119.072,107.850 120.850 M254.120 128.400 C 254.120 129.610,254.195 130.105,254.287 129.500 C 254.378 128.895,254.378 127.905,254.287 127.300 C 254.195 126.695,254.120 127.190,254.120 128.400 M146.698 131.800 C 146.532 133.340,146.313 135.140,146.210 135.800 C 146.108 136.460,146.288 136.010,146.611 134.800 C 146.934 133.590,147.153 131.790,147.099 130.800 C 147.012 129.220,146.963 129.342,146.698 131.800 M254.406 131.833 C 254.409 132.475,254.584 133.270,254.795 133.600 C 255.055 134.009,255.099 133.690,254.932 132.600 C 254.629 130.623,254.398 130.286,254.406 131.833 M292.064 132.067 C 292.029 132.654,291.884 133.464,291.741 133.867 C 291.543 134.429,291.596 134.495,291.970 134.151 C 292.244 133.899,292.386 133.109,292.293 132.351 C 292.159 131.253,292.116 131.200,292.064 132.067 M231.228 134.233 C 231.244 135.095,231.409 136.160,231.596 136.600 C 231.808 137.098,231.851 136.569,231.712 135.200 C 231.444 132.565,231.189 132.057,231.228 134.233 M108.468 134.000 C 108.462 134.550,108.611 135.360,108.800 135.800 L 109.144 136.600 109.132 135.800 C 109.126 135.360,108.976 134.550,108.800 134.000 L 108.480 133.000 108.468 134.000 M255.206 135.033 C 255.209 135.455,255.395 136.070,255.618 136.400 C 255.915 136.838,255.952 136.676,255.756 135.800 C 255.427 134.329,255.198 134.010,255.206 135.033 M85.293 135.800 C 85.294 136.460,85.432 137.540,85.600 138.200 C 86.023 139.863,86.042 138.226,85.623 136.200 C 85.345 134.855,85.292 134.791,85.293 135.800 M109.228 137.476 C 109.213 137.958,109.380 138.464,109.600 138.600 C 110.073 138.892,110.073 138.501,109.600 137.400 C 109.269 136.629,109.255 136.631,109.228 137.476 M232.065 138.400 C 232.062 139.370,233.091 143.004,233.141 142.200 C 233.155 141.980,232.919 140.810,232.617 139.600 C 232.315 138.390,232.067 137.850,232.065 138.400 M256.805 139.381 C 256.797 140.008,259.339 144.000,259.747 144.000 C 259.954 144.000,259.840 143.685,259.493 143.300 C 259.147 142.915,258.401 141.790,257.836 140.800 C 257.272 139.810,256.807 139.171,256.805 139.381 M86.046 140.400 C 86.027 140.950,86.187 141.670,86.400 142.000 C 86.894 142.764,86.894 141.942,86.400 140.400 L 86.080 139.400 86.046 140.400 M288.715 141.442 C 288.119 142.409,287.771 143.200,287.942 143.200 C 288.287 143.200,290.163 140.024,289.940 139.816 C 289.863 139.743,289.312 140.475,288.715 141.442 M143.878 141.805 C 143.512 142.572,143.295 143.200,143.396 143.200 C 143.670 143.200,144.884 140.751,144.701 140.568 C 144.614 140.481,144.244 141.038,143.878 141.805 M86.834 143.400 C 86.822 143.840,86.987 144.470,87.200 144.800 C 87.714 145.595,87.714 144.596,87.200 143.400 L 86.856 142.600 86.834 143.400 M111.600 143.438 C 111.600 144.279,115.610 148.942,116.971 149.684 C 117.396 149.915,116.746 149.132,115.528 147.943 C 114.310 146.753,113.014 145.200,112.647 144.490 C 112.029 143.296,111.600 142.865,111.600 143.438 M142.245 144.588 C 141.880 145.144,141.722 145.600,141.895 145.600 C 142.284 145.600,143.319 143.986,143.082 143.749 C 142.986 143.653,142.610 144.031,142.245 144.588 M233.609 144.251 C 233.596 144.922,234.817 147.716,235.031 147.503 C 235.132 147.402,234.855 146.527,234.416 145.560 C 233.977 144.592,233.614 144.003,233.609 144.251 M261.600 146.024 C 263.298 147.632,266.637 149.496,267.060 149.073 C 267.167 148.967,266.610 148.667,265.824 148.408 C 265.038 148.149,263.361 147.123,262.098 146.129 L 259.800 144.321 261.600 146.024 M139.200 148.082 C 137.990 149.211,137.360 149.938,137.800 149.699 C 138.569 149.280,141.953 145.984,141.581 146.015 C 141.482 146.024,140.410 146.954,139.200 148.082 M284.179 146.381 C 283.970 146.590,282.809 147.307,281.599 147.973 C 279.193 149.300,279.122 149.678,281.516 148.420 C 283.578 147.336,285.484 146.006,284.980 146.003 C 284.749 146.001,284.389 146.171,284.179 146.381 M268.400 149.600 C 269.768 150.038,270.819 150.038,269.800 149.600 C 269.360 149.411,268.640 149.262,268.200 149.268 C 267.557 149.277,267.596 149.343,268.400 149.600 M277.000 149.600 C 275.981 150.038,277.032 150.038,278.400 149.600 C 279.204 149.343,279.243 149.277,278.600 149.268 C 278.160 149.262,277.440 149.411,277.000 149.600 M135.000 150.800 C 134.120 151.207,133.541 151.554,133.713 151.570 C 134.187 151.615,136.800 150.472,136.800 150.220 C 136.800 149.949,136.923 149.910,135.000 150.800 M236.586 151.100 C 236.935 151.815,237.306 152.400,237.410 152.400 C 237.808 152.400,237.552 151.763,236.767 150.800 L 235.952 149.800 236.586 151.100 M130.400 152.000 C 129.056 152.431,130.508 152.431,132.200 152.000 C 133.278 151.726,133.298 151.694,132.400 151.687 C 131.850 151.683,130.950 151.824,130.400 152.000 M91.467 154.006 C 91.859 154.670,92.598 155.705,93.110 156.306 C 93.621 156.908,93.375 156.365,92.563 155.100 C 91.024 152.703,90.228 151.907,91.467 154.006 M239.141 155.038 C 241.440 158.488,246.485 163.007,250.090 164.846 C 252.494 166.072,251.842 165.447,248.958 163.761 C 246.284 162.196,242.579 158.886,239.824 155.600 C 238.995 154.610,238.687 154.357,239.141 155.038 M289.380 159.009 C 288.087 160.659,285.994 162.763,284.729 163.685 C 283.463 164.607,282.501 165.434,282.591 165.525 C 282.987 165.921,287.772 161.653,289.631 159.246 C 292.166 155.961,292.152 155.954,292.423 160.696 L 292.645 164.600 292.723 160.749 C 292.831 155.361,292.409 155.141,289.380 159.009 M94.800 158.600 C 95.317 159.150,95.806 159.600,95.888 159.600 C 96.221 159.600,94.572 157.624,94.230 157.613 C 94.027 157.606,94.283 158.050,94.800 158.600 M96.800 160.952 C 97.917 162.211,101.959 165.483,103.800 166.618 C 105.527 167.683,104.955 167.139,102.200 165.096 C 100.880 164.118,99.254 162.796,98.587 162.159 C 96.697 160.354,95.632 159.635,96.800 160.952 M141.694 163.118 C 140.536 164.330,139.646 165.380,139.717 165.450 C 139.788 165.521,140.910 164.504,142.210 163.190 C 143.511 161.875,144.401 160.826,144.187 160.858 C 143.974 160.889,142.852 161.907,141.694 163.118 M278.075 167.073 C 277.126 167.409,276.421 167.754,276.507 167.841 C 276.690 168.023,280.400 166.805,280.400 166.562 C 280.400 166.312,279.945 166.412,278.075 167.073 M134.200 168.444 C 132.880 169.091,132.250 169.505,132.800 169.365 C 134.175 169.016,136.367 167.977,136.630 167.551 C 136.906 167.105,137.021 167.063,134.200 168.444 M257.000 167.600 C 257.440 167.789,258.070 167.944,258.400 167.944 C 258.778 167.944,258.704 167.817,258.200 167.600 C 257.760 167.411,257.130 167.256,256.800 167.256 C 256.422 167.256,256.496 167.383,257.000 167.600 M292.072 168.867 C 292.032 169.894,291.896 171.064,291.770 171.467 C 291.554 172.154,291.568 172.156,291.992 171.497 C 292.240 171.110,292.376 169.940,292.294 168.897 L 292.144 167.000 292.072 168.867 M260.200 168.410 C 260.970 168.731,264.707 168.951,264.367 168.655 C 264.275 168.576,263.120 168.413,261.800 168.293 C 260.351 168.162,259.717 168.208,260.200 168.410 M272.200 168.400 L 270.200 168.674 272.000 168.709 C 272.990 168.728,274.160 168.589,274.600 168.400 C 275.513 168.008,275.062 168.008,272.200 168.400 M314.259 169.888 C 314.121 170.719,314.030 172.120,314.056 173.000 C 314.087 174.047,314.223 173.573,314.448 171.630 C 314.811 168.496,314.683 167.319,314.259 169.888 M110.000 169.600 C 110.990 170.015,112.160 170.359,112.600 170.365 C 113.040 170.370,112.410 170.026,111.200 169.600 C 108.394 168.613,107.648 168.613,110.000 169.600 M129.800 170.000 C 128.693 170.282,128.677 170.309,129.600 170.347 C 130.150 170.369,130.870 170.213,131.200 170.000 C 131.881 169.560,131.529 169.560,129.800 170.000 M118.082 171.096 C 119.558 171.173,122.078 171.173,123.682 171.097 C 125.287 171.021,124.080 170.958,121.000 170.958 C 117.920 170.957,116.607 171.019,118.082 171.096 M291.029 174.629 C 290.881 175.215,290.851 175.784,290.961 175.894 C 291.071 176.004,291.281 175.615,291.429 175.029 C 291.576 174.442,291.606 173.873,291.496 173.763 C 291.386 173.653,291.176 174.042,291.029 174.629 M313.440 176.840 C 313.293 177.757,313.252 178.585,313.347 178.680 C 313.442 178.776,313.646 178.110,313.800 177.200 C 313.954 176.290,313.996 175.462,313.893 175.360 C 313.790 175.257,313.587 175.923,313.440 176.840 M232.950 178.587 C 232.826 178.910,232.817 179.405,232.931 179.687 C 233.044 179.969,233.151 179.798,233.168 179.306 L 233.200 178.412 245.500 178.300 L 257.800 178.188 245.487 178.094 C 234.975 178.014,233.142 178.086,232.950 178.587 M312.629 180.629 C 312.481 181.215,312.451 181.784,312.561 181.894 C 312.671 182.004,312.881 181.615,313.029 181.029 C 313.176 180.442,313.206 179.873,313.096 179.763 C 312.986 179.653,312.776 180.042,312.629 180.629 M233.236 181.000 C 233.201 181.899,233.983 184.951,234.195 184.738 C 234.270 184.662,234.092 183.610,233.800 182.400 C 233.507 181.190,233.254 180.560,233.236 181.000 M258.400 181.499 C 258.402 182.520,262.716 186.008,263.956 185.991 C 264.310 185.986,263.880 185.655,263.000 185.254 C 262.120 184.853,260.725 183.776,259.900 182.861 C 259.075 181.946,258.400 181.333,258.400 181.499 M285.800 183.275 L 284.600 184.504 286.100 183.405 C 286.925 182.800,287.600 182.236,287.600 182.153 C 287.600 181.722,286.873 182.176,285.800 183.275 M282.600 185.200 C 281.720 185.607,281.141 185.954,281.313 185.970 C 281.787 186.015,284.400 184.872,284.400 184.620 C 284.400 184.349,284.523 184.310,282.600 185.200 M310.778 185.858 C 310.557 186.439,310.264 187.097,310.126 187.319 C 309.989 187.542,310.066 187.606,310.299 187.463 C 310.739 187.190,311.700 184.800,311.369 184.800 C 311.265 184.800,310.999 185.276,310.778 185.858 M265.600 186.394 C 265.930 186.611,266.635 186.791,267.167 186.794 C 268.451 186.802,268.125 186.575,266.400 186.258 C 265.415 186.077,265.178 186.118,265.600 186.394 M278.800 186.400 L 277.800 186.720 278.800 186.754 C 279.350 186.773,280.070 186.613,280.400 186.400 C 281.164 185.906,280.342 185.906,278.800 186.400 M270.500 187.096 C 271.765 187.175,273.835 187.175,275.100 187.096 C 276.365 187.016,275.330 186.951,272.800 186.951 C 270.270 186.951,269.235 187.016,270.500 187.096 M236.000 189.006 C 236.000 189.492,239.012 193.293,240.281 194.409 C 241.309 195.312,241.299 195.278,240.160 193.996 C 239.479 193.228,238.264 191.719,237.460 190.642 C 236.657 189.566,236.000 188.829,236.000 189.006 M307.986 190.625 C 307.266 191.972,303.781 195.166,301.230 196.819 C 300.114 197.542,299.282 198.216,299.382 198.315 C 300.007 198.941,308.800 191.147,308.800 189.968 C 308.800 189.356,308.563 189.547,307.986 190.625 M297.200 199.200 C 296.430 199.622,295.944 199.974,296.120 199.983 C 296.544 200.005,298.800 198.832,298.800 198.590 C 298.800 198.328,298.777 198.337,297.200 199.200 M291.400 201.415 C 289.812 201.965,289.810 201.967,291.200 201.742 C 291.970 201.618,292.771 201.355,292.980 201.158 C 293.447 200.718,293.387 200.728,291.400 201.415 M255.506 202.216 C 256.445 202.511,258.065 202.851,259.106 202.972 C 260.399 203.121,259.984 202.946,257.800 202.418 C 254.121 201.530,253.018 201.433,255.506 202.216 M284.800 202.800 C 283.443 203.086,283.437 203.095,284.600 203.107 C 285.260 203.115,286.250 202.976,286.800 202.800 C 288.112 202.380,286.796 202.380,284.800 202.800 M262.200 203.624 C 262.640 203.800,264.170 203.942,265.600 203.940 C 268.881 203.936,268.307 203.718,264.400 203.485 C 262.699 203.383,261.746 203.443,262.200 203.624 M278.600 203.600 L 275.800 203.859 278.400 203.889 C 279.830 203.906,281.450 203.776,282.000 203.600 C 283.189 203.219,282.721 203.219,278.600 203.600 M100.900 216.291 C 101.725 216.378,103.075 216.378,103.900 216.291 C 104.725 216.205,104.050 216.134,102.400 216.134 C 100.750 216.134,100.075 216.205,100.900 216.291 M198.500 216.291 C 199.325 216.378,200.675 216.378,201.500 216.291 C 202.325 216.205,201.650 216.134,200.000 216.134 C 198.350 216.134,197.675 216.205,198.500 216.291 M296.100 216.291 C 296.925 216.378,298.275 216.378,299.100 216.291 C 299.925 216.205,299.250 216.134,297.600 216.134 C 295.950 216.134,295.275 216.205,296.100 216.291 M97.300 216.676 C 97.685 216.776,98.315 216.776,98.700 216.676 C 99.085 216.575,98.770 216.493,98.000 216.493 C 97.230 216.493,96.915 216.575,97.300 216.676 M107.329 216.818 C 108.390 216.996,109.814 217.336,110.494 217.573 C 111.174 217.810,111.808 217.925,111.904 217.829 C 112.209 217.525,107.907 216.398,106.627 216.447 C 105.710 216.482,105.887 216.576,107.329 216.818 M193.400 216.803 C 192.885 217.026,193.313 217.067,194.600 216.918 C 195.700 216.791,196.675 216.623,196.767 216.544 C 197.114 216.245,194.164 216.472,193.400 216.803 M204.929 216.818 C 205.990 216.996,207.414 217.336,208.094 217.573 C 208.774 217.810,209.408 217.925,209.504 217.829 C 209.809 217.525,205.507 216.398,204.227 216.447 C 203.310 216.482,203.487 216.576,204.929 216.818 M291.000 216.803 C 290.485 217.026,290.913 217.067,292.200 216.918 C 293.300 216.791,294.275 216.623,294.367 216.544 C 294.714 216.245,291.764 216.472,291.000 216.803 M300.833 216.544 C 300.925 216.623,301.900 216.791,303.000 216.918 C 304.287 217.067,304.715 217.026,304.200 216.803 C 303.436 216.472,300.486 216.245,300.833 216.544 M88.800 219.633 L 87.800 220.448 89.100 219.814 C 89.815 219.465,90.400 219.094,90.400 218.990 C 90.400 218.592,89.763 218.848,88.800 219.633 M309.682 219.015 C 310.098 219.431,314.400 221.939,314.400 221.766 C 314.400 221.532,310.119 218.800,309.753 218.800 C 309.595 218.800,309.563 218.897,309.682 219.015 M116.000 219.790 C 116.000 219.894,116.585 220.265,117.300 220.614 L 118.600 221.248 117.600 220.433 C 116.637 219.648,116.000 219.392,116.000 219.790 M184.693 220.614 C 183.872 221.172,183.200 221.715,183.200 221.820 C 183.200 221.925,183.920 221.535,184.800 220.953 C 186.197 220.028,186.670 219.600,186.293 219.600 C 186.234 219.600,185.514 220.056,184.693 220.614 M214.390 220.288 C 214.934 220.680,216.149 221.584,217.090 222.297 C 218.030 223.011,218.793 223.461,218.784 223.297 C 218.765 222.928,215.751 220.698,214.400 220.054 L 213.400 219.577 214.390 220.288 M281.869 220.837 C 280.842 221.518,279.891 222.253,279.756 222.471 C 279.622 222.689,280.521 222.196,281.756 221.377 C 283.757 220.048,284.290 219.600,283.869 219.600 C 283.796 219.600,282.897 220.157,281.869 220.837 M82.762 224.310 C 81.556 225.570,80.217 227.048,79.785 227.596 C 79.353 228.143,80.386 227.159,82.080 225.409 C 83.774 223.659,85.114 222.180,85.057 222.124 C 85.001 222.067,83.968 223.051,82.762 224.310 M182.000 222.524 C 181.670 222.799,180.952 223.558,180.405 224.211 C 179.736 225.012,179.965 224.883,181.105 223.819 C 182.632 222.394,183.003 221.974,182.700 222.013 C 182.645 222.020,182.330 222.250,182.000 222.524 M317.000 224.400 C 318.306 225.720,319.465 226.800,319.575 226.800 C 319.685 226.800,318.706 225.720,317.400 224.400 C 316.094 223.080,314.935 222.000,314.825 222.000 C 314.715 222.000,315.694 223.080,317.000 224.400 M120.800 222.935 C 120.800 223.095,121.430 223.857,122.200 224.627 C 122.970 225.397,123.600 225.876,123.600 225.692 C 123.600 225.508,122.970 224.746,122.200 224.000 C 121.430 223.254,120.800 222.774,120.800 222.935 M277.402 224.398 C 277.003 224.839,276.807 225.200,276.967 225.200 C 277.388 225.200,278.528 223.995,278.312 223.779 C 278.211 223.678,277.802 223.956,277.402 224.398 M220.006 224.517 C 220.003 224.691,220.377 225.231,220.838 225.717 C 222.240 227.195,224.002 229.907,225.057 232.213 C 226.186 234.679,226.744 235.203,225.788 232.900 C 224.604 230.044,220.027 223.409,220.006 224.517 M125.437 228.500 C 126.249 229.765,126.988 230.800,127.079 230.800 C 127.347 230.800,125.900 228.482,124.890 227.294 C 124.379 226.692,124.625 227.235,125.437 228.500 M274.093 228.700 C 273.057 230.196,272.721 230.800,272.923 230.800 C 273.017 230.800,273.570 230.080,274.153 229.200 C 275.336 227.412,275.284 226.979,274.093 228.700 M78.117 230.100 C 77.285 231.519,76.741 232.800,76.971 232.800 C 77.051 232.800,77.587 231.900,78.162 230.800 C 79.329 228.567,79.298 228.085,78.117 230.100 M321.646 230.396 C 322.139 231.273,322.608 231.926,322.687 231.846 C 322.859 231.674,321.206 228.800,320.935 228.800 C 320.833 228.800,321.152 229.518,321.646 230.396 M226.428 235.476 C 226.413 235.958,226.580 236.464,226.800 236.600 C 227.273 236.892,227.273 236.501,226.800 235.400 C 226.469 234.629,226.455 234.631,226.428 235.476 M75.429 236.229 C 75.281 236.815,75.251 237.384,75.361 237.494 C 75.471 237.604,75.681 237.215,75.829 236.629 C 75.976 236.042,76.006 235.473,75.896 235.363 C 75.786 235.253,75.576 235.642,75.429 236.229 M270.600 236.000 C 270.450 236.473,270.417 236.950,270.527 237.060 C 270.637 237.170,270.850 236.873,271.000 236.400 C 271.150 235.927,271.183 235.450,271.073 235.340 C 270.963 235.230,270.750 235.527,270.600 236.000 M324.056 235.600 C 324.056 235.930,324.211 236.560,324.400 237.000 C 324.617 237.504,324.744 237.578,324.744 237.200 C 324.744 236.870,324.589 236.240,324.400 235.800 C 324.183 235.296,324.056 235.222,324.056 235.600 M129.680 238.600 C 129.680 239.260,129.824 240.250,130.000 240.800 C 130.311 241.772,130.320 241.767,130.320 240.600 C 130.320 239.940,130.176 238.950,130.000 238.400 C 129.689 237.428,129.680 237.433,129.680 238.600 M227.275 239.000 C 227.265 239.660,227.411 240.560,227.600 241.000 L 227.944 241.800 227.925 241.000 C 227.914 240.560,227.768 239.660,227.600 239.000 L 227.295 237.800 227.275 239.000 M269.782 239.782 C 269.629 240.802,269.594 241.727,269.704 241.837 C 269.814 241.947,270.029 241.202,270.182 240.182 C 270.335 239.161,270.370 238.237,270.260 238.127 C 270.150 238.017,269.935 238.761,269.782 239.782 M324.893 239.200 C 324.893 239.970,324.975 240.285,325.076 239.900 C 325.176 239.515,325.176 238.885,325.076 238.500 C 324.975 238.115,324.893 238.430,324.893 239.200 M74.864 239.050 C 74.829 239.518,74.705 240.507,74.589 241.250 C 74.396 242.486,74.415 242.517,74.808 241.614 C 75.045 241.072,75.168 240.082,75.083 239.414 C 74.991 238.697,74.902 238.548,74.864 239.050 M172.254 239.954 C 172.100 240.918,172.058 241.791,172.161 241.894 C 172.430 242.163,172.915 239.345,172.707 238.722 C 172.612 238.436,172.408 238.990,172.254 239.954 M74.681 247.600 C 74.806 248.810,74.974 249.875,75.054 249.967 C 75.335 250.287,75.117 247.391,74.787 246.400 C 74.571 245.754,74.534 246.180,74.681 247.600 M172.272 247.800 C 172.399 248.900,172.569 249.875,172.651 249.967 C 172.932 250.282,172.720 247.799,172.380 246.800 C 172.151 246.126,172.116 246.451,172.272 247.800 M325.000 247.863 C 324.225 253.632,320.505 261.021,316.813 264.128 C 316.146 264.689,315.600 265.287,315.600 265.455 C 315.600 266.174,319.054 262.371,320.794 259.736 C 323.577 255.523,326.448 247.115,325.446 246.112 C 325.344 246.010,325.143 246.798,325.000 247.863 M227.476 247.210 C 227.330 247.755,227.227 248.650,227.246 249.200 C 227.271 249.918,227.384 249.757,227.649 248.627 C 228.055 246.895,227.900 245.625,227.476 247.210 M269.687 247.200 C 269.691 247.750,269.832 248.740,270.000 249.400 L 270.305 250.600 270.313 249.400 C 270.317 248.740,270.176 247.750,270.000 247.200 L 269.680 246.200 269.687 247.200 M129.819 248.327 C 129.655 249.277,129.617 250.150,129.734 250.268 C 130.026 250.559,130.526 247.773,130.300 247.121 C 130.200 246.835,129.984 247.377,129.819 248.327 M75.256 250.800 C 75.256 251.130,75.411 251.760,75.600 252.200 C 75.817 252.704,75.944 252.778,75.944 252.400 C 75.944 252.070,75.789 251.440,75.600 251.000 C 75.383 250.496,75.256 250.422,75.256 250.800 M172.856 251.200 C 172.856 251.530,173.011 252.160,173.200 252.600 C 173.417 253.104,173.544 253.178,173.544 252.800 C 173.544 252.470,173.389 251.840,173.200 251.400 C 172.983 250.896,172.856 250.822,172.856 251.200 M270.456 251.200 C 270.456 251.530,270.611 252.160,270.800 252.600 C 271.017 253.104,271.144 253.178,271.144 252.800 C 271.144 252.470,270.989 251.840,270.800 251.400 C 270.583 250.896,270.456 250.822,270.456 251.200 M76.984 255.800 C 78.034 259.099,84.034 266.002,87.521 267.926 C 89.801 269.182,89.649 268.748,87.300 267.289 C 83.733 265.074,80.444 261.506,77.961 257.158 C 77.284 255.971,76.844 255.360,76.984 255.800 M224.238 257.600 C 223.663 258.700,223.266 259.600,223.357 259.600 C 223.560 259.600,224.951 257.251,225.310 256.300 C 225.818 254.958,225.276 255.614,224.238 257.600 M175.560 257.800 C 176.234 259.105,176.788 259.828,176.785 259.400 C 176.783 259.180,176.414 258.550,175.964 258.000 C 175.421 257.336,175.285 257.269,175.560 257.800 M272.809 257.500 C 272.814 257.665,273.185 258.250,273.633 258.800 L 274.448 259.800 273.814 258.500 C 273.211 257.265,272.789 256.845,272.809 257.500 M124.624 260.820 C 123.777 261.931,121.985 263.844,120.642 265.071 C 119.299 266.298,118.758 266.927,119.439 266.467 C 121.474 265.096,127.105 258.800,126.296 258.800 C 126.224 258.800,125.471 259.709,124.624 260.820 M177.200 260.300 C 177.200 260.563,178.235 261.828,179.500 263.111 C 180.765 264.394,181.061 264.623,180.159 263.622 C 179.256 262.620,178.221 261.355,177.859 260.811 C 177.496 260.267,177.200 260.037,177.200 260.300 M220.851 262.416 C 219.682 263.745,217.453 265.725,215.900 266.816 C 214.346 267.907,213.203 268.800,213.359 268.800 C 214.512 268.800,219.724 264.333,222.576 260.900 C 224.173 258.979,222.867 260.126,220.851 262.416 M275.142 261.100 C 276.348 262.766,279.969 266.134,282.072 267.544 C 285.067 269.553,284.800 268.993,281.738 266.842 C 279.091 264.984,275.200 261.124,275.200 260.357 C 275.200 260.161,275.008 260.000,274.773 260.000 C 274.538 260.000,274.704 260.495,275.142 261.100 M182.611 266.018 C 182.964 266.588,186.433 268.901,186.634 268.700 C 186.731 268.602,185.815 267.875,184.597 267.085 C 183.379 266.294,182.485 265.814,182.611 266.018 M312.909 267.121 C 311.759 267.907,310.891 268.624,310.981 268.714 C 311.176 268.910,314.655 266.558,315.003 265.995 C 315.328 265.469,315.315 265.476,312.909 267.121 M116.600 268.000 C 115.940 268.437,115.580 268.792,115.800 268.788 C 116.201 268.782,118.376 267.223,118.000 267.212 C 117.890 267.208,117.260 267.563,116.600 268.000 M89.600 268.989 C 89.600 269.306,92.500 270.433,92.728 270.205 C 92.841 270.092,92.835 270.000,92.716 270.000 C 92.596 270.000,91.846 269.728,91.049 269.395 C 90.252 269.062,89.600 268.879,89.600 268.989 M187.200 268.989 C 187.200 269.306,190.100 270.433,190.328 270.205 C 190.441 270.092,190.435 270.000,190.316 270.000 C 190.196 270.000,189.446 269.728,188.649 269.395 C 187.852 269.062,187.200 268.879,187.200 268.989 M284.800 268.989 C 284.800 269.306,287.700 270.433,287.928 270.205 C 288.041 270.092,288.035 270.000,287.916 270.000 C 287.796 270.000,287.046 269.728,286.249 269.395 C 285.452 269.062,284.800 268.879,284.800 268.989 M308.600 269.578 C 307.720 269.995,307.113 270.350,307.251 270.368 C 307.640 270.418,310.400 269.214,310.400 268.995 C 310.400 268.727,310.399 268.727,308.600 269.578 M111.800 270.214 C 111.140 270.517,110.870 270.766,111.200 270.768 C 111.530 270.770,112.250 270.514,112.800 270.200 C 114.065 269.477,113.389 269.487,111.800 270.214 M95.400 271.231 C 96.985 271.732,98.819 271.969,100.800 271.930 L 103.800 271.871 100.200 271.587 C 98.220 271.431,95.971 271.100,95.203 270.852 C 94.434 270.603,93.624 270.416,93.403 270.436 C 93.181 270.457,94.080 270.814,95.400 271.231 M108.400 271.218 C 107.962 271.515,108.124 271.552,109.000 271.356 C 110.471 271.027,110.790 270.798,109.767 270.806 C 109.345 270.809,108.730 270.995,108.400 271.218 M193.600 271.388 C 194.873 271.812,196.863 271.968,200.400 271.920 L 205.400 271.852 199.800 271.572 C 196.720 271.419,193.660 271.179,193.000 271.040 C 192.340 270.901,192.610 271.057,193.600 271.388 M206.000 271.218 C 205.562 271.515,205.724 271.552,206.600 271.356 C 208.071 271.027,208.390 270.798,207.367 270.806 C 206.945 270.809,206.330 270.995,206.000 271.218 M289.633 270.944 C 289.725 271.023,290.340 271.208,291.000 271.356 C 291.876 271.552,292.038 271.515,291.600 271.218 C 291.060 270.853,289.232 270.598,289.633 270.944 M303.838 271.096 C 303.675 271.258,301.890 271.499,299.871 271.631 L 296.200 271.871 299.200 271.929 C 300.850 271.961,303.010 271.733,304.000 271.421 C 304.990 271.109,305.425 270.841,304.967 270.827 C 304.508 270.812,304.000 270.933,303.838 271.096 M104.905 271.887 C 105.514 271.979,106.414 271.977,106.905 271.882 C 107.397 271.787,106.900 271.711,105.800 271.714 C 104.700 271.717,104.297 271.795,104.905 271.887 M293.305 271.887 C 293.914 271.979,294.814 271.977,295.305 271.882 C 295.797 271.787,295.300 271.711,294.200 271.714 C 293.100 271.717,292.697 271.795,293.305 271.887 " stroke="none" fill="#b2e2f8" fill-rule="evenodd"></path><path id="path4" d="M54.400 6.400 C 54.012 6.651,105.517 6.790,200.124 6.794 C 296.782 6.798,346.364 6.665,346.202 6.403 C 345.868 5.863,55.236 5.860,54.400 6.400 M24.197 154.400 C 24.197 217.430,24.243 243.215,24.300 211.700 C 24.356 180.185,24.356 128.615,24.300 97.100 C 24.243 65.585,24.197 91.370,24.197 154.400 M375.797 154.400 C 375.797 216.990,375.843 242.595,375.900 211.300 C 375.957 180.005,375.957 128.795,375.900 97.500 C 375.843 66.205,375.797 91.810,375.797 154.400 M146.183 50.500 C 146.078 50.775,146.040 59.910,146.100 70.800 L 146.208 90.600 146.304 70.533 C 146.379 54.927,146.511 50.422,146.900 50.265 C 147.292 50.107,147.289 50.056,146.887 50.032 C 146.606 50.014,146.289 50.225,146.183 50.500 M169.600 109.520 L 169.800 169.000 169.901 109.821 C 169.957 77.273,169.867 50.507,169.701 50.341 C 169.536 50.176,169.490 76.806,169.600 109.520 M190.667 50.267 C 190.296 50.637,190.329 168.800,190.700 168.800 C 190.865 168.800,190.954 142.315,190.897 109.944 C 190.822 66.675,190.914 50.944,191.246 50.544 C 191.695 50.004,191.177 49.756,190.667 50.267 M213.503 50.479 C 213.902 50.963,213.984 63.163,213.903 109.944 C 213.846 142.315,213.936 168.800,214.101 168.800 C 214.754 168.800,214.254 50.284,213.600 50.068 C 213.106 49.905,213.089 49.977,213.503 50.479 M117.914 78.328 C 117.537 78.478,119.364 78.600,121.975 78.600 C 124.586 78.600,126.514 78.468,126.261 78.306 C 125.687 77.940,118.848 77.958,117.914 78.328 M263.276 78.340 C 262.768 78.483,264.714 78.600,267.600 78.600 C 270.486 78.600,272.432 78.483,271.924 78.340 C 271.416 78.197,269.470 78.080,267.600 78.080 C 265.730 78.080,263.784 78.197,263.276 78.340 M112.800 79.206 C 112.378 79.482,112.615 79.523,113.600 79.342 C 115.325 79.025,115.651 78.798,114.367 78.806 C 113.835 78.809,113.130 78.989,112.800 79.206 M128.833 78.944 C 128.925 79.023,129.540 79.208,130.200 79.356 C 131.076 79.552,131.238 79.515,130.800 79.218 C 130.260 78.853,128.432 78.598,128.833 78.944 M258.200 79.219 C 257.642 79.471,257.885 79.507,259.000 79.338 C 259.880 79.204,260.675 79.028,260.767 78.947 C 261.110 78.644,258.968 78.871,258.200 79.219 M274.400 78.955 C 274.400 79.040,274.930 79.187,275.579 79.282 C 276.227 79.377,276.667 79.308,276.555 79.128 C 276.357 78.807,274.400 78.650,274.400 78.955 M292.366 81.263 C 292.062 81.831,291.964 83.677,292.078 86.655 C 292.187 89.511,292.101 91.233,291.846 91.318 C 291.623 91.392,291.746 91.571,292.120 91.714 C 292.740 91.952,292.800 91.480,292.800 86.375 L 292.800 80.776 304.000 80.888 C 310.160 80.950,315.200 80.865,315.200 80.700 C 315.200 79.831,292.837 80.383,292.366 81.263 M251.100 81.829 C 249.549 82.670,249.725 82.961,251.300 82.159 C 252.808 81.393,253.075 81.194,252.567 81.216 C 252.365 81.225,251.705 81.501,251.100 81.829 M247.660 84.003 C 246.747 84.664,246.000 85.303,246.000 85.423 C 246.000 85.611,248.254 84.077,249.380 83.122 C 250.327 82.319,249.156 82.918,247.660 84.003 M284.000 82.866 C 284.110 82.962,285.370 84.106,286.800 85.408 L 289.400 87.776 287.400 85.658 C 286.300 84.493,285.040 83.349,284.600 83.116 C 284.160 82.882,283.890 82.770,284.000 82.866 M140.687 84.809 C 141.395 85.551,142.042 86.078,142.125 85.979 C 142.208 85.881,141.629 85.273,140.838 84.629 L 139.400 83.458 140.687 84.809 M98.294 87.300 C 95.459 90.072,95.445 90.095,97.964 87.827 C 99.414 86.522,100.864 85.217,101.186 84.927 C 101.508 84.637,101.656 84.400,101.516 84.400 C 101.376 84.400,99.926 85.705,98.294 87.300 M143.600 87.800 C 144.346 88.570,145.029 89.200,145.118 89.200 C 145.454 89.200,142.982 86.456,142.622 86.429 C 142.413 86.413,142.854 87.030,143.600 87.800 M126.505 99.087 C 127.114 99.179,128.014 99.177,128.505 99.082 C 128.997 98.987,128.500 98.911,127.400 98.914 C 126.300 98.917,125.897 98.995,126.505 99.087 M272.100 99.087 C 272.705 99.178,273.695 99.178,274.300 99.087 C 274.905 98.995,274.410 98.920,273.200 98.920 C 271.990 98.920,271.495 98.995,272.100 99.087 M88.600 101.061 C 88.264 101.865,88.082 102.615,88.195 102.728 C 88.308 102.841,88.400 102.835,88.400 102.716 C 88.400 102.596,88.672 101.846,89.005 101.049 C 89.338 100.252,89.521 99.600,89.411 99.600 C 89.301 99.600,88.936 100.258,88.600 101.061 M234.600 101.061 C 234.264 101.865,234.082 102.615,234.195 102.728 C 234.308 102.841,234.400 102.835,234.400 102.716 C 234.400 102.596,234.672 101.846,235.005 101.049 C 235.338 100.252,235.521 99.600,235.411 99.600 C 235.301 99.600,234.936 100.258,234.600 101.061 M133.600 100.286 C 133.930 100.409,134.695 100.760,135.300 101.065 C 135.905 101.371,136.400 101.531,136.400 101.421 C 136.400 101.107,134.098 99.996,133.520 100.032 C 133.171 100.053,133.197 100.136,133.600 100.286 M264.726 100.814 C 263.915 101.242,263.146 101.764,263.016 101.973 C 262.831 102.274,266.076 100.681,266.767 100.132 C 267.296 99.712,265.981 100.151,264.726 100.814 M116.922 102.229 L 115.800 103.258 117.100 102.354 C 117.815 101.857,118.400 101.393,118.400 101.325 C 118.400 101.009,117.958 101.280,116.922 102.229 M285.400 104.000 C 286.483 105.100,287.460 106.000,287.570 106.000 C 287.680 106.000,286.883 105.100,285.800 104.000 C 284.717 102.900,283.740 102.000,283.630 102.000 C 283.520 102.000,284.317 102.900,285.400 104.000 M139.600 104.237 C 140.590 105.340,141.463 106.200,141.539 106.148 C 141.793 105.978,140.287 104.216,139.033 103.216 C 138.133 102.498,138.285 102.773,139.600 104.237 M288.600 108.000 C 288.941 108.660,289.311 109.200,289.421 109.200 C 289.531 109.200,289.341 108.660,289.000 108.000 C 288.659 107.340,288.289 106.800,288.179 106.800 C 288.069 106.800,288.259 107.340,288.600 108.000 M85.822 109.822 C 85.672 110.625,85.628 111.362,85.726 111.460 C 85.824 111.557,86.027 110.981,86.178 110.178 C 86.328 109.375,86.372 108.638,86.274 108.540 C 86.176 108.443,85.973 109.019,85.822 109.822 M231.400 111.200 C 231.248 111.891,231.207 112.541,231.309 112.642 C 231.411 112.744,231.609 112.253,231.750 111.550 C 232.083 109.883,231.760 109.560,231.400 111.200 M255.829 113.029 C 255.681 113.615,255.638 114.172,255.732 114.266 C 255.827 114.360,256.024 113.958,256.171 113.371 C 256.319 112.785,256.362 112.228,256.268 112.134 C 256.173 112.040,255.976 112.442,255.829 113.029 M145.212 114.400 C 145.212 114.730,145.387 115.270,145.600 115.600 C 145.945 116.133,145.988 116.133,145.988 115.600 C 145.988 115.270,145.813 114.730,145.600 114.400 C 145.255 113.867,145.212 113.867,145.212 114.400 M291.206 115.433 C 291.209 116.075,291.384 116.870,291.595 117.200 C 291.855 117.609,291.899 117.290,291.732 116.200 C 291.429 114.223,291.198 113.886,291.206 115.433 M230.653 116.036 C 230.514 116.731,230.423 117.953,230.451 118.750 C 230.485 119.730,230.610 119.363,230.835 117.618 C 231.189 114.883,231.077 113.913,230.653 116.036 M109.254 115.667 C 109.225 116.034,109.084 116.664,108.941 117.067 C 108.741 117.633,108.795 117.696,109.175 117.346 C 109.446 117.097,109.587 116.467,109.488 115.946 C 109.390 115.426,109.284 115.300,109.254 115.667 M255.054 116.754 C 254.900 117.718,254.858 118.591,254.961 118.694 C 255.230 118.963,255.715 116.145,255.507 115.522 C 255.412 115.236,255.208 115.790,255.054 116.754 M146.040 118.233 C 146.062 118.875,146.233 119.850,146.420 120.400 C 146.649 121.074,146.684 120.749,146.528 119.400 C 146.269 117.150,145.979 116.459,146.040 118.233 M84.493 118.800 C 84.493 119.570,84.575 119.885,84.676 119.500 C 84.776 119.115,84.776 118.485,84.676 118.100 C 84.575 117.715,84.493 118.030,84.493 118.800 M108.559 125.600 C 108.559 128.790,108.621 130.095,108.697 128.500 C 108.773 126.905,108.773 124.295,108.697 122.700 C 108.621 121.105,108.559 122.410,108.559 125.600 M84.161 126.400 C 84.161 129.810,84.222 131.205,84.297 129.500 C 84.372 127.795,84.372 125.005,84.297 123.300 C 84.222 121.595,84.161 122.990,84.161 126.400 M292.142 124.600 C 292.141 126.580,292.208 127.440,292.292 126.512 C 292.376 125.584,292.377 123.964,292.295 122.912 C 292.212 121.860,292.143 122.620,292.142 124.600 M254.520 124.800 C 254.520 126.010,254.595 126.505,254.687 125.900 C 254.778 125.295,254.778 124.305,254.687 123.700 C 254.595 123.095,254.520 123.590,254.520 124.800 M230.440 131.433 C 230.462 132.515,230.622 133.850,230.797 134.400 C 230.981 134.981,231.025 134.227,230.901 132.600 C 230.651 129.304,230.383 128.627,230.440 131.433 M146.218 131.818 C 146.065 132.839,146.022 133.755,146.122 133.855 C 146.222 133.955,146.429 133.202,146.582 132.182 C 146.735 131.161,146.778 130.245,146.678 130.145 C 146.578 130.045,146.371 130.798,146.218 131.818 M255.062 131.800 C 255.196 132.680,255.372 133.475,255.453 133.567 C 255.756 133.910,255.529 131.768,255.181 131.000 C 254.929 130.442,254.893 130.685,255.062 131.800 M291.449 131.815 C 291.312 132.173,291.218 132.946,291.240 133.533 C 291.273 134.391,291.352 134.295,291.646 133.040 C 292.022 131.439,291.895 130.653,291.449 131.815 M109.044 134.200 C 109.373 135.671,109.602 135.990,109.594 134.967 C 109.591 134.545,109.405 133.930,109.182 133.600 C 108.885 133.162,108.848 133.324,109.044 134.200 M255.612 134.800 C 255.612 135.130,255.787 135.670,256.000 136.000 C 256.345 136.533,256.388 136.533,256.388 136.000 C 256.388 135.670,256.213 135.130,256.000 134.800 C 255.655 134.267,255.612 134.267,255.612 134.800 M145.429 136.229 C 145.281 136.815,145.238 137.372,145.332 137.466 C 145.427 137.560,145.624 137.158,145.771 136.571 C 145.919 135.985,145.962 135.428,145.868 135.334 C 145.773 135.240,145.576 135.642,145.429 136.229 M231.228 137.633 C 231.244 138.165,231.419 138.960,231.619 139.400 C 231.871 139.958,231.907 139.715,231.738 138.600 C 231.455 136.743,231.187 136.236,231.228 137.633 M85.668 141.000 C 85.662 141.440,85.811 142.160,86.000 142.600 C 86.438 143.619,86.438 142.568,86.000 141.200 C 85.743 140.396,85.677 140.357,85.668 141.000 M288.000 141.617 C 288.000 141.847,287.150 142.972,286.112 144.117 C 284.592 145.793,284.521 145.927,285.747 144.800 C 287.596 143.100,289.011 141.200,288.427 141.200 C 288.192 141.200,288.000 141.388,288.000 141.617 M233.230 144.800 C 233.228 145.376,234.357 147.666,234.386 147.146 C 234.394 147.006,234.137 146.286,233.816 145.546 C 233.494 144.806,233.231 144.470,233.230 144.800 M262.785 146.371 C 263.547 147.047,264.342 147.600,264.552 147.600 C 264.762 147.600,264.858 147.548,264.767 147.484 C 264.675 147.420,263.880 146.867,263.000 146.255 L 261.400 145.142 262.785 146.371 M115.896 147.900 C 117.074 149.055,118.249 150.000,118.508 150.000 C 118.766 150.000,118.533 149.703,117.989 149.341 C 117.445 148.978,116.270 148.033,115.378 147.241 C 114.485 146.448,114.719 146.745,115.896 147.900 M137.618 148.650 C 135.909 149.863,135.770 150.000,136.248 150.000 C 136.458 150.000,137.253 149.467,138.015 148.816 C 139.688 147.387,139.505 147.310,137.618 148.650 M265.436 147.968 C 265.909 148.404,268.804 149.330,269.019 149.114 C 269.111 149.023,268.260 148.652,267.129 148.290 C 265.998 147.929,265.237 147.784,265.436 147.968 M271.712 149.495 C 272.764 149.577,274.384 149.576,275.312 149.492 C 276.240 149.408,275.380 149.341,273.400 149.342 C 271.420 149.343,270.660 149.412,271.712 149.495 M235.848 150.900 C 236.709 152.576,239.253 156.272,240.572 157.762 C 242.297 159.712,241.716 158.532,239.783 156.157 C 238.783 154.930,237.416 152.953,236.744 151.763 C 235.422 149.420,234.759 148.782,235.848 150.900 M121.000 151.014 C 121.660 151.317,122.650 151.560,123.200 151.555 C 123.806 151.550,123.411 151.327,122.200 150.991 C 119.726 150.304,119.459 150.309,121.000 151.014 M131.800 151.200 C 130.693 151.482,130.677 151.509,131.600 151.547 C 132.150 151.569,132.870 151.413,133.200 151.200 C 133.881 150.760,133.529 150.760,131.800 151.200 M125.911 151.893 C 126.851 151.978,128.291 151.977,129.111 151.891 C 129.930 151.805,129.160 151.736,127.400 151.737 C 125.640 151.739,124.970 151.809,125.911 151.893 M146.162 158.893 C 145.542 159.620,145.530 159.685,146.100 159.244 C 146.758 158.735,146.800 158.992,146.800 163.527 C 146.800 166.181,146.935 168.436,147.100 168.539 C 147.265 168.641,147.400 166.312,147.400 163.363 C 147.400 157.672,147.352 157.499,146.162 158.893 M289.072 160.213 C 288.232 161.196,287.658 162.000,287.798 162.000 C 288.068 162.000,289.985 159.846,290.520 158.941 C 291.081 157.991,290.641 158.378,289.072 160.213 M94.807 159.399 C 96.344 161.469,101.910 166.286,104.100 167.440 C 105.917 168.398,105.340 167.758,103.320 166.574 C 102.286 165.968,99.814 163.926,97.827 162.036 C 95.840 160.146,94.481 158.959,94.807 159.399 M243.633 160.900 C 243.725 160.955,244.340 161.450,245.000 162.000 L 246.200 163.000 245.230 161.900 C 244.697 161.295,244.082 160.800,243.864 160.800 C 243.645 160.800,243.542 160.845,243.633 160.900 M141.200 164.482 C 139.770 165.826,139.320 166.375,140.200 165.700 C 141.727 164.530,144.343 161.979,143.975 162.019 C 143.879 162.029,142.630 163.138,141.200 164.482 M285.200 164.083 C 283.325 165.800,284.035 165.435,286.314 163.510 C 287.037 162.899,287.487 162.408,287.314 162.417 C 287.141 162.426,286.190 163.176,285.200 164.083 M248.800 164.584 C 248.800 164.694,249.520 165.151,250.400 165.600 C 251.280 166.049,252.000 166.326,252.000 166.216 C 252.000 166.106,251.280 165.649,250.400 165.200 C 249.520 164.751,248.800 164.474,248.800 164.584 M254.000 167.133 C 254.330 167.336,255.050 167.624,255.600 167.771 C 256.295 167.957,256.417 167.925,256.000 167.667 C 255.670 167.464,254.950 167.176,254.400 167.029 C 253.705 166.843,253.583 166.875,254.000 167.133 M279.000 167.414 C 278.000 167.896,277.966 167.951,278.800 167.748 C 279.933 167.471,281.207 166.821,280.600 166.830 C 280.380 166.833,279.660 167.096,279.000 167.414 M291.449 167.815 C 291.312 168.173,291.222 169.216,291.250 170.133 C 291.298 171.731,291.313 171.710,291.618 169.602 C 291.947 167.334,291.885 166.681,291.449 167.815 M275.600 168.400 C 274.796 168.657,274.757 168.723,275.400 168.732 C 275.840 168.738,276.560 168.589,277.000 168.400 C 278.019 167.962,276.968 167.962,275.600 168.400 M153.324 169.099 C 156.362 169.167,161.222 169.167,164.124 169.099 C 167.026 169.031,164.540 168.975,158.600 168.975 C 152.660 168.975,150.286 169.031,153.324 169.099 M196.900 169.099 C 199.925 169.167,204.875 169.167,207.900 169.099 C 210.925 169.031,208.450 168.975,202.400 168.975 C 196.350 168.975,193.875 169.031,196.900 169.099 M261.505 169.083 C 262.002 169.179,262.722 169.175,263.105 169.075 C 263.487 168.975,263.080 168.896,262.200 168.901 C 261.320 168.905,261.007 168.987,261.505 169.083 M267.600 169.200 L 263.800 169.447 267.200 169.494 C 269.070 169.520,271.410 169.397,272.400 169.220 C 274.613 168.827,273.425 168.822,267.600 169.200 M314.924 171.000 C 314.926 172.320,315.001 172.812,315.090 172.093 C 315.179 171.374,315.177 170.294,315.086 169.693 C 314.995 169.092,314.922 169.680,314.924 171.000 M116.623 171.653 C 118.175 171.986,124.349 171.991,125.524 171.660 C 126.032 171.517,123.972 171.400,120.946 171.400 C 117.921 171.400,115.975 171.514,116.623 171.653 M290.649 173.815 C 290.512 174.173,290.415 174.766,290.434 175.133 C 290.453 175.500,290.627 175.269,290.821 174.620 C 291.198 173.358,291.065 172.733,290.649 173.815 M313.822 177.822 C 313.672 178.625,313.628 179.362,313.726 179.460 C 313.824 179.557,314.027 178.981,314.178 178.178 C 314.328 177.375,314.372 176.638,314.274 176.540 C 314.176 176.443,313.973 177.019,313.822 177.822 M232.820 177.776 C 232.557 178.093,232.418 178.858,232.511 179.476 C 232.673 180.552,232.683 180.545,232.740 179.300 L 232.800 178.000 245.500 177.994 C 253.847 177.990,257.994 177.855,257.600 177.600 C 256.548 176.920,233.394 177.085,232.820 177.776 M313.246 180.467 C 313.221 180.834,313.096 181.464,312.970 181.867 C 312.752 182.562,312.763 182.563,313.197 181.887 C 313.448 181.496,313.573 180.866,313.473 180.487 C 313.311 179.868,313.288 179.866,313.246 180.467 M286.770 181.843 C 286.236 182.416,284.900 183.404,283.800 184.039 C 282.700 184.673,281.990 185.194,282.222 185.196 C 282.876 185.202,286.090 183.033,287.170 181.856 C 287.703 181.275,288.049 180.800,287.939 180.800 C 287.829 180.800,287.303 181.269,286.770 181.843 M233.248 183.600 C 233.242 183.930,233.483 184.740,233.786 185.400 C 234.493 186.945,234.503 186.226,233.800 184.400 C 233.503 183.630,233.255 183.270,233.248 183.600 M271.312 186.695 C 272.364 186.777,273.984 186.776,274.912 186.692 C 275.840 186.608,274.980 186.541,273.000 186.542 C 271.020 186.543,270.260 186.612,271.312 186.695 M236.400 190.612 C 236.400 190.762,236.850 191.419,237.400 192.073 C 237.950 192.727,238.400 193.139,238.400 192.988 C 238.400 192.838,237.950 192.181,237.400 191.527 C 236.850 190.873,236.400 190.461,236.400 190.612 M240.422 195.061 C 240.448 195.450,242.779 197.369,242.958 197.147 C 243.022 197.066,242.474 196.487,241.738 195.861 C 241.002 195.234,240.410 194.874,240.422 195.061 M301.218 197.450 C 299.207 198.877,299.169 199.053,301.100 197.989 C 302.035 197.474,302.800 196.906,302.800 196.726 C 302.800 196.313,302.854 196.288,301.218 197.450 M296.600 200.000 C 295.280 200.626,294.330 201.153,294.489 201.169 C 294.935 201.217,299.200 199.273,299.200 199.022 C 299.200 198.744,299.423 198.660,296.600 200.000 M291.800 201.815 C 290.216 202.363,290.214 202.366,291.600 202.138 C 292.370 202.012,293.270 201.754,293.600 201.566 C 294.481 201.064,293.630 201.182,291.800 201.815 M252.600 202.000 C 253.040 202.189,253.670 202.344,254.000 202.344 C 254.378 202.344,254.304 202.217,253.800 202.000 C 253.360 201.811,252.730 201.656,252.400 201.656 C 252.022 201.656,252.096 201.783,252.600 202.000 M288.000 202.818 C 287.562 203.115,287.724 203.152,288.600 202.956 C 290.071 202.627,290.390 202.398,289.367 202.406 C 288.945 202.409,288.330 202.595,288.000 202.818 M259.000 203.590 C 259.764 203.928,262.314 204.157,261.967 203.856 C 261.875 203.776,260.990 203.604,260.000 203.473 C 258.798 203.314,258.466 203.353,259.000 203.590 M282.900 203.876 C 283.285 203.976,283.915 203.976,284.300 203.876 C 284.685 203.775,284.370 203.693,283.600 203.693 C 282.830 203.693,282.515 203.775,282.900 203.876 M265.844 204.477 C 267.797 204.825,275.542 204.817,278.200 204.465 C 279.300 204.319,276.620 204.200,272.244 204.200 C 267.868 204.200,264.988 204.325,265.844 204.477 M97.400 216.000 C 96.322 216.274,96.302 216.306,97.200 216.313 C 97.750 216.317,98.650 216.176,99.200 216.000 C 100.544 215.569,99.092 215.569,97.400 216.000 M194.800 216.000 C 193.443 216.286,193.437 216.295,194.600 216.307 C 195.260 216.315,196.250 216.176,196.800 216.000 C 198.112 215.580,196.796 215.580,194.800 216.000 M292.200 216.000 C 291.130 216.272,291.108 216.305,292.000 216.305 C 292.550 216.305,293.540 216.168,294.200 216.000 C 295.270 215.728,295.292 215.695,294.400 215.695 C 293.850 215.695,292.860 215.832,292.200 216.000 M93.800 216.800 C 93.296 217.017,93.222 217.144,93.600 217.144 C 93.930 217.144,94.560 216.989,95.000 216.800 C 95.504 216.583,95.578 216.456,95.200 216.456 C 94.870 216.456,94.240 216.611,93.800 216.800 M109.800 216.800 C 110.240 216.989,110.870 217.144,111.200 217.144 C 111.578 217.144,111.504 217.017,111.000 216.800 C 110.560 216.611,109.930 216.456,109.600 216.456 C 109.222 216.456,109.296 216.583,109.800 216.800 M191.400 216.800 C 190.896 217.017,190.822 217.144,191.200 217.144 C 191.530 217.144,192.160 216.989,192.600 216.800 C 193.104 216.583,193.178 216.456,192.800 216.456 C 192.470 216.456,191.840 216.611,191.400 216.800 M207.400 216.800 C 207.840 216.989,208.470 217.144,208.800 217.144 C 209.178 217.144,209.104 217.017,208.600 216.800 C 208.160 216.611,207.530 216.456,207.200 216.456 C 206.822 216.456,206.896 216.583,207.400 216.800 M289.000 216.800 C 288.496 217.017,288.422 217.144,288.800 217.144 C 289.130 217.144,289.760 216.989,290.200 216.800 C 290.704 216.583,290.778 216.456,290.400 216.456 C 290.070 216.456,289.440 216.611,289.000 216.800 M305.000 216.800 C 305.440 216.989,306.070 217.144,306.400 217.144 C 306.778 217.144,306.704 217.017,306.200 216.800 C 305.760 216.611,305.130 216.456,304.800 216.456 C 304.422 216.456,304.496 216.583,305.000 216.800 M116.410 219.315 C 116.940 219.918,119.600 221.542,119.600 221.262 C 119.600 221.089,118.835 220.526,117.900 220.011 C 116.965 219.496,116.295 219.183,116.410 219.315 M214.000 219.337 C 214.000 219.423,214.765 219.998,215.700 220.615 C 216.661 221.249,217.152 221.434,216.829 221.042 C 216.287 220.382,214.000 219.004,214.000 219.337 M182.536 221.546 C 181.471 222.397,180.150 223.609,179.600 224.240 C 179.050 224.872,179.500 224.578,180.600 223.587 C 181.700 222.597,183.140 221.390,183.800 220.906 C 184.460 220.422,184.881 220.020,184.736 220.013 C 184.591 220.006,183.601 220.696,182.536 221.546 M314.200 221.062 C 316.811 223.619,319.596 225.960,318.000 224.256 C 317.010 223.200,315.660 221.960,315.000 221.503 C 314.340 221.045,313.980 220.847,314.200 221.062 M219.600 223.800 C 220.795 225.010,221.863 226.000,221.973 226.000 C 222.083 226.000,221.195 225.010,220.000 223.800 C 218.805 222.590,217.737 221.600,217.627 221.600 C 217.517 221.600,218.405 222.590,219.600 223.800 M277.586 223.900 L 275.400 226.200 277.700 224.014 C 279.837 221.982,280.183 221.600,279.886 221.600 C 279.824 221.600,278.789 222.635,277.586 223.900 M82.378 223.900 L 81.000 225.400 82.500 224.022 C 83.896 222.738,84.184 222.400,83.878 222.400 C 83.812 222.400,83.137 223.075,82.378 223.900 M320.627 227.800 C 322.000 229.600,322.268 229.603,321.104 227.805 C 320.607 227.038,320.056 226.408,319.880 226.405 C 319.703 226.402,320.040 227.030,320.627 227.800 M77.673 229.800 C 77.422 230.350,77.283 230.800,77.363 230.800 C 77.443 230.800,77.803 230.350,78.163 229.800 C 78.524 229.250,78.663 228.800,78.473 228.800 C 78.284 228.800,77.923 229.250,77.673 229.800 M172.649 235.415 C 172.512 235.773,172.415 236.366,172.434 236.733 C 172.453 237.100,172.627 236.869,172.821 236.220 C 173.198 234.958,173.065 234.333,172.649 235.415 M130.268 238.600 C 130.571 240.577,130.802 240.914,130.794 239.367 C 130.791 238.725,130.616 237.930,130.405 237.600 C 130.145 237.191,130.101 237.510,130.268 238.600 M227.882 239.221 C 228.008 240.199,228.175 241.075,228.255 241.167 C 228.581 241.542,228.360 238.555,228.021 238.021 C 227.784 237.646,227.735 238.070,227.882 239.221 M269.449 238.215 C 269.312 238.573,269.223 239.436,269.250 240.133 C 269.292 241.187,269.350 241.098,269.599 239.600 C 269.917 237.686,269.859 237.148,269.449 238.215 M74.276 238.810 C 74.130 239.355,74.028 240.340,74.049 241.000 C 74.080 241.957,74.159 241.836,74.442 240.400 C 74.829 238.433,74.702 237.217,74.276 238.810 M325.450 239.600 C 325.775 241.841,326.002 242.160,325.994 240.367 C 325.991 239.615,325.808 238.730,325.588 238.400 C 325.309 237.981,325.267 238.342,325.450 239.600 M171.701 240.200 C 171.705 241.080,171.787 241.393,171.883 240.895 C 171.979 240.398,171.975 239.678,171.875 239.295 C 171.775 238.913,171.696 239.320,171.701 240.200 M130.931 244.200 C 130.933 245.740,131.005 246.321,131.092 245.491 C 131.179 244.661,131.177 243.401,131.089 242.691 C 131.000 241.981,130.929 242.660,130.931 244.200 M268.928 244.000 C 268.928 245.430,269.001 246.015,269.089 245.300 C 269.178 244.585,269.178 243.415,269.089 242.700 C 269.001 241.985,268.928 242.570,268.928 244.000 M74.028 247.433 C 74.044 248.075,74.216 248.960,74.410 249.400 C 74.647 249.934,74.686 249.602,74.527 248.400 C 74.246 246.280,73.988 245.780,74.028 247.433 M171.606 248.033 C 171.609 248.785,171.777 249.661,171.979 249.979 C 172.216 250.354,172.265 249.930,172.118 248.779 C 171.835 246.570,171.598 246.225,171.606 248.033 M325.659 247.400 C 325.620 247.840,325.477 248.650,325.340 249.200 C 325.148 249.970,325.202 250.097,325.575 249.751 C 325.844 249.501,325.985 248.703,325.893 247.951 C 325.802 247.208,325.697 246.960,325.659 247.400 M228.064 248.067 C 228.029 248.654,227.884 249.464,227.741 249.867 C 227.543 250.429,227.596 250.495,227.970 250.151 C 228.244 249.899,228.386 249.109,228.293 248.351 C 228.159 247.253,228.116 247.200,228.064 248.067 M269.206 248.433 C 269.209 249.185,269.377 250.061,269.579 250.379 C 269.816 250.754,269.865 250.330,269.718 249.179 C 269.435 246.970,269.198 246.625,269.206 248.433 M130.460 248.467 C 130.427 249.054,130.296 249.864,130.170 250.267 C 129.952 250.960,129.965 250.961,130.395 250.290 C 130.646 249.899,130.777 249.089,130.686 248.490 L 130.520 247.400 130.460 248.467 M174.000 255.753 C 174.000 256.182,175.190 258.400,175.421 258.400 C 175.531 258.400,175.323 257.815,174.959 257.100 C 174.217 255.640,174.000 255.336,174.000 255.753 M126.586 258.900 L 125.952 260.200 126.767 259.200 C 127.552 258.237,127.808 257.600,127.410 257.600 C 127.306 257.600,126.935 258.185,126.586 258.900 M274.000 260.338 C 274.000 260.524,274.388 261.019,274.862 261.438 L 275.724 262.200 275.016 261.100 C 274.286 259.966,274.000 259.751,274.000 260.338 M319.826 261.500 C 318.962 262.605,318.893 262.790,319.563 262.204 C 320.365 261.504,321.423 260.000,321.114 260.000 C 321.051 260.000,320.472 260.675,319.826 261.500 M124.893 261.200 C 124.618 261.640,124.531 262.000,124.700 262.000 C 124.869 262.000,125.232 261.640,125.507 261.200 C 125.782 260.760,125.869 260.400,125.700 260.400 C 125.531 260.400,125.168 260.760,124.893 261.200 M121.978 264.700 L 120.600 266.200 122.100 264.822 C 123.496 263.538,123.784 263.200,123.478 263.200 C 123.412 263.200,122.737 263.875,121.978 264.700 M316.600 265.076 C 315.500 266.087,315.140 266.547,315.800 266.097 C 316.924 265.330,319.144 263.178,318.770 263.218 C 318.676 263.228,317.700 264.064,316.600 265.076 M216.214 267.246 C 214.113 268.826,213.916 269.087,215.527 268.162 C 216.662 267.510,218.447 265.945,217.962 266.027 C 217.873 266.042,217.086 266.591,216.214 267.246 M118.481 267.372 C 116.725 268.614,116.297 269.145,117.800 268.218 C 119.878 266.935,120.591 266.399,120.189 266.420 C 119.975 266.430,119.207 266.859,118.481 267.372 M87.200 268.179 C 87.200 268.289,87.740 268.659,88.400 269.000 C 89.060 269.341,89.600 269.531,89.600 269.421 C 89.600 269.311,89.060 268.941,88.400 268.600 C 87.740 268.259,87.200 268.069,87.200 268.179 M94.600 271.600 C 94.736 271.820,95.242 271.987,95.724 271.972 C 96.569 271.945,96.571 271.931,95.800 271.600 C 94.699 271.127,94.308 271.127,94.600 271.600 M109.200 271.600 C 108.376 271.864,108.341 271.926,109.000 271.954 C 109.440 271.973,110.070 271.813,110.400 271.600 C 111.101 271.147,110.614 271.147,109.200 271.600 M206.800 271.600 C 205.976 271.864,205.941 271.926,206.600 271.954 C 207.040 271.973,207.670 271.813,208.000 271.600 C 208.701 271.147,208.214 271.147,206.800 271.600 M289.600 271.582 C 289.930 271.805,290.545 271.991,290.967 271.994 C 291.990 272.002,291.671 271.773,290.200 271.444 C 289.324 271.248,289.162 271.285,289.600 271.582 M304.200 271.600 L 303.400 271.944 304.200 271.966 C 304.640 271.978,305.270 271.813,305.600 271.600 C 306.395 271.086,305.396 271.086,304.200 271.600 M98.476 272.460 C 99.707 272.807,105.620 272.815,106.485 272.472 C 106.862 272.322,105.006 272.200,102.361 272.200 C 99.717 272.200,97.968 272.317,98.476 272.460 M196.076 272.460 C 196.584 272.603,198.350 272.720,200.000 272.720 C 201.650 272.720,203.416 272.603,203.924 272.460 C 204.432 272.317,202.666 272.200,200.000 272.200 C 197.334 272.200,195.568 272.317,196.076 272.460 M293.676 272.460 C 294.184 272.603,295.950 272.720,297.600 272.720 C 299.250 272.720,301.016 272.603,301.524 272.460 C 302.032 272.317,300.266 272.200,297.600 272.200 C 294.934 272.200,293.168 272.317,293.676 272.460 M120.400 393.565 C 120.400 393.971,121.423 393.911,121.855 393.478 C 122.008 393.325,121.743 393.200,121.267 393.200 C 120.790 393.200,120.400 393.364,120.400 393.565 " stroke="none" fill="#60c4ef" fill-rule="evenodd"></path></g></svg>